G04 (created by PCBNEW (2013-mar-13)-testing) date T 04 juuni 2013 16:25:38 EEST*
%MOIN*%
G04 Gerber Fmt 3.4, Leading zero omitted, Abs format*
%FSLAX34Y34*%
G01*
G70*
G90*
G04 APERTURE LIST*
%ADD10C,0*%
%ADD11C,0.00787402*%
%ADD12C,0.011811*%
%ADD13C,0.00984252*%
G04 APERTURE END LIST*
G54D10*
G54D11*
X19829Y8270D02*
X15529Y8270D01*
G54D12*
X18854Y8579D02*
X19792Y8579D01*
X19792Y10548D01*
X17448Y8673D02*
X17636Y8579D01*
X18011Y8579D01*
X18198Y8673D01*
X18292Y8860D01*
X18292Y9610D01*
X18198Y9798D01*
X18011Y9891D01*
X17636Y9891D01*
X17448Y9798D01*
X17354Y9610D01*
X17354Y9423D01*
X18292Y9235D01*
X16230Y8579D02*
X16417Y8673D01*
X16511Y8767D01*
X16605Y8954D01*
X16605Y9516D01*
X16511Y9704D01*
X16417Y9798D01*
X16230Y9891D01*
X15948Y9891D01*
X15761Y9798D01*
X15667Y9704D01*
X15573Y9516D01*
X15573Y8954D01*
X15667Y8767D01*
X15761Y8673D01*
X15948Y8579D01*
X16230Y8579D01*
G54D13*
X16266Y12291D02*
X16266Y12685D01*
X16098Y12291D02*
X16098Y12498D01*
X16116Y12535D01*
X16154Y12554D01*
X16210Y12554D01*
X16248Y12535D01*
X16266Y12516D01*
X15966Y12554D02*
X15816Y12554D01*
X15910Y12685D02*
X15910Y12348D01*
X15891Y12310D01*
X15854Y12291D01*
X15816Y12291D01*
X15741Y12554D02*
X15591Y12554D01*
X15685Y12685D02*
X15685Y12348D01*
X15666Y12310D01*
X15629Y12291D01*
X15591Y12291D01*
X15460Y12554D02*
X15460Y12160D01*
X15460Y12535D02*
X15423Y12554D01*
X15348Y12554D01*
X15310Y12535D01*
X15292Y12516D01*
X15273Y12479D01*
X15273Y12366D01*
X15292Y12329D01*
X15310Y12310D01*
X15348Y12291D01*
X15423Y12291D01*
X15460Y12310D01*
X15104Y12329D02*
X15085Y12310D01*
X15104Y12291D01*
X15123Y12310D01*
X15104Y12329D01*
X15104Y12291D01*
X15104Y12535D02*
X15085Y12516D01*
X15104Y12498D01*
X15123Y12516D01*
X15104Y12535D01*
X15104Y12498D01*
X14635Y12704D02*
X14973Y12198D01*
X14223Y12704D02*
X14560Y12198D01*
X14092Y12554D02*
X14092Y12216D01*
X14110Y12179D01*
X14148Y12160D01*
X14167Y12160D01*
X14092Y12685D02*
X14110Y12666D01*
X14092Y12648D01*
X14073Y12666D01*
X14092Y12685D01*
X14092Y12648D01*
X13735Y12291D02*
X13735Y12498D01*
X13754Y12535D01*
X13792Y12554D01*
X13867Y12554D01*
X13904Y12535D01*
X13735Y12310D02*
X13773Y12291D01*
X13867Y12291D01*
X13904Y12310D01*
X13923Y12348D01*
X13923Y12385D01*
X13904Y12423D01*
X13867Y12441D01*
X13773Y12441D01*
X13735Y12460D01*
X13379Y12291D02*
X13379Y12498D01*
X13398Y12535D01*
X13435Y12554D01*
X13510Y12554D01*
X13548Y12535D01*
X13379Y12310D02*
X13417Y12291D01*
X13510Y12291D01*
X13548Y12310D01*
X13567Y12348D01*
X13567Y12385D01*
X13548Y12423D01*
X13510Y12441D01*
X13417Y12441D01*
X13379Y12460D01*
X13192Y12554D02*
X13192Y12291D01*
X13192Y12516D02*
X13173Y12535D01*
X13136Y12554D01*
X13079Y12554D01*
X13042Y12535D01*
X13023Y12498D01*
X13023Y12291D01*
X12667Y12554D02*
X12667Y12291D01*
X12836Y12554D02*
X12836Y12348D01*
X12817Y12310D01*
X12779Y12291D01*
X12723Y12291D01*
X12686Y12310D01*
X12667Y12329D01*
X12498Y12310D02*
X12461Y12291D01*
X12386Y12291D01*
X12348Y12310D01*
X12329Y12348D01*
X12329Y12366D01*
X12348Y12404D01*
X12386Y12423D01*
X12442Y12423D01*
X12479Y12441D01*
X12498Y12479D01*
X12498Y12498D01*
X12479Y12535D01*
X12442Y12554D01*
X12386Y12554D01*
X12348Y12535D01*
X12161Y12329D02*
X12142Y12310D01*
X12161Y12291D01*
X12179Y12310D01*
X12161Y12329D01*
X12161Y12291D01*
X12029Y12554D02*
X11879Y12554D01*
X11973Y12685D02*
X11973Y12348D01*
X11954Y12310D01*
X11917Y12291D01*
X11879Y12291D01*
X11598Y12310D02*
X11636Y12291D01*
X11711Y12291D01*
X11748Y12310D01*
X11767Y12348D01*
X11767Y12498D01*
X11748Y12535D01*
X11711Y12554D01*
X11636Y12554D01*
X11598Y12535D01*
X11579Y12498D01*
X11579Y12460D01*
X11767Y12423D01*
X11242Y12310D02*
X11280Y12291D01*
X11355Y12291D01*
X11392Y12310D01*
X11411Y12329D01*
X11429Y12366D01*
X11429Y12479D01*
X11411Y12516D01*
X11392Y12535D01*
X11355Y12554D01*
X11280Y12554D01*
X11242Y12535D01*
X11073Y12291D02*
X11073Y12685D01*
X10905Y12291D02*
X10905Y12498D01*
X10923Y12535D01*
X10961Y12554D01*
X11017Y12554D01*
X11055Y12535D01*
X11073Y12516D01*
X10717Y12441D02*
X10417Y12441D01*
X10286Y12554D02*
X10136Y12554D01*
X10230Y12685D02*
X10230Y12348D01*
X10211Y12310D01*
X10173Y12291D01*
X10136Y12291D01*
X10005Y12291D02*
X10005Y12685D01*
X9836Y12291D02*
X9836Y12498D01*
X9855Y12535D01*
X9892Y12554D01*
X9948Y12554D01*
X9986Y12535D01*
X10005Y12516D01*
X9648Y12291D02*
X9648Y12554D01*
X9648Y12685D02*
X9667Y12666D01*
X9648Y12648D01*
X9630Y12666D01*
X9648Y12685D01*
X9648Y12648D01*
X9461Y12554D02*
X9461Y12291D01*
X9461Y12516D02*
X9442Y12535D01*
X9405Y12554D01*
X9349Y12554D01*
X9311Y12535D01*
X9292Y12498D01*
X9292Y12291D01*
X8936Y12554D02*
X8936Y12235D01*
X8955Y12198D01*
X8974Y12179D01*
X9011Y12160D01*
X9067Y12160D01*
X9105Y12179D01*
X8936Y12310D02*
X8974Y12291D01*
X9049Y12291D01*
X9086Y12310D01*
X9105Y12329D01*
X9124Y12366D01*
X9124Y12479D01*
X9105Y12516D01*
X9086Y12535D01*
X9049Y12554D01*
X8974Y12554D01*
X8936Y12535D01*
X8749Y12329D02*
X8730Y12310D01*
X8749Y12291D01*
X8767Y12310D01*
X8749Y12329D01*
X8749Y12291D01*
X8505Y12291D02*
X8542Y12310D01*
X8561Y12329D01*
X8580Y12366D01*
X8580Y12479D01*
X8561Y12516D01*
X8542Y12535D01*
X8505Y12554D01*
X8449Y12554D01*
X8411Y12535D01*
X8392Y12516D01*
X8374Y12479D01*
X8374Y12366D01*
X8392Y12329D01*
X8411Y12310D01*
X8449Y12291D01*
X8505Y12291D01*
X8205Y12291D02*
X8205Y12554D01*
X8205Y12479D02*
X8186Y12516D01*
X8167Y12535D01*
X8130Y12554D01*
X8092Y12554D01*
X7792Y12554D02*
X7792Y12235D01*
X7811Y12198D01*
X7830Y12179D01*
X7867Y12160D01*
X7924Y12160D01*
X7961Y12179D01*
X7792Y12310D02*
X7830Y12291D01*
X7905Y12291D01*
X7942Y12310D01*
X7961Y12329D01*
X7980Y12366D01*
X7980Y12479D01*
X7961Y12516D01*
X7942Y12535D01*
X7905Y12554D01*
X7830Y12554D01*
X7792Y12535D01*
X4532Y9835D02*
X4401Y9441D01*
X4270Y9835D01*
X4139Y9441D02*
X4139Y9704D01*
X4139Y9835D02*
X4158Y9816D01*
X4139Y9798D01*
X4120Y9816D01*
X4139Y9835D01*
X4139Y9798D01*
X3951Y9704D02*
X3951Y9441D01*
X3951Y9666D02*
X3933Y9685D01*
X3895Y9704D01*
X3839Y9704D01*
X3801Y9685D01*
X3783Y9648D01*
X3783Y9441D01*
X6229Y12085D02*
X6098Y11691D01*
X5967Y12085D01*
X5836Y11691D02*
X5836Y12085D01*
X5742Y12085D01*
X5686Y12066D01*
X5648Y12029D01*
X5629Y11991D01*
X5611Y11916D01*
X5611Y11860D01*
X5629Y11785D01*
X5648Y11748D01*
X5686Y11710D01*
X5742Y11691D01*
X5836Y11691D01*
X5442Y11691D02*
X5442Y11954D01*
X5442Y12085D02*
X5461Y12066D01*
X5442Y12048D01*
X5423Y12066D01*
X5442Y12085D01*
X5442Y12048D01*
X5086Y11954D02*
X5086Y11635D01*
X5104Y11598D01*
X5123Y11579D01*
X5161Y11560D01*
X5217Y11560D01*
X5254Y11579D01*
X5086Y11710D02*
X5123Y11691D01*
X5198Y11691D01*
X5236Y11710D01*
X5254Y11729D01*
X5273Y11766D01*
X5273Y11879D01*
X5254Y11916D01*
X5236Y11935D01*
X5198Y11954D01*
X5123Y11954D01*
X5086Y11935D01*
X6107Y8835D02*
X5976Y8441D01*
X5845Y8835D01*
X5733Y8554D02*
X5545Y8554D01*
X5770Y8441D02*
X5639Y8835D01*
X5508Y8441D01*
X5376Y8704D02*
X5376Y8441D01*
X5376Y8666D02*
X5358Y8685D01*
X5320Y8704D01*
X5264Y8704D01*
X5226Y8685D01*
X5208Y8648D01*
X5208Y8441D01*
X8711Y10085D02*
X8467Y10085D01*
X8598Y9935D01*
X8542Y9935D01*
X8504Y9916D01*
X8486Y9898D01*
X8467Y9860D01*
X8467Y9766D01*
X8486Y9729D01*
X8504Y9710D01*
X8542Y9691D01*
X8654Y9691D01*
X8692Y9710D01*
X8711Y9729D01*
X8279Y9710D02*
X8279Y9691D01*
X8298Y9654D01*
X8317Y9635D01*
X8148Y10085D02*
X7904Y10085D01*
X8036Y9935D01*
X7979Y9935D01*
X7942Y9916D01*
X7923Y9898D01*
X7904Y9860D01*
X7904Y9766D01*
X7923Y9729D01*
X7942Y9710D01*
X7979Y9691D01*
X8092Y9691D01*
X8129Y9710D01*
X8148Y9729D01*
X7792Y10085D02*
X7661Y9691D01*
X7529Y10085D01*
X8795Y11085D02*
X8664Y10691D01*
X8532Y11085D01*
X8270Y10898D02*
X8214Y10879D01*
X8195Y10860D01*
X8176Y10823D01*
X8176Y10766D01*
X8195Y10729D01*
X8214Y10710D01*
X8251Y10691D01*
X8401Y10691D01*
X8401Y11085D01*
X8270Y11085D01*
X8233Y11066D01*
X8214Y11048D01*
X8195Y11010D01*
X8195Y10973D01*
X8214Y10935D01*
X8233Y10916D01*
X8270Y10898D01*
X8401Y10898D01*
X7839Y10954D02*
X7839Y10691D01*
X8008Y10954D02*
X8008Y10748D01*
X7989Y10710D01*
X7951Y10691D01*
X7895Y10691D01*
X7858Y10710D01*
X7839Y10729D01*
X7670Y10710D02*
X7633Y10691D01*
X7558Y10691D01*
X7520Y10710D01*
X7501Y10748D01*
X7501Y10766D01*
X7520Y10804D01*
X7558Y10823D01*
X7614Y10823D01*
X7651Y10841D01*
X7670Y10879D01*
X7670Y10898D01*
X7651Y10935D01*
X7614Y10954D01*
X7558Y10954D01*
X7520Y10935D01*
X10542Y3441D02*
X10542Y3835D01*
X10392Y3835D01*
X10354Y3816D01*
X10335Y3798D01*
X10317Y3760D01*
X10317Y3704D01*
X10335Y3666D01*
X10354Y3648D01*
X10392Y3629D01*
X10542Y3629D01*
X10073Y3835D02*
X9998Y3835D01*
X9961Y3816D01*
X9923Y3779D01*
X9904Y3704D01*
X9904Y3573D01*
X9923Y3498D01*
X9961Y3460D01*
X9998Y3441D01*
X10073Y3441D01*
X10110Y3460D01*
X10148Y3498D01*
X10167Y3573D01*
X10167Y3704D01*
X10148Y3779D01*
X10110Y3816D01*
X10073Y3835D01*
X9773Y3835D02*
X9679Y3441D01*
X9604Y3723D01*
X9529Y3441D01*
X9436Y3835D01*
X9286Y3648D02*
X9154Y3648D01*
X9098Y3441D02*
X9286Y3441D01*
X9286Y3835D01*
X9098Y3835D01*
X8704Y3441D02*
X8836Y3629D01*
X8929Y3441D02*
X8929Y3835D01*
X8779Y3835D01*
X8742Y3816D01*
X8723Y3798D01*
X8704Y3760D01*
X8704Y3704D01*
X8723Y3666D01*
X8742Y3648D01*
X8779Y3629D01*
X8929Y3629D01*
G54D11*
X13129Y3120D02*
X8629Y3120D01*
G54D13*
X7058Y2963D02*
X6664Y2963D01*
X6664Y2701D02*
X6664Y2626D01*
X6683Y2588D01*
X6720Y2551D01*
X6795Y2532D01*
X6926Y2532D01*
X7001Y2551D01*
X7039Y2588D01*
X7058Y2626D01*
X7058Y2701D01*
X7039Y2738D01*
X7001Y2776D01*
X6926Y2794D01*
X6795Y2794D01*
X6720Y2776D01*
X6683Y2738D01*
X6664Y2701D01*
X7058Y2138D02*
X6870Y2269D01*
X7058Y2363D02*
X6664Y2363D01*
X6664Y2213D01*
X6683Y2176D01*
X6701Y2157D01*
X6739Y2138D01*
X6795Y2138D01*
X6833Y2157D01*
X6851Y2176D01*
X6870Y2213D01*
X6870Y2363D01*
X6851Y1970D02*
X6851Y1838D01*
X7058Y1782D02*
X7058Y1970D01*
X6664Y1970D01*
X6664Y1782D01*
X6851Y1482D02*
X6851Y1613D01*
X7058Y1613D02*
X6664Y1613D01*
X6664Y1426D01*
X8058Y2832D02*
X7870Y2963D01*
X8058Y3057D02*
X7664Y3057D01*
X7664Y2907D01*
X7683Y2869D01*
X7701Y2851D01*
X7739Y2832D01*
X7795Y2832D01*
X7833Y2851D01*
X7851Y2869D01*
X7870Y2907D01*
X7870Y3057D01*
X7851Y2663D02*
X7851Y2532D01*
X8058Y2476D02*
X8058Y2663D01*
X7664Y2663D01*
X7664Y2476D01*
X8039Y2326D02*
X8058Y2269D01*
X8058Y2176D01*
X8039Y2138D01*
X8020Y2119D01*
X7983Y2101D01*
X7945Y2101D01*
X7908Y2119D01*
X7889Y2138D01*
X7870Y2176D01*
X7851Y2251D01*
X7833Y2288D01*
X7814Y2307D01*
X7776Y2326D01*
X7739Y2326D01*
X7701Y2307D01*
X7683Y2288D01*
X7664Y2251D01*
X7664Y2157D01*
X7683Y2101D01*
X7851Y1932D02*
X7851Y1801D01*
X8058Y1745D02*
X8058Y1932D01*
X7664Y1932D01*
X7664Y1745D01*
X7664Y1632D02*
X7664Y1407D01*
X8058Y1520D02*
X7664Y1520D01*
X8664Y2588D02*
X8664Y2344D01*
X8814Y2476D01*
X8814Y2419D01*
X8833Y2382D01*
X8851Y2363D01*
X8889Y2344D01*
X8983Y2344D01*
X9020Y2363D01*
X9039Y2382D01*
X9058Y2419D01*
X9058Y2532D01*
X9039Y2569D01*
X9020Y2588D01*
X9039Y2157D02*
X9058Y2157D01*
X9095Y2176D01*
X9114Y2194D01*
X8664Y2026D02*
X8664Y1782D01*
X8814Y1913D01*
X8814Y1857D01*
X8833Y1820D01*
X8851Y1801D01*
X8889Y1782D01*
X8983Y1782D01*
X9020Y1801D01*
X9039Y1820D01*
X9058Y1857D01*
X9058Y1970D01*
X9039Y2007D01*
X9020Y2026D01*
X8664Y1670D02*
X9058Y1538D01*
X8664Y1407D01*
X9664Y1801D02*
X9664Y1988D01*
X9851Y2007D01*
X9833Y1988D01*
X9814Y1951D01*
X9814Y1857D01*
X9833Y1820D01*
X9851Y1801D01*
X9889Y1782D01*
X9983Y1782D01*
X10020Y1801D01*
X10039Y1820D01*
X10058Y1857D01*
X10058Y1951D01*
X10039Y1988D01*
X10020Y2007D01*
X9664Y1670D02*
X10058Y1538D01*
X9664Y1407D01*
X10683Y2269D02*
X10664Y2307D01*
X10664Y2363D01*
X10683Y2419D01*
X10720Y2457D01*
X10758Y2476D01*
X10833Y2494D01*
X10889Y2494D01*
X10964Y2476D01*
X11001Y2457D01*
X11039Y2419D01*
X11058Y2363D01*
X11058Y2326D01*
X11039Y2269D01*
X11020Y2251D01*
X10889Y2251D01*
X10889Y2326D01*
X11058Y2082D02*
X10664Y2082D01*
X11058Y1857D01*
X10664Y1857D01*
X11058Y1670D02*
X10664Y1670D01*
X10664Y1576D01*
X10683Y1520D01*
X10720Y1482D01*
X10758Y1463D01*
X10833Y1445D01*
X10889Y1445D01*
X10964Y1463D01*
X11001Y1482D01*
X11039Y1520D01*
X11058Y1576D01*
X11058Y1670D01*
X11683Y2269D02*
X11664Y2307D01*
X11664Y2363D01*
X11683Y2419D01*
X11720Y2457D01*
X11758Y2476D01*
X11833Y2494D01*
X11889Y2494D01*
X11964Y2476D01*
X12001Y2457D01*
X12039Y2419D01*
X12058Y2363D01*
X12058Y2326D01*
X12039Y2269D01*
X12020Y2251D01*
X11889Y2251D01*
X11889Y2326D01*
X12058Y2082D02*
X11664Y2082D01*
X12058Y1857D01*
X11664Y1857D01*
X12058Y1670D02*
X11664Y1670D01*
X11664Y1576D01*
X11683Y1520D01*
X11720Y1482D01*
X11758Y1463D01*
X11833Y1445D01*
X11889Y1445D01*
X11964Y1463D01*
X12001Y1482D01*
X12039Y1520D01*
X12058Y1576D01*
X12058Y1670D01*
X12664Y2213D02*
X13058Y2082D01*
X12664Y1951D01*
X13058Y1820D02*
X12795Y1820D01*
X12664Y1820D02*
X12683Y1838D01*
X12701Y1820D01*
X12683Y1801D01*
X12664Y1820D01*
X12701Y1820D01*
X12795Y1632D02*
X13058Y1632D01*
X12833Y1632D02*
X12814Y1613D01*
X12795Y1576D01*
X12795Y1520D01*
X12814Y1482D01*
X12851Y1463D01*
X13058Y1463D01*
X16661Y4554D02*
X16473Y4554D01*
X16698Y4441D02*
X16567Y4835D01*
X16436Y4441D01*
X16304Y4441D02*
X16304Y4835D01*
X16079Y4441D01*
X16079Y4835D01*
X15911Y4554D02*
X15723Y4554D01*
X15948Y4441D02*
X15817Y4835D01*
X15686Y4441D01*
X15367Y4441D02*
X15554Y4441D01*
X15554Y4835D01*
X15161Y4835D02*
X15086Y4835D01*
X15048Y4816D01*
X15011Y4779D01*
X14992Y4704D01*
X14992Y4573D01*
X15011Y4498D01*
X15048Y4460D01*
X15086Y4441D01*
X15161Y4441D01*
X15198Y4460D01*
X15236Y4498D01*
X15254Y4573D01*
X15254Y4704D01*
X15236Y4779D01*
X15198Y4816D01*
X15161Y4835D01*
X14617Y4816D02*
X14655Y4835D01*
X14711Y4835D01*
X14767Y4816D01*
X14805Y4779D01*
X14823Y4741D01*
X14842Y4666D01*
X14842Y4610D01*
X14823Y4535D01*
X14805Y4498D01*
X14767Y4460D01*
X14711Y4441D01*
X14673Y4441D01*
X14617Y4460D01*
X14598Y4479D01*
X14598Y4610D01*
X14673Y4610D01*
G54D11*
X14379Y4120D02*
X20129Y4120D01*
G54D13*
X19945Y3901D02*
X19945Y3713D01*
X20058Y3938D02*
X19664Y3807D01*
X20058Y3676D01*
X19664Y3357D02*
X19664Y3545D01*
X19851Y3563D01*
X19833Y3545D01*
X19814Y3507D01*
X19814Y3413D01*
X19833Y3376D01*
X19851Y3357D01*
X19889Y3338D01*
X19983Y3338D01*
X20020Y3357D01*
X20039Y3376D01*
X20058Y3413D01*
X20058Y3507D01*
X20039Y3545D01*
X20020Y3563D01*
X18945Y3901D02*
X18945Y3713D01*
X19058Y3938D02*
X18664Y3807D01*
X19058Y3676D01*
X18795Y3376D02*
X19058Y3376D01*
X18645Y3470D02*
X18926Y3563D01*
X18926Y3320D01*
X17945Y3901D02*
X17945Y3713D01*
X18058Y3938D02*
X17664Y3807D01*
X18058Y3676D01*
X17664Y3582D02*
X17664Y3338D01*
X17814Y3470D01*
X17814Y3413D01*
X17833Y3376D01*
X17851Y3357D01*
X17889Y3338D01*
X17983Y3338D01*
X18020Y3357D01*
X18039Y3376D01*
X18058Y3413D01*
X18058Y3526D01*
X18039Y3563D01*
X18020Y3582D01*
X16945Y3901D02*
X16945Y3713D01*
X17058Y3938D02*
X16664Y3807D01*
X17058Y3676D01*
X16701Y3563D02*
X16683Y3545D01*
X16664Y3507D01*
X16664Y3413D01*
X16683Y3376D01*
X16701Y3357D01*
X16739Y3338D01*
X16776Y3338D01*
X16833Y3357D01*
X17058Y3582D01*
X17058Y3338D01*
X15945Y3901D02*
X15945Y3713D01*
X16058Y3938D02*
X15664Y3807D01*
X16058Y3676D01*
X16058Y3338D02*
X16058Y3563D01*
X16058Y3451D02*
X15664Y3451D01*
X15720Y3488D01*
X15758Y3526D01*
X15776Y3563D01*
X14945Y3901D02*
X14945Y3713D01*
X15058Y3938D02*
X14664Y3807D01*
X15058Y3676D01*
X14664Y3470D02*
X14664Y3432D01*
X14683Y3395D01*
X14701Y3376D01*
X14739Y3357D01*
X14814Y3338D01*
X14908Y3338D01*
X14983Y3357D01*
X15020Y3376D01*
X15039Y3395D01*
X15058Y3432D01*
X15058Y3470D01*
X15039Y3507D01*
X15020Y3526D01*
X14983Y3545D01*
X14908Y3563D01*
X14814Y3563D01*
X14739Y3545D01*
X14701Y3526D01*
X14683Y3507D01*
X14664Y3470D01*
G54D11*
X20229Y13270D02*
X5729Y13270D01*
G54D13*
X17660Y13691D02*
X17660Y14085D01*
X17566Y14085D01*
X17510Y14066D01*
X17473Y14029D01*
X17454Y13991D01*
X17435Y13916D01*
X17435Y13860D01*
X17454Y13785D01*
X17473Y13748D01*
X17510Y13710D01*
X17566Y13691D01*
X17660Y13691D01*
X17266Y13691D02*
X17266Y14085D01*
X16873Y14066D02*
X16910Y14085D01*
X16966Y14085D01*
X17023Y14066D01*
X17060Y14029D01*
X17079Y13991D01*
X17098Y13916D01*
X17098Y13860D01*
X17079Y13785D01*
X17060Y13748D01*
X17023Y13710D01*
X16966Y13691D01*
X16929Y13691D01*
X16873Y13710D01*
X16854Y13729D01*
X16854Y13860D01*
X16929Y13860D01*
X16685Y13691D02*
X16685Y14085D01*
X16554Y14085D02*
X16329Y14085D01*
X16441Y13691D02*
X16441Y14085D01*
X16216Y13804D02*
X16029Y13804D01*
X16254Y13691D02*
X16123Y14085D01*
X15991Y13691D01*
X15673Y13691D02*
X15860Y13691D01*
X15860Y14085D01*
X15129Y13541D02*
X15148Y13560D01*
X15185Y13616D01*
X15204Y13654D01*
X15223Y13710D01*
X15242Y13804D01*
X15242Y13879D01*
X15223Y13973D01*
X15204Y14029D01*
X15185Y14066D01*
X15148Y14123D01*
X15129Y14141D01*
X14979Y13691D02*
X14979Y14085D01*
X14829Y14085D01*
X14792Y14066D01*
X14773Y14048D01*
X14754Y14010D01*
X14754Y13954D01*
X14773Y13916D01*
X14792Y13898D01*
X14829Y13879D01*
X14979Y13879D01*
X14623Y14085D02*
X14529Y13691D01*
X14454Y13973D01*
X14379Y13691D01*
X14285Y14085D01*
X14135Y13691D02*
X14135Y14085D01*
X14004Y13804D01*
X13873Y14085D01*
X13873Y13691D01*
X13386Y13841D02*
X13086Y13841D01*
X12636Y13541D02*
X12617Y13560D01*
X12579Y13616D01*
X12561Y13654D01*
X12542Y13710D01*
X12523Y13804D01*
X12523Y13879D01*
X12542Y13973D01*
X12561Y14029D01*
X12579Y14066D01*
X12617Y14123D01*
X12636Y14141D01*
X4979Y19304D02*
X4792Y19304D01*
X5017Y19191D02*
X4886Y19585D01*
X4754Y19191D01*
X4398Y19191D02*
X4529Y19379D01*
X4623Y19191D02*
X4623Y19585D01*
X4473Y19585D01*
X4436Y19566D01*
X4417Y19548D01*
X4398Y19510D01*
X4398Y19454D01*
X4417Y19416D01*
X4436Y19398D01*
X4473Y19379D01*
X4623Y19379D01*
X4229Y19398D02*
X4098Y19398D01*
X4042Y19191D02*
X4229Y19191D01*
X4229Y19585D01*
X4042Y19585D01*
X3742Y19398D02*
X3873Y19398D01*
X3873Y19191D02*
X3873Y19585D01*
X3686Y19585D01*
X3039Y16045D02*
X3058Y15988D01*
X3058Y15895D01*
X3039Y15857D01*
X3020Y15838D01*
X2983Y15820D01*
X2945Y15820D01*
X2908Y15838D01*
X2889Y15857D01*
X2870Y15895D01*
X2851Y15970D01*
X2833Y16007D01*
X2814Y16026D01*
X2776Y16045D01*
X2739Y16045D01*
X2701Y16026D01*
X2683Y16007D01*
X2664Y15970D01*
X2664Y15876D01*
X2683Y15820D01*
X3058Y15651D02*
X2664Y15651D01*
X2664Y15557D01*
X2683Y15501D01*
X2720Y15463D01*
X2758Y15445D01*
X2833Y15426D01*
X2889Y15426D01*
X2964Y15445D01*
X3001Y15463D01*
X3039Y15501D01*
X3058Y15557D01*
X3058Y15651D01*
X2945Y15276D02*
X2945Y15088D01*
X3058Y15313D02*
X2664Y15182D01*
X3058Y15051D01*
X2289Y16045D02*
X2308Y15988D01*
X2308Y15895D01*
X2289Y15857D01*
X2270Y15838D01*
X2233Y15820D01*
X2195Y15820D01*
X2158Y15838D01*
X2139Y15857D01*
X2120Y15895D01*
X2101Y15970D01*
X2083Y16007D01*
X2064Y16026D01*
X2026Y16045D01*
X1989Y16045D01*
X1951Y16026D01*
X1933Y16007D01*
X1914Y15970D01*
X1914Y15876D01*
X1933Y15820D01*
X2270Y15426D02*
X2289Y15445D01*
X2308Y15501D01*
X2308Y15538D01*
X2289Y15595D01*
X2251Y15632D01*
X2214Y15651D01*
X2139Y15670D01*
X2083Y15670D01*
X2008Y15651D01*
X1970Y15632D01*
X1933Y15595D01*
X1914Y15538D01*
X1914Y15501D01*
X1933Y15445D01*
X1951Y15426D01*
X2308Y15070D02*
X2308Y15257D01*
X1914Y15257D01*
X4933Y15820D02*
X4914Y15857D01*
X4914Y15913D01*
X4933Y15970D01*
X4970Y16007D01*
X5008Y16026D01*
X5083Y16045D01*
X5139Y16045D01*
X5214Y16026D01*
X5251Y16007D01*
X5289Y15970D01*
X5308Y15913D01*
X5308Y15876D01*
X5289Y15820D01*
X5270Y15801D01*
X5139Y15801D01*
X5139Y15876D01*
X5308Y15632D02*
X4914Y15632D01*
X5308Y15407D01*
X4914Y15407D01*
X5308Y15220D02*
X4914Y15220D01*
X4914Y15126D01*
X4933Y15070D01*
X4970Y15032D01*
X5008Y15013D01*
X5083Y14995D01*
X5139Y14995D01*
X5214Y15013D01*
X5251Y15032D01*
X5289Y15070D01*
X5308Y15126D01*
X5308Y15220D01*
X6308Y15820D02*
X6308Y16045D01*
X6308Y15932D02*
X5914Y15932D01*
X5970Y15970D01*
X6008Y16007D01*
X6026Y16045D01*
X5914Y15688D02*
X5914Y15445D01*
X6064Y15576D01*
X6064Y15520D01*
X6083Y15482D01*
X6101Y15463D01*
X6139Y15445D01*
X6233Y15445D01*
X6270Y15463D01*
X6289Y15482D01*
X6308Y15520D01*
X6308Y15632D01*
X6289Y15670D01*
X6270Y15688D01*
X6158Y14976D02*
X6158Y14676D01*
X7308Y15820D02*
X7308Y16045D01*
X7308Y15932D02*
X6914Y15932D01*
X6970Y15970D01*
X7008Y16007D01*
X7026Y16045D01*
X6951Y15670D02*
X6933Y15651D01*
X6914Y15613D01*
X6914Y15520D01*
X6933Y15482D01*
X6951Y15463D01*
X6989Y15445D01*
X7026Y15445D01*
X7083Y15463D01*
X7308Y15688D01*
X7308Y15445D01*
X8308Y15820D02*
X8308Y16045D01*
X8308Y15932D02*
X7914Y15932D01*
X7970Y15970D01*
X8008Y16007D01*
X8026Y16045D01*
X8308Y15445D02*
X8308Y15670D01*
X8308Y15557D02*
X7914Y15557D01*
X7970Y15595D01*
X8008Y15632D01*
X8026Y15670D01*
X8158Y14976D02*
X8158Y14676D01*
X9308Y15820D02*
X9308Y16045D01*
X9308Y15932D02*
X8914Y15932D01*
X8970Y15970D01*
X9008Y16007D01*
X9026Y16045D01*
X8914Y15576D02*
X8914Y15538D01*
X8933Y15501D01*
X8951Y15482D01*
X8989Y15463D01*
X9064Y15445D01*
X9158Y15445D01*
X9233Y15463D01*
X9270Y15482D01*
X9289Y15501D01*
X9308Y15538D01*
X9308Y15576D01*
X9289Y15613D01*
X9270Y15632D01*
X9233Y15651D01*
X9158Y15670D01*
X9064Y15670D01*
X8989Y15651D01*
X8951Y15632D01*
X8933Y15613D01*
X8914Y15576D01*
X9158Y14976D02*
X9158Y14676D01*
X10308Y16007D02*
X10308Y15932D01*
X10289Y15895D01*
X10270Y15876D01*
X10214Y15838D01*
X10139Y15820D01*
X9989Y15820D01*
X9951Y15838D01*
X9933Y15857D01*
X9914Y15895D01*
X9914Y15970D01*
X9933Y16007D01*
X9951Y16026D01*
X9989Y16045D01*
X10083Y16045D01*
X10120Y16026D01*
X10139Y16007D01*
X10158Y15970D01*
X10158Y15895D01*
X10139Y15857D01*
X10120Y15838D01*
X10083Y15820D01*
X10158Y15351D02*
X10158Y15051D01*
X11083Y15970D02*
X11064Y16007D01*
X11045Y16026D01*
X11008Y16045D01*
X10989Y16045D01*
X10951Y16026D01*
X10933Y16007D01*
X10914Y15970D01*
X10914Y15895D01*
X10933Y15857D01*
X10951Y15838D01*
X10989Y15820D01*
X11008Y15820D01*
X11045Y15838D01*
X11064Y15857D01*
X11083Y15895D01*
X11083Y15970D01*
X11101Y16007D01*
X11120Y16026D01*
X11158Y16045D01*
X11233Y16045D01*
X11270Y16026D01*
X11289Y16007D01*
X11308Y15970D01*
X11308Y15895D01*
X11289Y15857D01*
X11270Y15838D01*
X11233Y15820D01*
X11158Y15820D01*
X11120Y15838D01*
X11101Y15857D01*
X11083Y15895D01*
X12664Y16063D02*
X12664Y15801D01*
X13058Y15970D01*
X13664Y15857D02*
X13664Y15932D01*
X13683Y15970D01*
X13701Y15988D01*
X13758Y16026D01*
X13833Y16045D01*
X13983Y16045D01*
X14020Y16026D01*
X14039Y16007D01*
X14058Y15970D01*
X14058Y15895D01*
X14039Y15857D01*
X14020Y15838D01*
X13983Y15820D01*
X13889Y15820D01*
X13851Y15838D01*
X13833Y15857D01*
X13814Y15895D01*
X13814Y15970D01*
X13833Y16007D01*
X13851Y16026D01*
X13889Y16045D01*
X13908Y15351D02*
X13908Y15051D01*
X14664Y15838D02*
X14664Y16026D01*
X14851Y16045D01*
X14833Y16026D01*
X14814Y15988D01*
X14814Y15895D01*
X14833Y15857D01*
X14851Y15838D01*
X14889Y15820D01*
X14983Y15820D01*
X15020Y15838D01*
X15039Y15857D01*
X15058Y15895D01*
X15058Y15988D01*
X15039Y16026D01*
X15020Y16045D01*
X14908Y15351D02*
X14908Y15051D01*
X15795Y15857D02*
X16058Y15857D01*
X15645Y15951D02*
X15926Y16045D01*
X15926Y15801D01*
X16664Y16063D02*
X16664Y15820D01*
X16814Y15951D01*
X16814Y15895D01*
X16833Y15857D01*
X16851Y15838D01*
X16889Y15820D01*
X16983Y15820D01*
X17020Y15838D01*
X17039Y15857D01*
X17058Y15895D01*
X17058Y16007D01*
X17039Y16045D01*
X17020Y16063D01*
X16908Y15351D02*
X16908Y15051D01*
X17701Y16045D02*
X17683Y16026D01*
X17664Y15988D01*
X17664Y15895D01*
X17683Y15857D01*
X17701Y15838D01*
X17739Y15820D01*
X17776Y15820D01*
X17833Y15838D01*
X18058Y16063D01*
X18058Y15820D01*
X19058Y15820D02*
X19058Y16045D01*
X19058Y15932D02*
X18664Y15932D01*
X18720Y15970D01*
X18758Y16007D01*
X18776Y16045D01*
X18795Y15051D02*
X18908Y15351D01*
X19020Y15051D01*
X18908Y14863D02*
X18908Y14564D01*
X18664Y14132D02*
X18664Y13907D01*
X19058Y14020D02*
X18664Y14020D01*
X18664Y13814D02*
X19058Y13551D01*
X18664Y13551D02*
X19058Y13814D01*
X19664Y15951D02*
X19664Y15913D01*
X19683Y15876D01*
X19701Y15857D01*
X19739Y15838D01*
X19814Y15820D01*
X19908Y15820D01*
X19983Y15838D01*
X20020Y15857D01*
X20039Y15876D01*
X20058Y15913D01*
X20058Y15951D01*
X20039Y15988D01*
X20020Y16007D01*
X19983Y16026D01*
X19908Y16045D01*
X19814Y16045D01*
X19739Y16026D01*
X19701Y16007D01*
X19683Y15988D01*
X19664Y15951D01*
X19908Y15351D02*
X19908Y15051D01*
X19795Y14863D02*
X19908Y14564D01*
X20020Y14863D01*
X20058Y13851D02*
X19870Y13982D01*
X20058Y14076D02*
X19664Y14076D01*
X19664Y13926D01*
X19683Y13889D01*
X19701Y13870D01*
X19739Y13851D01*
X19795Y13851D01*
X19833Y13870D01*
X19851Y13889D01*
X19870Y13926D01*
X19870Y14076D01*
X19664Y13720D02*
X20058Y13457D01*
X19664Y13457D02*
X20058Y13720D01*
M02*
