G04 (created by PCBNEW (2013-mar-13)-testing) date T 04 juuni 2013 16:25:38 EEST*
%MOIN*%
G04 Gerber Fmt 3.4, Leading zero omitted, Abs format*
%FSLAX34Y34*%
G01*
G70*
G90*
G04 APERTURE LIST*
%ADD10C,0*%
%ADD11C,0.00984252*%
%ADD12C,0.00590551*%
%ADD13C,0.012*%
%ADD14C,0.005*%
%ADD15C,0.008*%
G04 APERTURE END LIST*
G54D10*
G54D11*
X11814Y17088D02*
X12208Y17220D01*
X11814Y17351D01*
X12208Y17482D02*
X11814Y17482D01*
X11814Y17745D02*
X11814Y17820D01*
X11833Y17857D01*
X11870Y17895D01*
X11945Y17913D01*
X12076Y17913D01*
X12151Y17895D01*
X12189Y17857D01*
X12208Y17820D01*
X12208Y17745D01*
X12189Y17707D01*
X12151Y17670D01*
X12076Y17651D01*
X11945Y17651D01*
X11870Y17670D01*
X11833Y17707D01*
X11814Y17745D01*
X11833Y18588D02*
X11814Y18551D01*
X11814Y18495D01*
X11833Y18438D01*
X11870Y18401D01*
X11908Y18382D01*
X11983Y18363D01*
X12039Y18363D01*
X12114Y18382D01*
X12151Y18401D01*
X12189Y18438D01*
X12208Y18495D01*
X12208Y18532D01*
X12189Y18588D01*
X12170Y18607D01*
X12039Y18607D01*
X12039Y18532D01*
X12208Y18776D02*
X11814Y18776D01*
X12208Y19001D01*
X11814Y19001D01*
X12208Y19188D02*
X11814Y19188D01*
X11814Y19282D01*
X11833Y19338D01*
X11870Y19376D01*
X11908Y19394D01*
X11983Y19413D01*
X12039Y19413D01*
X12114Y19394D01*
X12151Y19376D01*
X12189Y19338D01*
X12208Y19282D01*
X12208Y19188D01*
X13633Y2470D02*
X13614Y2432D01*
X13614Y2376D01*
X13633Y2320D01*
X13670Y2282D01*
X13708Y2263D01*
X13783Y2245D01*
X13839Y2245D01*
X13914Y2263D01*
X13951Y2282D01*
X13989Y2320D01*
X14008Y2376D01*
X14008Y2413D01*
X13989Y2470D01*
X13970Y2488D01*
X13839Y2488D01*
X13839Y2413D01*
X14008Y2657D02*
X13614Y2657D01*
X14008Y2882D01*
X13614Y2882D01*
X14008Y3070D02*
X13614Y3070D01*
X13614Y3163D01*
X13633Y3220D01*
X13670Y3257D01*
X13708Y3276D01*
X13783Y3295D01*
X13839Y3295D01*
X13914Y3276D01*
X13951Y3257D01*
X13989Y3220D01*
X14008Y3163D01*
X14008Y3070D01*
X13614Y1192D02*
X14008Y1323D01*
X13614Y1454D01*
X13895Y1566D02*
X13895Y1754D01*
X14008Y1529D02*
X13614Y1660D01*
X14008Y1791D01*
X13745Y1923D02*
X14008Y1923D01*
X13783Y1923D02*
X13764Y1941D01*
X13745Y1979D01*
X13745Y2035D01*
X13764Y2073D01*
X13801Y2091D01*
X14008Y2091D01*
X10308Y10132D02*
X10120Y10001D01*
X10308Y9907D02*
X9914Y9907D01*
X9914Y10057D01*
X9933Y10095D01*
X9951Y10113D01*
X9989Y10132D01*
X10045Y10132D01*
X10083Y10113D01*
X10101Y10095D01*
X10120Y10057D01*
X10120Y9907D01*
X10308Y10263D02*
X10045Y10470D01*
X10045Y10263D02*
X10308Y10470D01*
X9914Y9298D02*
X9914Y9523D01*
X10308Y9410D02*
X9914Y9410D01*
X10308Y9616D02*
X10045Y9823D01*
X10045Y9616D02*
X10308Y9823D01*
X8608Y15391D02*
X8608Y15204D01*
X8214Y15204D01*
X11695Y13398D02*
X11695Y13585D01*
X11808Y13360D02*
X11414Y13492D01*
X11808Y13623D01*
X11808Y13979D02*
X11620Y13848D01*
X11808Y13754D02*
X11414Y13754D01*
X11414Y13904D01*
X11433Y13941D01*
X11451Y13960D01*
X11489Y13979D01*
X11545Y13979D01*
X11583Y13960D01*
X11601Y13941D01*
X11620Y13904D01*
X11620Y13754D01*
X11789Y14298D02*
X11808Y14260D01*
X11808Y14185D01*
X11789Y14148D01*
X11751Y14129D01*
X11601Y14129D01*
X11564Y14148D01*
X11545Y14185D01*
X11545Y14260D01*
X11564Y14298D01*
X11601Y14316D01*
X11639Y14316D01*
X11676Y14129D01*
X11545Y14429D02*
X11545Y14579D01*
X11808Y14485D02*
X11470Y14485D01*
X11433Y14504D01*
X11414Y14541D01*
X11414Y14579D01*
X10286Y2785D02*
X10361Y2785D01*
X10398Y2766D01*
X10436Y2729D01*
X10454Y2654D01*
X10454Y2523D01*
X10436Y2448D01*
X10398Y2410D01*
X10361Y2391D01*
X10286Y2391D01*
X10248Y2410D01*
X10211Y2448D01*
X10192Y2523D01*
X10192Y2654D01*
X10211Y2729D01*
X10248Y2766D01*
X10286Y2785D01*
X10623Y2391D02*
X10623Y2785D01*
X10848Y2391D01*
X10848Y2785D01*
X9008Y7188D02*
X8614Y7188D01*
X8970Y7601D02*
X8989Y7582D01*
X9008Y7526D01*
X9008Y7488D01*
X8989Y7432D01*
X8951Y7395D01*
X8914Y7376D01*
X8839Y7357D01*
X8783Y7357D01*
X8708Y7376D01*
X8670Y7395D01*
X8633Y7432D01*
X8614Y7488D01*
X8614Y7526D01*
X8633Y7582D01*
X8651Y7601D01*
X8989Y7751D02*
X9008Y7807D01*
X9008Y7901D01*
X8989Y7938D01*
X8970Y7957D01*
X8933Y7976D01*
X8895Y7976D01*
X8858Y7957D01*
X8839Y7938D01*
X8820Y7901D01*
X8801Y7826D01*
X8783Y7788D01*
X8764Y7770D01*
X8726Y7751D01*
X8689Y7751D01*
X8651Y7770D01*
X8633Y7788D01*
X8614Y7826D01*
X8614Y7920D01*
X8633Y7976D01*
X9008Y8145D02*
X8614Y8145D01*
X8614Y8295D01*
X8633Y8332D01*
X8651Y8351D01*
X8689Y8370D01*
X8745Y8370D01*
X8783Y8351D01*
X8801Y8332D01*
X8820Y8295D01*
X8820Y8145D01*
X10514Y4154D02*
X10908Y4248D01*
X10626Y4323D01*
X10908Y4398D01*
X10514Y4491D01*
X10514Y4585D02*
X10514Y4810D01*
X10908Y4698D02*
X10514Y4698D01*
X10908Y4941D02*
X10514Y4941D01*
X10514Y5035D01*
X10533Y5091D01*
X10570Y5129D01*
X10608Y5148D01*
X10683Y5166D01*
X10739Y5166D01*
X10814Y5148D01*
X10851Y5129D01*
X10889Y5091D01*
X10908Y5035D01*
X10908Y4941D01*
X17308Y4645D02*
X17120Y4513D01*
X17308Y4420D02*
X16914Y4420D01*
X16914Y4570D01*
X16933Y4607D01*
X16951Y4626D01*
X16989Y4645D01*
X17045Y4645D01*
X17083Y4626D01*
X17101Y4607D01*
X17120Y4570D01*
X17120Y4420D01*
X16914Y4757D02*
X16914Y4982D01*
X17308Y4870D02*
X16914Y4870D01*
X17270Y5338D02*
X17289Y5320D01*
X17308Y5263D01*
X17308Y5226D01*
X17289Y5170D01*
X17251Y5132D01*
X17214Y5113D01*
X17139Y5095D01*
X17083Y5095D01*
X17008Y5113D01*
X16970Y5132D01*
X16933Y5170D01*
X16914Y5226D01*
X16914Y5263D01*
X16933Y5320D01*
X16951Y5338D01*
G54D12*
X10053Y1185D02*
X10303Y935D01*
X10303Y935D02*
X10553Y1185D01*
X10553Y1185D02*
X11053Y1185D01*
X11053Y1185D02*
X11303Y935D01*
X11303Y935D02*
X11553Y1185D01*
X11553Y1185D02*
X12053Y1185D01*
X12053Y1185D02*
X12303Y935D01*
X12303Y935D02*
X12553Y1185D01*
X12553Y1185D02*
X13053Y1185D01*
X13053Y1185D02*
X13303Y935D01*
X13303Y935D02*
X13303Y435D01*
X13303Y435D02*
X13053Y185D01*
X13053Y185D02*
X12553Y185D01*
X12553Y185D02*
X12303Y435D01*
X12303Y435D02*
X12053Y185D01*
X12053Y185D02*
X11553Y185D01*
X11553Y185D02*
X11303Y435D01*
X11303Y435D02*
X11053Y185D01*
X11053Y185D02*
X10553Y185D01*
X10553Y185D02*
X10303Y435D01*
X10303Y435D02*
X10053Y185D01*
X10053Y185D02*
X9553Y185D01*
X9553Y185D02*
X9303Y435D01*
X9303Y435D02*
X9053Y185D01*
X9053Y185D02*
X8553Y185D01*
X8553Y185D02*
X8303Y435D01*
X8303Y435D02*
X8053Y185D01*
X8053Y185D02*
X7553Y185D01*
X7553Y185D02*
X7303Y435D01*
X7303Y435D02*
X7053Y185D01*
X7053Y185D02*
X6553Y185D01*
X6553Y185D02*
X6303Y435D01*
X6303Y435D02*
X6053Y185D01*
X6053Y185D02*
X5553Y185D01*
X5553Y185D02*
X5303Y435D01*
X5303Y435D02*
X5303Y685D01*
X5303Y685D02*
X5303Y935D01*
X5303Y935D02*
X5553Y1185D01*
X5553Y1185D02*
X6053Y1185D01*
X6053Y1185D02*
X6303Y935D01*
X6303Y935D02*
X6553Y1185D01*
X6553Y1185D02*
X7053Y1185D01*
X7053Y1185D02*
X7303Y935D01*
X7303Y935D02*
X7553Y1185D01*
X7553Y1185D02*
X8053Y1185D01*
X8053Y1185D02*
X8303Y935D01*
X8303Y935D02*
X8553Y1185D01*
X8553Y1185D02*
X9053Y1185D01*
X9053Y1185D02*
X9303Y935D01*
X9303Y935D02*
X9553Y1185D01*
X9553Y1185D02*
X10053Y1185D01*
X17053Y19185D02*
X17303Y18935D01*
X17303Y18935D02*
X17553Y19185D01*
X17553Y19185D02*
X18053Y19185D01*
X18053Y19185D02*
X18303Y18935D01*
X18303Y18935D02*
X18553Y19185D01*
X18553Y19185D02*
X19053Y19185D01*
X19053Y19185D02*
X19303Y18935D01*
X19303Y18935D02*
X19553Y19185D01*
X19553Y19185D02*
X20053Y19185D01*
X20053Y19185D02*
X20303Y18935D01*
X20303Y18935D02*
X20303Y18435D01*
X20303Y18435D02*
X20053Y18185D01*
X20053Y18185D02*
X19553Y18185D01*
X19553Y18185D02*
X19303Y18435D01*
X19303Y18435D02*
X19053Y18185D01*
X19053Y18185D02*
X18553Y18185D01*
X18553Y18185D02*
X18303Y18435D01*
X18303Y18435D02*
X18053Y18185D01*
X18053Y18185D02*
X17553Y18185D01*
X17553Y18185D02*
X17303Y18435D01*
X17303Y18435D02*
X17053Y18185D01*
X17053Y18185D02*
X16553Y18185D01*
X16553Y18185D02*
X16303Y18435D01*
X16303Y18435D02*
X16053Y18185D01*
X16053Y18185D02*
X15553Y18185D01*
X15553Y18185D02*
X15303Y18435D01*
X15303Y18435D02*
X15053Y18185D01*
X15053Y18185D02*
X14553Y18185D01*
X14553Y18185D02*
X14303Y18435D01*
X14303Y18435D02*
X14053Y18185D01*
X14053Y18185D02*
X13553Y18185D01*
X13553Y18185D02*
X13303Y18435D01*
X13303Y18435D02*
X13053Y18185D01*
X13053Y18185D02*
X12553Y18185D01*
X12553Y18185D02*
X12303Y18435D01*
X12303Y18435D02*
X12303Y18685D01*
X12303Y18685D02*
X12303Y18935D01*
X12303Y18935D02*
X12553Y19185D01*
X12553Y19185D02*
X13053Y19185D01*
X13053Y19185D02*
X13303Y18935D01*
X13303Y18935D02*
X13553Y19185D01*
X13553Y19185D02*
X14053Y19185D01*
X14053Y19185D02*
X14303Y18935D01*
X14303Y18935D02*
X14553Y19185D01*
X14553Y19185D02*
X15053Y19185D01*
X15053Y19185D02*
X15303Y18935D01*
X15303Y18935D02*
X15553Y19185D01*
X15553Y19185D02*
X16053Y19185D01*
X16053Y19185D02*
X16303Y18935D01*
X16303Y18935D02*
X16553Y19185D01*
X16553Y19185D02*
X17053Y19185D01*
G54D13*
X14303Y185D02*
X14303Y1185D01*
X14303Y1185D02*
X20303Y1185D01*
X20303Y1185D02*
X20303Y185D01*
X20303Y185D02*
X14303Y185D01*
X15303Y185D02*
X15303Y1185D01*
G54D12*
X9703Y18935D02*
X9953Y19185D01*
X9953Y19185D02*
X10453Y19185D01*
X10453Y19185D02*
X10703Y18935D01*
X10703Y18935D02*
X10953Y19185D01*
X10953Y19185D02*
X11453Y19185D01*
X11453Y19185D02*
X11703Y18935D01*
X11703Y18935D02*
X11703Y18435D01*
X11703Y18435D02*
X11453Y18185D01*
X11453Y18185D02*
X10953Y18185D01*
X10953Y18185D02*
X10703Y18435D01*
X10703Y18435D02*
X10453Y18185D01*
X10453Y18185D02*
X9953Y18185D01*
X9953Y18185D02*
X9703Y18435D01*
X2703Y18885D02*
X2703Y18485D01*
X6453Y19185D02*
X6703Y18935D01*
X6703Y18935D02*
X6953Y19185D01*
X6953Y19185D02*
X7453Y19185D01*
X7453Y19185D02*
X7703Y18935D01*
X7703Y18935D02*
X7953Y19185D01*
X7953Y19185D02*
X8453Y19185D01*
X8453Y19185D02*
X8703Y18935D01*
X8703Y18935D02*
X8953Y19185D01*
X8953Y19185D02*
X9453Y19185D01*
X9453Y19185D02*
X9703Y18935D01*
X9703Y18435D02*
X9453Y18185D01*
X9453Y18185D02*
X8953Y18185D01*
X8953Y18185D02*
X8703Y18435D01*
X8703Y18435D02*
X8453Y18185D01*
X8453Y18185D02*
X7953Y18185D01*
X7953Y18185D02*
X7703Y18435D01*
X7703Y18435D02*
X7453Y18185D01*
X7453Y18185D02*
X6953Y18185D01*
X6953Y18185D02*
X6703Y18435D01*
X6703Y18435D02*
X6453Y18185D01*
X6453Y18185D02*
X5953Y18185D01*
X5953Y18185D02*
X5703Y18435D01*
X5703Y18435D02*
X5453Y18185D01*
X5453Y18185D02*
X4953Y18185D01*
X4953Y18185D02*
X4703Y18435D01*
X4703Y18435D02*
X4453Y18185D01*
X4453Y18185D02*
X3953Y18185D01*
X3953Y18185D02*
X3703Y18435D01*
X3703Y18435D02*
X3453Y18185D01*
X3453Y18185D02*
X2953Y18185D01*
X2953Y18185D02*
X2703Y18435D01*
X2703Y18435D02*
X2453Y18185D01*
X2453Y18185D02*
X1953Y18185D01*
X1953Y18185D02*
X1703Y18435D01*
X1703Y18435D02*
X1703Y18685D01*
X1703Y18685D02*
X1703Y18935D01*
X1703Y18935D02*
X1953Y19185D01*
X1953Y19185D02*
X2453Y19185D01*
X2453Y19185D02*
X2703Y18935D01*
X2703Y18935D02*
X2953Y19185D01*
X2953Y19185D02*
X3453Y19185D01*
X3453Y19185D02*
X3703Y18935D01*
X3703Y18935D02*
X3953Y19185D01*
X3953Y19185D02*
X4453Y19185D01*
X4453Y19185D02*
X4703Y18935D01*
X4703Y18935D02*
X4953Y19185D01*
X4953Y19185D02*
X5453Y19185D01*
X5453Y19185D02*
X5703Y18935D01*
X5703Y18935D02*
X5953Y19185D01*
X5953Y19185D02*
X6453Y19185D01*
X7047Y13503D02*
X7677Y13503D01*
X7677Y13503D02*
X7677Y13188D01*
X7677Y13188D02*
X7047Y13188D01*
X7047Y13188D02*
X7047Y13503D01*
X7677Y12637D02*
X7047Y12637D01*
X7047Y12637D02*
X7047Y12952D01*
X7047Y12952D02*
X7677Y12952D01*
X7677Y12952D02*
X7677Y12637D01*
X13299Y17877D02*
X13299Y17477D01*
X17049Y18177D02*
X17299Y17927D01*
X17299Y17927D02*
X17549Y18177D01*
X17549Y18177D02*
X18049Y18177D01*
X18049Y18177D02*
X18299Y17927D01*
X18299Y17927D02*
X18549Y18177D01*
X18549Y18177D02*
X19049Y18177D01*
X19049Y18177D02*
X19299Y17927D01*
X19299Y17927D02*
X19549Y18177D01*
X19549Y18177D02*
X20049Y18177D01*
X20049Y18177D02*
X20299Y17927D01*
X20299Y17927D02*
X20299Y17427D01*
X20299Y17427D02*
X20049Y17177D01*
X20049Y17177D02*
X19549Y17177D01*
X19549Y17177D02*
X19299Y17427D01*
X19299Y17427D02*
X19049Y17177D01*
X19049Y17177D02*
X18549Y17177D01*
X18549Y17177D02*
X18299Y17427D01*
X18299Y17427D02*
X18049Y17177D01*
X18049Y17177D02*
X17549Y17177D01*
X17549Y17177D02*
X17299Y17427D01*
X17299Y17427D02*
X17049Y17177D01*
X17049Y17177D02*
X16549Y17177D01*
X16549Y17177D02*
X16299Y17427D01*
X16299Y17427D02*
X16049Y17177D01*
X16049Y17177D02*
X15549Y17177D01*
X15549Y17177D02*
X15299Y17427D01*
X15299Y17427D02*
X15049Y17177D01*
X15049Y17177D02*
X14549Y17177D01*
X14549Y17177D02*
X14299Y17427D01*
X14299Y17427D02*
X14049Y17177D01*
X14049Y17177D02*
X13549Y17177D01*
X13549Y17177D02*
X13299Y17427D01*
X13299Y17427D02*
X13049Y17177D01*
X13049Y17177D02*
X12549Y17177D01*
X12549Y17177D02*
X12299Y17427D01*
X12299Y17427D02*
X12299Y17677D01*
X12299Y17677D02*
X12299Y17927D01*
X12299Y17927D02*
X12549Y18177D01*
X12549Y18177D02*
X13049Y18177D01*
X13049Y18177D02*
X13299Y17927D01*
X13299Y17927D02*
X13549Y18177D01*
X13549Y18177D02*
X14049Y18177D01*
X14049Y18177D02*
X14299Y17927D01*
X14299Y17927D02*
X14549Y18177D01*
X14549Y18177D02*
X15049Y18177D01*
X15049Y18177D02*
X15299Y17927D01*
X15299Y17927D02*
X15549Y18177D01*
X15549Y18177D02*
X16049Y18177D01*
X16049Y18177D02*
X16299Y17927D01*
X16299Y17927D02*
X16549Y18177D01*
X16549Y18177D02*
X17049Y18177D01*
X13299Y16873D02*
X13299Y16473D01*
X17049Y17173D02*
X17299Y16923D01*
X17299Y16923D02*
X17549Y17173D01*
X17549Y17173D02*
X18049Y17173D01*
X18049Y17173D02*
X18299Y16923D01*
X18299Y16923D02*
X18549Y17173D01*
X18549Y17173D02*
X19049Y17173D01*
X19049Y17173D02*
X19299Y16923D01*
X19299Y16923D02*
X19549Y17173D01*
X19549Y17173D02*
X20049Y17173D01*
X20049Y17173D02*
X20299Y16923D01*
X20299Y16923D02*
X20299Y16423D01*
X20299Y16423D02*
X20049Y16173D01*
X20049Y16173D02*
X19549Y16173D01*
X19549Y16173D02*
X19299Y16423D01*
X19299Y16423D02*
X19049Y16173D01*
X19049Y16173D02*
X18549Y16173D01*
X18549Y16173D02*
X18299Y16423D01*
X18299Y16423D02*
X18049Y16173D01*
X18049Y16173D02*
X17549Y16173D01*
X17549Y16173D02*
X17299Y16423D01*
X17299Y16423D02*
X17049Y16173D01*
X17049Y16173D02*
X16549Y16173D01*
X16549Y16173D02*
X16299Y16423D01*
X16299Y16423D02*
X16049Y16173D01*
X16049Y16173D02*
X15549Y16173D01*
X15549Y16173D02*
X15299Y16423D01*
X15299Y16423D02*
X15049Y16173D01*
X15049Y16173D02*
X14549Y16173D01*
X14549Y16173D02*
X14299Y16423D01*
X14299Y16423D02*
X14049Y16173D01*
X14049Y16173D02*
X13549Y16173D01*
X13549Y16173D02*
X13299Y16423D01*
X13299Y16423D02*
X13049Y16173D01*
X13049Y16173D02*
X12549Y16173D01*
X12549Y16173D02*
X12299Y16423D01*
X12299Y16423D02*
X12299Y16673D01*
X12299Y16673D02*
X12299Y16923D01*
X12299Y16923D02*
X12549Y17173D01*
X12549Y17173D02*
X13049Y17173D01*
X13049Y17173D02*
X13299Y16923D01*
X13299Y16923D02*
X13549Y17173D01*
X13549Y17173D02*
X14049Y17173D01*
X14049Y17173D02*
X14299Y16923D01*
X14299Y16923D02*
X14549Y17173D01*
X14549Y17173D02*
X15049Y17173D01*
X15049Y17173D02*
X15299Y16923D01*
X15299Y16923D02*
X15549Y17173D01*
X15549Y17173D02*
X16049Y17173D01*
X16049Y17173D02*
X16299Y16923D01*
X16299Y16923D02*
X16549Y17173D01*
X16549Y17173D02*
X17049Y17173D01*
G54D13*
X14283Y1173D02*
X14283Y2173D01*
X14283Y2173D02*
X20283Y2173D01*
X20283Y2173D02*
X20283Y1173D01*
X20283Y1173D02*
X14283Y1173D01*
X15283Y1173D02*
X15283Y2173D01*
X14303Y2177D02*
X14303Y3177D01*
X14303Y3177D02*
X20303Y3177D01*
X20303Y3177D02*
X20303Y2177D01*
X20303Y2177D02*
X14303Y2177D01*
X15303Y2177D02*
X15303Y3177D01*
G54D12*
X9732Y17927D02*
X9982Y18177D01*
X9982Y18177D02*
X10482Y18177D01*
X10482Y18177D02*
X10732Y17927D01*
X10732Y17927D02*
X10982Y18177D01*
X10982Y18177D02*
X11482Y18177D01*
X11482Y18177D02*
X11732Y17927D01*
X11732Y17927D02*
X11732Y17427D01*
X11732Y17427D02*
X11482Y17177D01*
X11482Y17177D02*
X10982Y17177D01*
X10982Y17177D02*
X10732Y17427D01*
X10732Y17427D02*
X10482Y17177D01*
X10482Y17177D02*
X9982Y17177D01*
X9982Y17177D02*
X9732Y17427D01*
X2732Y17877D02*
X2732Y17477D01*
X6482Y18177D02*
X6732Y17927D01*
X6732Y17927D02*
X6982Y18177D01*
X6982Y18177D02*
X7482Y18177D01*
X7482Y18177D02*
X7732Y17927D01*
X7732Y17927D02*
X7982Y18177D01*
X7982Y18177D02*
X8482Y18177D01*
X8482Y18177D02*
X8732Y17927D01*
X8732Y17927D02*
X8982Y18177D01*
X8982Y18177D02*
X9482Y18177D01*
X9482Y18177D02*
X9732Y17927D01*
X9732Y17427D02*
X9482Y17177D01*
X9482Y17177D02*
X8982Y17177D01*
X8982Y17177D02*
X8732Y17427D01*
X8732Y17427D02*
X8482Y17177D01*
X8482Y17177D02*
X7982Y17177D01*
X7982Y17177D02*
X7732Y17427D01*
X7732Y17427D02*
X7482Y17177D01*
X7482Y17177D02*
X6982Y17177D01*
X6982Y17177D02*
X6732Y17427D01*
X6732Y17427D02*
X6482Y17177D01*
X6482Y17177D02*
X5982Y17177D01*
X5982Y17177D02*
X5732Y17427D01*
X5732Y17427D02*
X5482Y17177D01*
X5482Y17177D02*
X4982Y17177D01*
X4982Y17177D02*
X4732Y17427D01*
X4732Y17427D02*
X4482Y17177D01*
X4482Y17177D02*
X3982Y17177D01*
X3982Y17177D02*
X3732Y17427D01*
X3732Y17427D02*
X3482Y17177D01*
X3482Y17177D02*
X2982Y17177D01*
X2982Y17177D02*
X2732Y17427D01*
X2732Y17427D02*
X2482Y17177D01*
X2482Y17177D02*
X1982Y17177D01*
X1982Y17177D02*
X1732Y17427D01*
X1732Y17427D02*
X1732Y17677D01*
X1732Y17677D02*
X1732Y17927D01*
X1732Y17927D02*
X1982Y18177D01*
X1982Y18177D02*
X2482Y18177D01*
X2482Y18177D02*
X2732Y17927D01*
X2732Y17927D02*
X2982Y18177D01*
X2982Y18177D02*
X3482Y18177D01*
X3482Y18177D02*
X3732Y17927D01*
X3732Y17927D02*
X3982Y18177D01*
X3982Y18177D02*
X4482Y18177D01*
X4482Y18177D02*
X4732Y17927D01*
X4732Y17927D02*
X4982Y18177D01*
X4982Y18177D02*
X5482Y18177D01*
X5482Y18177D02*
X5732Y17927D01*
X5732Y17927D02*
X5982Y18177D01*
X5982Y18177D02*
X6482Y18177D01*
X9732Y16923D02*
X9982Y17173D01*
X9982Y17173D02*
X10482Y17173D01*
X10482Y17173D02*
X10732Y16923D01*
X10732Y16923D02*
X10982Y17173D01*
X10982Y17173D02*
X11482Y17173D01*
X11482Y17173D02*
X11732Y16923D01*
X11732Y16923D02*
X11732Y16423D01*
X11732Y16423D02*
X11482Y16173D01*
X11482Y16173D02*
X10982Y16173D01*
X10982Y16173D02*
X10732Y16423D01*
X10732Y16423D02*
X10482Y16173D01*
X10482Y16173D02*
X9982Y16173D01*
X9982Y16173D02*
X9732Y16423D01*
X2732Y16873D02*
X2732Y16473D01*
X6482Y17173D02*
X6732Y16923D01*
X6732Y16923D02*
X6982Y17173D01*
X6982Y17173D02*
X7482Y17173D01*
X7482Y17173D02*
X7732Y16923D01*
X7732Y16923D02*
X7982Y17173D01*
X7982Y17173D02*
X8482Y17173D01*
X8482Y17173D02*
X8732Y16923D01*
X8732Y16923D02*
X8982Y17173D01*
X8982Y17173D02*
X9482Y17173D01*
X9482Y17173D02*
X9732Y16923D01*
X9732Y16423D02*
X9482Y16173D01*
X9482Y16173D02*
X8982Y16173D01*
X8982Y16173D02*
X8732Y16423D01*
X8732Y16423D02*
X8482Y16173D01*
X8482Y16173D02*
X7982Y16173D01*
X7982Y16173D02*
X7732Y16423D01*
X7732Y16423D02*
X7482Y16173D01*
X7482Y16173D02*
X6982Y16173D01*
X6982Y16173D02*
X6732Y16423D01*
X6732Y16423D02*
X6482Y16173D01*
X6482Y16173D02*
X5982Y16173D01*
X5982Y16173D02*
X5732Y16423D01*
X5732Y16423D02*
X5482Y16173D01*
X5482Y16173D02*
X4982Y16173D01*
X4982Y16173D02*
X4732Y16423D01*
X4732Y16423D02*
X4482Y16173D01*
X4482Y16173D02*
X3982Y16173D01*
X3982Y16173D02*
X3732Y16423D01*
X3732Y16423D02*
X3482Y16173D01*
X3482Y16173D02*
X2982Y16173D01*
X2982Y16173D02*
X2732Y16423D01*
X2732Y16423D02*
X2482Y16173D01*
X2482Y16173D02*
X1982Y16173D01*
X1982Y16173D02*
X1732Y16423D01*
X1732Y16423D02*
X1732Y16673D01*
X1732Y16673D02*
X1732Y16923D01*
X1732Y16923D02*
X1982Y17173D01*
X1982Y17173D02*
X2482Y17173D01*
X2482Y17173D02*
X2732Y16923D01*
X2732Y16923D02*
X2982Y17173D01*
X2982Y17173D02*
X3482Y17173D01*
X3482Y17173D02*
X3732Y16923D01*
X3732Y16923D02*
X3982Y17173D01*
X3982Y17173D02*
X4482Y17173D01*
X4482Y17173D02*
X4732Y16923D01*
X4732Y16923D02*
X4982Y17173D01*
X4982Y17173D02*
X5482Y17173D01*
X5482Y17173D02*
X5732Y16923D01*
X5732Y16923D02*
X5982Y17173D01*
X5982Y17173D02*
X6482Y17173D01*
G54D14*
X7812Y12496D02*
X6912Y12496D01*
X6912Y12496D02*
X6912Y11846D01*
X7812Y11146D02*
X7812Y10496D01*
X7812Y10496D02*
X6912Y10496D01*
X6912Y10496D02*
X6912Y11146D01*
X7812Y11846D02*
X7812Y12496D01*
X5929Y6473D02*
X5929Y5573D01*
X5929Y5573D02*
X6579Y5573D01*
X7279Y6473D02*
X7929Y6473D01*
X7929Y6473D02*
X7929Y5573D01*
X7929Y5573D02*
X7279Y5573D01*
X6579Y6473D02*
X5929Y6473D01*
G54D12*
X4114Y14704D02*
X4114Y11673D01*
X4114Y11673D02*
X492Y11692D01*
X492Y11692D02*
X492Y14704D01*
X492Y14704D02*
X4114Y14704D01*
X1062Y14370D02*
X1062Y12007D01*
X866Y14665D02*
X2913Y14665D01*
X2913Y14665D02*
X2913Y11712D01*
X2913Y11712D02*
X866Y11712D01*
X866Y11712D02*
X866Y14665D01*
X4330Y2952D02*
G75*
G03X3346Y3937I-984J0D01*
G74*
G01*
X3346Y1968D02*
G75*
G03X4330Y2952I0J984D01*
G74*
G01*
X3346Y3937D02*
X1181Y3937D01*
X1181Y1968D02*
X3346Y1968D01*
X1181Y1181D02*
X1181Y4724D01*
X-393Y1181D02*
X-393Y4724D01*
X-393Y4724D02*
X5511Y4724D01*
X5511Y4724D02*
X5511Y1181D01*
X5511Y1181D02*
X-393Y1181D01*
G54D14*
X4360Y6691D02*
X5610Y6691D01*
X5610Y6691D02*
X5610Y7391D01*
X5610Y7391D02*
X4360Y7391D01*
X4360Y4891D02*
X5610Y4891D01*
X5610Y4891D02*
X5610Y5591D01*
X5610Y5591D02*
X4360Y5591D01*
X1960Y7491D02*
X4360Y7491D01*
X4360Y7491D02*
X4360Y4791D01*
X4360Y4791D02*
X1260Y4791D01*
X1210Y4791D02*
X1210Y7491D01*
X1260Y7491D02*
X1960Y7491D01*
G54D12*
X6200Y8070D02*
X7578Y8070D01*
X7578Y8070D02*
X7578Y6889D01*
X7578Y6889D02*
X6200Y6889D01*
X6200Y6889D02*
X6200Y8070D01*
X14803Y12559D02*
X15433Y12559D01*
X15433Y12559D02*
X15433Y12244D01*
X15433Y12244D02*
X14803Y12244D01*
X14803Y12244D02*
X14803Y12559D01*
X12362Y12913D02*
X12362Y12283D01*
X12362Y12283D02*
X12047Y12283D01*
X12047Y12283D02*
X12047Y12913D01*
X12047Y12913D02*
X12362Y12913D01*
X11023Y11614D02*
X11023Y10984D01*
X11023Y10984D02*
X10708Y10984D01*
X10708Y10984D02*
X10708Y11614D01*
X10708Y11614D02*
X11023Y11614D01*
X13188Y6259D02*
X12559Y6259D01*
X12559Y6259D02*
X12559Y6574D01*
X12559Y6574D02*
X13188Y6574D01*
X13188Y6574D02*
X13188Y6259D01*
X16574Y7559D02*
X16574Y8188D01*
X16574Y8188D02*
X16889Y8188D01*
X16889Y8188D02*
X16889Y7559D01*
X16889Y7559D02*
X16574Y7559D01*
X8622Y10629D02*
X7992Y10629D01*
X7992Y10629D02*
X7992Y10944D01*
X7992Y10944D02*
X8622Y10944D01*
X8622Y10944D02*
X8622Y10629D01*
X9015Y10944D02*
X9645Y10944D01*
X9645Y10944D02*
X9645Y10629D01*
X9645Y10629D02*
X9015Y10629D01*
X9015Y10629D02*
X9015Y10944D01*
X9015Y9606D02*
X9645Y9606D01*
X9645Y9606D02*
X9645Y9291D01*
X9645Y9291D02*
X9015Y9291D01*
X9015Y9291D02*
X9015Y9606D01*
X9015Y10196D02*
X9645Y10196D01*
X9645Y10196D02*
X9645Y9881D01*
X9645Y9881D02*
X9015Y9881D01*
X9015Y9881D02*
X9015Y10196D01*
X6929Y14921D02*
X6929Y15551D01*
X6929Y15551D02*
X7244Y15551D01*
X7244Y15551D02*
X7244Y14921D01*
X7244Y14921D02*
X6929Y14921D01*
X10748Y2007D02*
X11377Y2007D01*
X11377Y2007D02*
X11377Y1692D01*
X11377Y1692D02*
X10748Y1692D01*
X10748Y1692D02*
X10748Y2007D01*
X12047Y13307D02*
X12047Y13937D01*
X12047Y13937D02*
X12362Y13937D01*
X12362Y13937D02*
X12362Y13307D01*
X12362Y13307D02*
X12047Y13307D01*
X16692Y11299D02*
X17322Y11299D01*
X17322Y11299D02*
X17322Y10984D01*
X17322Y10984D02*
X16692Y10984D01*
X16692Y10984D02*
X16692Y11299D01*
X8622Y9291D02*
X7992Y9291D01*
X7992Y9291D02*
X7992Y9606D01*
X7992Y9606D02*
X8622Y9606D01*
X8622Y9606D02*
X8622Y9291D01*
X8622Y9881D02*
X7992Y9881D01*
X7992Y9881D02*
X7992Y10196D01*
X7992Y10196D02*
X8622Y10196D01*
X8622Y10196D02*
X8622Y9881D01*
X7952Y15551D02*
X7952Y14921D01*
X7952Y14921D02*
X7637Y14921D01*
X7637Y14921D02*
X7637Y15551D01*
X7637Y15551D02*
X7952Y15551D01*
X10354Y1692D02*
X9724Y1692D01*
X9724Y1692D02*
X9724Y2007D01*
X9724Y2007D02*
X10354Y2007D01*
X10354Y2007D02*
X10354Y1692D01*
G54D14*
X12532Y13079D02*
X12532Y13029D01*
X12532Y13029D02*
X14632Y13029D01*
X14632Y14529D02*
X12532Y14529D01*
X12532Y14529D02*
X12532Y13079D01*
X12532Y13979D02*
X12732Y13979D01*
X12732Y13979D02*
X12732Y13579D01*
X12732Y13579D02*
X12532Y13579D01*
X14632Y14529D02*
X14632Y13029D01*
G54D13*
X15749Y11418D02*
X15749Y7478D01*
X15749Y7478D02*
X11809Y7478D01*
X11809Y11228D02*
X11809Y7478D01*
X11999Y11418D02*
X15749Y11418D01*
X11809Y11228D02*
X11999Y11418D01*
G54D15*
X12529Y10948D02*
G75*
G03X12529Y10948I-250J0D01*
G74*
G01*
G54D12*
X13307Y5590D02*
X13307Y4015D01*
X14566Y5590D02*
X14566Y4015D01*
X14094Y5590D02*
X14094Y4015D01*
X13779Y5590D02*
X13779Y4015D01*
X13031Y5590D02*
X14842Y5590D01*
X14842Y5590D02*
X14842Y4015D01*
X14842Y4015D02*
X13070Y4015D01*
X13070Y4015D02*
X13031Y4015D01*
X13031Y4015D02*
X13031Y5590D01*
X12716Y5669D02*
X12086Y5669D01*
X12086Y5669D02*
X12086Y5984D01*
X12086Y5984D02*
X12716Y5984D01*
X12716Y5984D02*
X12716Y5669D01*
X16496Y3464D02*
X16496Y4094D01*
X16496Y4094D02*
X16811Y4094D01*
X16811Y4094D02*
X16811Y3464D01*
X16811Y3464D02*
X16496Y3464D01*
X17047Y3464D02*
X17047Y4094D01*
X17047Y4094D02*
X17362Y4094D01*
X17362Y4094D02*
X17362Y3464D01*
X17362Y3464D02*
X17047Y3464D01*
G54D14*
X19632Y5385D02*
X19632Y5435D01*
X19632Y5435D02*
X17532Y5435D01*
X17532Y3935D02*
X19632Y3935D01*
X19632Y3935D02*
X19632Y5385D01*
X19632Y4485D02*
X19432Y4485D01*
X19432Y4485D02*
X19432Y4885D01*
X19432Y4885D02*
X19632Y4885D01*
X17532Y3935D02*
X17532Y5435D01*
G54D12*
X18366Y6358D02*
X19783Y6358D01*
X19783Y6358D02*
X19783Y6515D01*
X19783Y6515D02*
X18366Y6515D01*
X19783Y6141D02*
X19783Y9527D01*
X19783Y9527D02*
X18366Y9527D01*
X18366Y9527D02*
X18366Y6141D01*
X18366Y6141D02*
X19783Y6141D01*
X20472Y7362D02*
X20472Y6732D01*
X20472Y6732D02*
X20157Y6732D01*
X20157Y6732D02*
X20157Y7362D01*
X20157Y7362D02*
X20472Y7362D01*
X17716Y6732D02*
X17716Y7362D01*
X17716Y7362D02*
X18031Y7362D01*
X18031Y7362D02*
X18031Y6732D01*
X18031Y6732D02*
X17716Y6732D01*
X11938Y4566D02*
G75*
G03X11938Y4566I-88J0D01*
G74*
G01*
X11653Y4370D02*
X11653Y5000D01*
X11653Y5000D02*
X12755Y5000D01*
X12755Y5000D02*
X12755Y4370D01*
X12755Y4370D02*
X11653Y4370D01*
G54D15*
X16229Y11747D02*
X16229Y16047D01*
X16229Y16047D02*
X17629Y16047D01*
X17629Y16047D02*
X17629Y11747D01*
X17629Y11747D02*
X16229Y11747D01*
X16729Y11747D02*
X16729Y12047D01*
X16729Y12047D02*
X17129Y12047D01*
X17129Y12047D02*
X17129Y11747D01*
G54D14*
X4360Y9447D02*
X5610Y9447D01*
X5610Y9447D02*
X5610Y10147D01*
X5610Y10147D02*
X4360Y10147D01*
X4360Y7647D02*
X5610Y7647D01*
X5610Y7647D02*
X5610Y8347D01*
X5610Y8347D02*
X4360Y8347D01*
X1960Y10247D02*
X4360Y10247D01*
X4360Y10247D02*
X4360Y7547D01*
X4360Y7547D02*
X1260Y7547D01*
X1210Y7547D02*
X1210Y10247D01*
X1260Y10247D02*
X1960Y10247D01*
G54D12*
X20590Y11929D02*
X20590Y16023D01*
X20590Y16023D02*
X18425Y16023D01*
X18425Y16023D02*
X18425Y11574D01*
X18425Y11574D02*
X19212Y11574D01*
G54D15*
X11118Y9137D02*
X11118Y6137D01*
X9118Y6137D02*
X9118Y9137D01*
X9118Y9137D02*
X11118Y9137D01*
X11118Y6137D02*
X9118Y6137D01*
G54D12*
X6200Y9370D02*
X7578Y9370D01*
X7578Y9370D02*
X7578Y8188D01*
X7578Y8188D02*
X6200Y8188D01*
X6200Y8188D02*
X6200Y9370D01*
X17637Y11299D02*
X18267Y11299D01*
X18267Y11299D02*
X18267Y10984D01*
X18267Y10984D02*
X17637Y10984D01*
X17637Y10984D02*
X17637Y11299D01*
G54D14*
X-191Y15549D02*
X-191Y10749D01*
X-191Y10749D02*
X6508Y10749D01*
X6508Y10749D02*
X6508Y15549D01*
X6508Y15549D02*
X-191Y15549D01*
X7268Y4370D02*
X7348Y4370D01*
X7868Y3620D02*
X6068Y3620D01*
X6068Y3620D02*
X6068Y3870D01*
X6708Y5120D02*
X6708Y3620D01*
X6578Y5120D02*
X6578Y3620D01*
X7868Y4870D02*
X7868Y5120D01*
X7868Y5120D02*
X6068Y5120D01*
X6068Y5120D02*
X6068Y4870D01*
X7868Y3870D02*
X7868Y3620D01*
X7018Y4370D02*
X7268Y4183D01*
X7268Y4183D02*
X7268Y4370D01*
X7268Y4370D02*
X7268Y4557D01*
X7268Y4557D02*
X7018Y4370D01*
X7018Y4370D02*
X7018Y4245D01*
X7018Y4245D02*
X7080Y4183D01*
X7018Y4370D02*
X7018Y4495D01*
X7018Y4495D02*
X6956Y4557D01*
X7018Y4370D02*
X6581Y4370D01*
M02*
