G04 (created by PCBNEW (2013-mar-13)-testing) date T 04 juuni 2013 16:25:38 EEST*
%MOIN*%
G04 Gerber Fmt 3.4, Leading zero omitted, Abs format*
%FSLAX34Y34*%
G01*
G70*
G90*
G04 APERTURE LIST*
%ADD10C,0*%
%ADD11C,0.0590551*%
%ADD12R,0.06X0.06*%
%ADD13C,0.06*%
%ADD14C,0.0393701*%
%ADD15C,0.0984252*%
%ADD16C,0.19685*%
%ADD17C,0.0787402*%
%ADD18C,0.1063*%
%ADD19C,0.0275591*%
%ADD20C,0.019685*%
%ADD21C,0.011811*%
%ADD22C,0.0393701*%
%ADD23C,0.00787402*%
%ADD24C,0.019685*%
G04 APERTURE END LIST*
G54D10*
G54D11*
X6803Y685D03*
X7803Y685D03*
X8803Y685D03*
X9803Y685D03*
X10803Y685D03*
X11803Y685D03*
X12803Y685D03*
X5803Y685D03*
X13803Y18685D03*
X14803Y18685D03*
X15803Y18685D03*
X16803Y18685D03*
X17803Y18685D03*
X18803Y18685D03*
X19803Y18685D03*
X12803Y18685D03*
G54D12*
X14803Y685D03*
G54D13*
X15803Y685D03*
X16803Y685D03*
X17803Y685D03*
X18803Y685D03*
X19803Y685D03*
G54D11*
X3203Y18685D03*
X4203Y18685D03*
X5203Y18685D03*
X6203Y18685D03*
X7203Y18685D03*
X8203Y18685D03*
X9203Y18685D03*
X2203Y18685D03*
X10203Y18685D03*
X11203Y18685D03*
X13799Y17677D03*
X14799Y17677D03*
X15799Y17677D03*
X16799Y17677D03*
X17799Y17677D03*
X18799Y17677D03*
X19799Y17677D03*
X12799Y17677D03*
X13799Y16673D03*
X14799Y16673D03*
X15799Y16673D03*
X16799Y16673D03*
X17799Y16673D03*
X18799Y16673D03*
X19799Y16673D03*
X12799Y16673D03*
G54D12*
X14783Y1673D03*
G54D13*
X15783Y1673D03*
X16783Y1673D03*
X17783Y1673D03*
X18783Y1673D03*
X19783Y1673D03*
G54D12*
X14803Y2677D03*
G54D13*
X15803Y2677D03*
X16803Y2677D03*
X17803Y2677D03*
X18803Y2677D03*
X19803Y2677D03*
G54D11*
X3232Y17677D03*
X4232Y17677D03*
X5232Y17677D03*
X6232Y17677D03*
X7232Y17677D03*
X8232Y17677D03*
X9232Y17677D03*
X2232Y17677D03*
X10232Y17677D03*
X11232Y17677D03*
X3232Y16673D03*
X4232Y16673D03*
X5232Y16673D03*
X6232Y16673D03*
X7232Y16673D03*
X8232Y16673D03*
X9232Y16673D03*
X2232Y16673D03*
X10232Y16673D03*
X11232Y16673D03*
G54D14*
X2826Y12312D03*
X2826Y14055D03*
G54D15*
X1574Y11574D03*
X1574Y14803D03*
G54D16*
X3818Y1102D03*
X5000Y2952D03*
X2637Y2952D03*
G54D17*
X6771Y10866D03*
X6062Y10354D03*
X6771Y9842D03*
X5748Y9527D03*
X5196Y10354D03*
X5629Y11141D03*
G54D12*
X10618Y6637D03*
G54D13*
X9618Y6637D03*
X10618Y7637D03*
X9618Y7637D03*
X10618Y8637D03*
X9618Y8637D03*
X5708Y12649D03*
X5708Y13649D03*
X4921Y13649D03*
X4921Y12649D03*
G54D18*
X3858Y10787D03*
X3858Y15511D03*
G54D19*
X11141Y12047D03*
X9803Y2677D03*
X6771Y9842D03*
X12480Y15078D03*
G54D20*
X18361Y15527D03*
G54D19*
X18385Y10393D03*
G54D20*
X14724Y15629D03*
X17598Y12401D03*
X10157Y11456D03*
X9803Y11811D03*
X11811Y5826D03*
X11929Y6692D03*
X10354Y12007D03*
X18385Y4409D03*
X15314Y8366D03*
X18346Y4724D03*
X15472Y8129D03*
G54D19*
X6771Y10866D03*
X4350Y14133D03*
X3937Y14133D03*
X7952Y5236D03*
X12559Y2125D03*
X5866Y5236D03*
G54D20*
X12598Y4685D03*
X7795Y15905D03*
X15196Y9566D03*
X13149Y7716D03*
G54D19*
X12598Y9055D03*
X8188Y6259D03*
X8188Y5826D03*
X10236Y4330D03*
X10236Y5511D03*
X15354Y3937D03*
X15354Y5314D03*
X16732Y6889D03*
X17322Y6299D03*
G54D20*
X11968Y9763D03*
X13031Y6062D03*
X11614Y5629D03*
G54D19*
X11496Y4212D03*
X11968Y3740D03*
X14055Y3503D03*
X13661Y3543D03*
X17913Y6259D03*
X19803Y7283D03*
X18385Y7322D03*
X16220Y7362D03*
X17480Y11614D03*
X19803Y12992D03*
X16574Y15039D03*
X14803Y12874D03*
X15039Y11181D03*
X12519Y11181D03*
G54D20*
X11929Y11653D03*
X11929Y11968D03*
G54D19*
X11259Y11338D03*
X13582Y13779D03*
X6889Y15866D03*
X8031Y8582D03*
X8031Y8937D03*
X8031Y7716D03*
X8070Y7204D03*
X8307Y2834D03*
X8031Y3110D03*
X7755Y3385D03*
G54D20*
X8818Y11220D03*
X15314Y8996D03*
X11338Y11692D03*
G54D19*
X12086Y10374D03*
G54D20*
X11535Y13838D03*
X17086Y10039D03*
X16811Y10039D03*
X13937Y10118D03*
X12007Y14685D03*
X13937Y9015D03*
X13937Y9291D03*
X13937Y9566D03*
X13937Y9842D03*
G54D19*
X17283Y9133D03*
G54D20*
X13937Y10393D03*
X15688Y7598D03*
X16535Y10039D03*
X15551Y7854D03*
X16988Y8503D03*
X10393Y9291D03*
X14055Y6574D03*
G54D19*
X6062Y10354D03*
G54D21*
X9212Y12283D02*
X6771Y9842D01*
X10905Y12283D02*
X9212Y12283D01*
X11141Y12047D02*
X10905Y12283D01*
G54D22*
X9803Y2677D02*
X5786Y6693D01*
X5786Y6693D02*
X5786Y8581D01*
X5786Y8581D02*
X6771Y9566D01*
X6771Y9566D02*
X6771Y9842D01*
G54D21*
X13307Y15905D02*
X13307Y15984D01*
X12480Y15078D02*
X13307Y15905D01*
X4203Y18685D02*
X4691Y19173D01*
X4691Y19173D02*
X13070Y19173D01*
X13070Y19173D02*
X13307Y18937D01*
X13307Y18937D02*
X13307Y16023D01*
X18361Y15527D02*
X18503Y15385D01*
X14803Y18685D02*
X15314Y18173D01*
X18503Y10433D02*
X18385Y10393D01*
X18503Y15385D02*
X18503Y10433D01*
X18062Y15826D02*
X18361Y15527D01*
X15866Y15826D02*
X18062Y15826D01*
X15314Y16377D02*
X15866Y15826D01*
X15314Y18173D02*
X15314Y16377D01*
X10157Y11811D02*
X9881Y12086D01*
X9881Y12086D02*
X9724Y12086D01*
X9724Y12086D02*
X9527Y11889D01*
X9527Y11889D02*
X9527Y11732D01*
X9527Y11732D02*
X9606Y11653D01*
X9606Y11653D02*
X9606Y9569D01*
X9606Y9569D02*
X8976Y8939D01*
X8976Y8939D02*
X8976Y7637D01*
X8976Y7637D02*
X9488Y7125D01*
X9488Y7125D02*
X10129Y7125D01*
X10618Y6637D02*
X10129Y7125D01*
X14921Y15433D02*
X14724Y15629D01*
X17598Y12401D02*
X18110Y12913D01*
X14997Y15433D02*
X14997Y15433D01*
X17831Y15433D02*
X14997Y15433D01*
X18110Y15154D02*
X17831Y15433D01*
X18110Y12913D02*
X18110Y15154D01*
X14997Y15433D02*
X14921Y15433D01*
X10157Y11456D02*
X10157Y11811D01*
X9173Y8082D02*
X9618Y7637D01*
X9173Y8858D02*
X9173Y8082D01*
X9803Y9488D02*
X9173Y8858D01*
X9803Y11811D02*
X9803Y9488D01*
X11929Y5944D02*
X11929Y6692D01*
X11811Y5826D02*
X11929Y5944D01*
X10618Y8637D02*
X11929Y7326D01*
X11929Y7326D02*
X11929Y6692D01*
X10354Y12007D02*
X10433Y11929D01*
X10433Y11929D02*
X10433Y11377D01*
X10433Y11377D02*
X10000Y10944D01*
X10000Y10944D02*
X10000Y9015D01*
X10000Y9015D02*
X10118Y8897D01*
X10118Y8897D02*
X10118Y8137D01*
X10618Y7637D02*
X10118Y8137D01*
G54D23*
X15314Y8366D02*
X15157Y8208D01*
X18320Y4409D02*
X18385Y4409D01*
X15157Y7572D02*
X18320Y4409D01*
X15157Y8208D02*
X15157Y7572D01*
G54D21*
X16279Y8248D02*
X17066Y8248D01*
X16803Y18685D02*
X17283Y18204D01*
X17283Y16377D02*
X17283Y18204D01*
X17440Y16220D02*
X17283Y16377D01*
X18304Y16220D02*
X17440Y16220D01*
X18897Y15627D02*
X18304Y16220D01*
X18897Y13509D02*
X18897Y15627D01*
X15334Y8385D02*
X15649Y8385D01*
X15649Y8385D02*
X15787Y8248D01*
X15787Y8248D02*
X16279Y8248D01*
X15314Y8366D02*
X15334Y8385D01*
X18897Y10078D02*
X18897Y13509D01*
X17066Y8248D02*
X18897Y10078D01*
G54D23*
X15944Y7007D02*
X18228Y4724D01*
X15314Y7972D02*
X15314Y7637D01*
X15314Y7637D02*
X15944Y7007D01*
X15472Y8129D02*
X15314Y7972D01*
X18228Y4724D02*
X18346Y4724D01*
G54D21*
X17803Y18685D02*
X17118Y19370D01*
X3888Y19370D02*
X3203Y18685D01*
X17118Y19370D02*
X3888Y19370D01*
X19094Y13427D02*
X19094Y9997D01*
X17803Y18685D02*
X18346Y18141D01*
X19094Y15708D02*
X19094Y13427D01*
X18346Y16456D02*
X19094Y15708D01*
X18346Y18141D02*
X18346Y16456D01*
X15610Y8129D02*
X15688Y8051D01*
X15688Y8051D02*
X16397Y8051D01*
X15472Y8129D02*
X15610Y8129D01*
X17148Y8051D02*
X16397Y8051D01*
X19094Y9997D02*
X17148Y8051D01*
X5748Y9527D02*
X6062Y9842D01*
G54D22*
X11968Y1614D02*
X10155Y1614D01*
X14783Y1673D02*
X14724Y1614D01*
X11968Y1614D02*
X14724Y1614D01*
X5314Y9094D02*
X5748Y9527D01*
X5314Y6455D02*
X5314Y9094D01*
X10155Y1614D02*
X5314Y6455D01*
G54D24*
X5708Y12649D02*
X5208Y13149D01*
X4350Y14133D02*
X3937Y14133D01*
X4350Y13503D02*
X4350Y14133D01*
X4704Y13149D02*
X4350Y13503D01*
X5208Y13149D02*
X4704Y13149D01*
G54D21*
X5629Y11141D02*
X6062Y10708D01*
G54D22*
X3503Y12716D02*
X5078Y11141D01*
X3503Y12716D02*
X3503Y14370D01*
X3503Y14370D02*
X1496Y16377D01*
X1496Y16377D02*
X1496Y16940D01*
X2232Y17677D02*
X1496Y16940D01*
X5078Y11141D02*
X5629Y11141D01*
X7952Y5195D02*
X7952Y5236D01*
X11061Y2086D02*
X7952Y5195D01*
X12519Y2086D02*
X11061Y2086D01*
X12559Y2125D02*
X12519Y2086D01*
X5196Y10354D02*
X4842Y10000D01*
X4842Y6259D02*
X5866Y5236D01*
X4842Y10000D02*
X4842Y6259D01*
G54D23*
X13700Y10511D02*
X13858Y10669D01*
X12598Y4685D02*
X14318Y6404D01*
X14318Y6404D02*
X14318Y6759D01*
X14318Y6759D02*
X14055Y7021D01*
X14055Y7021D02*
X14055Y8582D01*
X14055Y8582D02*
X13700Y8937D01*
X13700Y8937D02*
X13700Y10511D01*
X13858Y10669D02*
X14026Y10669D01*
X7795Y15905D02*
X7795Y15925D01*
X7795Y15925D02*
X7795Y15905D01*
X7795Y15905D02*
X7795Y15925D01*
G54D21*
X15196Y9566D02*
X15129Y9566D01*
X6732Y18155D02*
X6203Y18685D01*
X6732Y16417D02*
X6732Y18155D01*
X7224Y15925D02*
X6732Y16417D01*
X8771Y15925D02*
X7795Y15925D01*
X7795Y15925D02*
X7224Y15925D01*
X15129Y9566D02*
X14026Y10669D01*
X14026Y10669D02*
X8771Y15925D01*
X13149Y7716D02*
X13149Y8503D01*
X13149Y8503D02*
X12598Y9055D01*
X8188Y5826D02*
X9921Y5826D01*
X8188Y6259D02*
X8188Y5826D01*
X9921Y5826D02*
X10236Y5511D01*
X15354Y5314D02*
X15354Y3937D01*
X17322Y6299D02*
X16732Y6889D01*
X13700Y3503D02*
X14055Y3503D01*
X13661Y3543D02*
X13700Y3503D01*
G54D23*
X11929Y11968D02*
X11929Y11653D01*
G54D21*
X8031Y8937D02*
X8031Y8582D01*
X8031Y7244D02*
X8031Y7716D01*
X8070Y7204D02*
X8031Y7244D01*
X7755Y3385D02*
X8031Y3110D01*
X7913Y16141D02*
X8832Y16141D01*
X7913Y16141D02*
X7716Y16338D01*
X7716Y16338D02*
X7716Y18171D01*
X7203Y18685D02*
X7716Y18171D01*
X15314Y9330D02*
X15452Y9468D01*
X15452Y9468D02*
X15452Y9665D01*
X15452Y9665D02*
X15216Y9901D01*
X15314Y8996D02*
X15314Y9330D01*
X15073Y9901D02*
X15216Y9901D01*
X8832Y16141D02*
X15073Y9901D01*
X11338Y11692D02*
X12086Y10944D01*
X12086Y10944D02*
X12086Y10885D01*
X12086Y10885D02*
X12086Y10374D01*
X8203Y18685D02*
X8720Y18167D01*
X11414Y13838D02*
X11535Y13838D01*
X8720Y16532D02*
X11414Y13838D01*
X8720Y18167D02*
X8720Y16532D01*
X17086Y10120D02*
X17086Y10039D01*
X16695Y10511D02*
X17086Y10120D01*
X15297Y10511D02*
X16695Y10511D01*
X12213Y13596D02*
X15297Y10511D01*
X11732Y18155D02*
X11732Y14533D01*
X11732Y14533D02*
X12213Y14052D01*
X12213Y14052D02*
X12213Y13596D01*
X11203Y18685D02*
X11732Y18155D01*
X15216Y10314D02*
X16614Y10314D01*
X10748Y18140D02*
X10748Y15061D01*
X10748Y15061D02*
X11479Y14330D01*
X11479Y14330D02*
X11656Y14330D01*
X11656Y14330D02*
X12016Y13970D01*
X12016Y13970D02*
X12016Y13515D01*
X12016Y13515D02*
X15216Y10314D01*
X10203Y18685D02*
X10748Y18140D01*
X16811Y10118D02*
X16811Y10039D01*
X16614Y10314D02*
X16811Y10118D01*
G54D23*
X14842Y7401D02*
X18897Y3346D01*
X14842Y7401D02*
X14842Y9296D01*
X14842Y9296D02*
X14021Y10118D01*
X14021Y10118D02*
X13937Y10118D01*
G54D21*
X19291Y1173D02*
X18803Y685D01*
G54D23*
X19015Y3346D02*
X18897Y3346D01*
X19291Y3070D02*
X19015Y3346D01*
X19291Y1173D02*
X19291Y3070D01*
G54D21*
X12803Y18685D02*
X11929Y17811D01*
X11929Y14763D02*
X12007Y14685D01*
X11929Y17811D02*
X11929Y14763D01*
X14803Y685D02*
X15275Y1157D01*
G54D23*
X14010Y9015D02*
X13937Y9015D01*
X14212Y8813D02*
X14010Y9015D01*
X14212Y7086D02*
X14212Y8813D01*
X16062Y5236D02*
X14212Y7086D01*
X16062Y3779D02*
X16062Y5236D01*
X15275Y2992D02*
X16062Y3779D01*
X15275Y1157D02*
X15275Y2992D01*
G54D21*
X15803Y685D02*
X16259Y1141D01*
G54D23*
X14012Y9291D02*
X13937Y9291D01*
X14370Y8934D02*
X14012Y9291D01*
X14370Y7165D02*
X14370Y8934D01*
X16259Y5275D02*
X14370Y7165D01*
X16259Y1141D02*
X16259Y5275D01*
X14527Y7244D02*
X14527Y9055D01*
X17283Y1165D02*
X17283Y4488D01*
X17283Y4488D02*
X14527Y7244D01*
G54D21*
X16803Y685D02*
X17283Y1165D01*
G54D23*
X14527Y9055D02*
X14015Y9566D01*
X14015Y9566D02*
X13937Y9566D01*
X14685Y7322D02*
X14685Y9176D01*
X14685Y9176D02*
X14018Y9842D01*
X14018Y9842D02*
X13937Y9842D01*
G54D21*
X18267Y1149D02*
X17803Y685D01*
G54D23*
X18267Y3740D02*
X14685Y7322D01*
X18267Y1149D02*
X18267Y3740D01*
G54D21*
X13803Y18685D02*
X14291Y18196D01*
X17395Y9133D02*
X17283Y9133D01*
X18070Y9808D02*
X17395Y9133D01*
X18070Y10511D02*
X18070Y9808D01*
X18307Y10748D02*
X18070Y10511D01*
X18307Y15236D02*
X18307Y10748D01*
X17913Y15629D02*
X18307Y15236D01*
X15078Y15629D02*
X17913Y15629D01*
X14291Y16417D02*
X15078Y15629D01*
X14291Y18196D02*
X14291Y16417D01*
G54D23*
X15000Y7480D02*
X18897Y3582D01*
G54D21*
X19803Y685D02*
X20314Y1196D01*
G54D23*
X20314Y1196D02*
X20314Y2952D01*
X20314Y2952D02*
X19685Y3582D01*
X19685Y3582D02*
X18897Y3582D01*
X15000Y7480D02*
X15000Y9417D01*
X15000Y9417D02*
X14024Y10393D01*
X14024Y10393D02*
X13937Y10393D01*
G54D21*
X19488Y9834D02*
X17311Y7657D01*
X17311Y7657D02*
X15748Y7657D01*
X15748Y7657D02*
X15688Y7598D01*
X19291Y19173D02*
X18803Y18685D01*
X20039Y19173D02*
X19291Y19173D01*
X20314Y18897D02*
X20039Y19173D01*
X20314Y16574D02*
X20314Y18897D01*
X19488Y15748D02*
X20314Y16574D01*
X19488Y13264D02*
X19488Y15748D01*
X19488Y13264D02*
X19488Y9834D01*
X15134Y10118D02*
X16456Y10118D01*
X9724Y18163D02*
X9724Y15806D01*
X9724Y15806D02*
X11397Y14133D01*
X11397Y14133D02*
X11574Y14133D01*
X11574Y14133D02*
X11819Y13889D01*
X11819Y13889D02*
X11819Y13433D01*
X11819Y13433D02*
X15134Y10118D01*
X9203Y18685D02*
X9724Y18163D01*
X16456Y10118D02*
X16535Y10039D01*
X16417Y7854D02*
X17230Y7854D01*
X19291Y18173D02*
X19291Y13346D01*
X19803Y18685D02*
X19291Y18173D01*
X16417Y7854D02*
X15551Y7854D01*
X19291Y9915D02*
X19291Y13346D01*
X17230Y7854D02*
X19291Y9915D01*
X17044Y8503D02*
X18700Y10160D01*
X16988Y8503D02*
X17044Y8503D01*
X16299Y18188D02*
X15803Y18685D01*
X16299Y16377D02*
X16299Y18188D01*
X16653Y16023D02*
X16299Y16377D01*
X18222Y16023D02*
X16653Y16023D01*
X18700Y15545D02*
X18222Y16023D01*
X18700Y10160D02*
X18700Y15545D01*
X12959Y6574D02*
X12880Y6653D01*
X10393Y9291D02*
X10669Y9291D01*
X12880Y6653D02*
X11062Y8471D01*
X11062Y8897D02*
X11062Y8471D01*
X10669Y9291D02*
X11062Y8897D01*
G54D23*
X14055Y6574D02*
X12959Y6574D01*
G54D21*
X6062Y9842D02*
X6062Y10354D01*
X6771Y10866D02*
X6259Y10354D01*
X6259Y10354D02*
X6062Y10354D01*
X6062Y10708D02*
X6062Y10354D01*
G54D22*
X9803Y685D02*
X9629Y685D01*
X7377Y1259D02*
X6803Y685D01*
X9055Y1259D02*
X7377Y1259D01*
X9629Y685D02*
X9055Y1259D01*
G54D10*
G36*
X7702Y16102D02*
X7297Y16102D01*
X7129Y16270D01*
X7172Y16255D01*
X7336Y16264D01*
X7447Y16310D01*
X7480Y16369D01*
X7232Y16617D01*
X7226Y16612D01*
X7171Y16667D01*
X7176Y16673D01*
X6928Y16921D01*
X6909Y16910D01*
X6909Y17415D01*
X6997Y17326D01*
X7149Y17263D01*
X7314Y17263D01*
X7466Y17326D01*
X7539Y17399D01*
X7539Y16919D01*
X7535Y16921D01*
X7480Y16866D01*
X7480Y16976D01*
X7447Y17035D01*
X7292Y17090D01*
X7127Y17081D01*
X7017Y17035D01*
X6984Y16976D01*
X7232Y16728D01*
X7480Y16976D01*
X7480Y16866D01*
X7287Y16673D01*
X7535Y16424D01*
X7539Y16426D01*
X7539Y16338D01*
X7552Y16270D01*
X7591Y16213D01*
X7702Y16102D01*
X7702Y16102D01*
G37*
G54D23*
X7702Y16102D02*
X7297Y16102D01*
X7129Y16270D01*
X7172Y16255D01*
X7336Y16264D01*
X7447Y16310D01*
X7480Y16369D01*
X7232Y16617D01*
X7226Y16612D01*
X7171Y16667D01*
X7176Y16673D01*
X6928Y16921D01*
X6909Y16910D01*
X6909Y17415D01*
X6997Y17326D01*
X7149Y17263D01*
X7314Y17263D01*
X7466Y17326D01*
X7539Y17399D01*
X7539Y16919D01*
X7535Y16921D01*
X7480Y16866D01*
X7480Y16976D01*
X7447Y17035D01*
X7292Y17090D01*
X7127Y17081D01*
X7017Y17035D01*
X6984Y16976D01*
X7232Y16728D01*
X7480Y16976D01*
X7480Y16866D01*
X7287Y16673D01*
X7535Y16424D01*
X7539Y16426D01*
X7539Y16338D01*
X7552Y16270D01*
X7591Y16213D01*
X7702Y16102D01*
G54D10*
G36*
X8683Y16318D02*
X8452Y16318D01*
X8480Y16369D01*
X8232Y16617D01*
X7984Y16369D01*
X8012Y16318D01*
X7986Y16318D01*
X7893Y16411D01*
X7893Y16444D01*
X7928Y16424D01*
X8176Y16673D01*
X7928Y16921D01*
X7893Y16901D01*
X7893Y17431D01*
X7997Y17326D01*
X8149Y17263D01*
X8314Y17263D01*
X8466Y17326D01*
X8543Y17403D01*
X8543Y16917D01*
X8535Y16921D01*
X8480Y16866D01*
X8480Y16976D01*
X8447Y17035D01*
X8292Y17090D01*
X8127Y17081D01*
X8017Y17035D01*
X7984Y16976D01*
X8232Y16728D01*
X8480Y16976D01*
X8480Y16866D01*
X8287Y16673D01*
X8535Y16424D01*
X8570Y16444D01*
X8595Y16407D01*
X8683Y16318D01*
X8683Y16318D01*
G37*
G54D23*
X8683Y16318D02*
X8452Y16318D01*
X8480Y16369D01*
X8232Y16617D01*
X7984Y16369D01*
X8012Y16318D01*
X7986Y16318D01*
X7893Y16411D01*
X7893Y16444D01*
X7928Y16424D01*
X8176Y16673D01*
X7928Y16921D01*
X7893Y16901D01*
X7893Y17431D01*
X7997Y17326D01*
X8149Y17263D01*
X8314Y17263D01*
X8466Y17326D01*
X8543Y17403D01*
X8543Y16917D01*
X8535Y16921D01*
X8480Y16866D01*
X8480Y16976D01*
X8447Y17035D01*
X8292Y17090D01*
X8127Y17081D01*
X8017Y17035D01*
X7984Y16976D01*
X8232Y16728D01*
X8480Y16976D01*
X8480Y16866D01*
X8287Y16673D01*
X8535Y16424D01*
X8570Y16444D01*
X8595Y16407D01*
X8683Y16318D01*
G54D10*
G36*
X9547Y15956D02*
X9243Y16259D01*
X9336Y16264D01*
X9447Y16310D01*
X9480Y16369D01*
X9232Y16617D01*
X9226Y16612D01*
X9171Y16667D01*
X9176Y16673D01*
X8928Y16921D01*
X8897Y16904D01*
X8897Y17427D01*
X8997Y17326D01*
X9149Y17263D01*
X9314Y17263D01*
X9466Y17326D01*
X9547Y17407D01*
X9547Y16915D01*
X9535Y16921D01*
X9480Y16866D01*
X9480Y16976D01*
X9447Y17035D01*
X9292Y17090D01*
X9127Y17081D01*
X9017Y17035D01*
X8984Y16976D01*
X9232Y16728D01*
X9480Y16976D01*
X9480Y16866D01*
X9287Y16673D01*
X9535Y16424D01*
X9547Y16431D01*
X9547Y15956D01*
X9547Y15956D01*
G37*
G54D23*
X9547Y15956D02*
X9243Y16259D01*
X9336Y16264D01*
X9447Y16310D01*
X9480Y16369D01*
X9232Y16617D01*
X9226Y16612D01*
X9171Y16667D01*
X9176Y16673D01*
X8928Y16921D01*
X8897Y16904D01*
X8897Y17427D01*
X8997Y17326D01*
X9149Y17263D01*
X9314Y17263D01*
X9466Y17326D01*
X9547Y17407D01*
X9547Y16915D01*
X9535Y16921D01*
X9480Y16866D01*
X9480Y16976D01*
X9447Y17035D01*
X9292Y17090D01*
X9127Y17081D01*
X9017Y17035D01*
X8984Y16976D01*
X9232Y16728D01*
X9480Y16976D01*
X9480Y16866D01*
X9287Y16673D01*
X9535Y16424D01*
X9547Y16431D01*
X9547Y15956D01*
G54D10*
G36*
X10570Y15211D02*
X10480Y15301D01*
X10480Y16369D01*
X10232Y16617D01*
X9984Y16369D01*
X10017Y16310D01*
X10172Y16255D01*
X10336Y16264D01*
X10447Y16310D01*
X10480Y16369D01*
X10480Y15301D01*
X9901Y15880D01*
X9901Y16440D01*
X9928Y16424D01*
X10176Y16673D01*
X9928Y16921D01*
X9901Y16906D01*
X9901Y17423D01*
X9997Y17326D01*
X10149Y17263D01*
X10314Y17263D01*
X10466Y17326D01*
X10570Y17431D01*
X10570Y16901D01*
X10535Y16921D01*
X10480Y16866D01*
X10480Y16976D01*
X10447Y17035D01*
X10292Y17090D01*
X10127Y17081D01*
X10017Y17035D01*
X9984Y16976D01*
X10232Y16728D01*
X10480Y16976D01*
X10480Y16866D01*
X10287Y16673D01*
X10535Y16424D01*
X10570Y16444D01*
X10570Y15211D01*
X10570Y15211D01*
G37*
G54D23*
X10570Y15211D02*
X10480Y15301D01*
X10480Y16369D01*
X10232Y16617D01*
X9984Y16369D01*
X10017Y16310D01*
X10172Y16255D01*
X10336Y16264D01*
X10447Y16310D01*
X10480Y16369D01*
X10480Y15301D01*
X9901Y15880D01*
X9901Y16440D01*
X9928Y16424D01*
X10176Y16673D01*
X9928Y16921D01*
X9901Y16906D01*
X9901Y17423D01*
X9997Y17326D01*
X10149Y17263D01*
X10314Y17263D01*
X10466Y17326D01*
X10570Y17431D01*
X10570Y16901D01*
X10535Y16921D01*
X10480Y16866D01*
X10480Y16976D01*
X10447Y17035D01*
X10292Y17090D01*
X10127Y17081D01*
X10017Y17035D01*
X9984Y16976D01*
X10232Y16728D01*
X10480Y16976D01*
X10480Y16866D01*
X10287Y16673D01*
X10535Y16424D01*
X10570Y16444D01*
X10570Y15211D01*
G54D10*
G36*
X11560Y14507D02*
X11552Y14507D01*
X11480Y14579D01*
X11480Y16369D01*
X11232Y16617D01*
X10984Y16369D01*
X11017Y16310D01*
X11172Y16255D01*
X11336Y16264D01*
X11447Y16310D01*
X11480Y16369D01*
X11480Y14579D01*
X10925Y15135D01*
X10925Y16426D01*
X10928Y16424D01*
X11176Y16673D01*
X10928Y16921D01*
X10925Y16919D01*
X10925Y17399D01*
X10997Y17326D01*
X11149Y17263D01*
X11314Y17263D01*
X11466Y17326D01*
X11555Y17415D01*
X11555Y16910D01*
X11535Y16921D01*
X11480Y16866D01*
X11480Y16976D01*
X11447Y17035D01*
X11292Y17090D01*
X11127Y17081D01*
X11017Y17035D01*
X10984Y16976D01*
X11232Y16728D01*
X11480Y16976D01*
X11480Y16866D01*
X11287Y16673D01*
X11535Y16424D01*
X11555Y16435D01*
X11555Y14533D01*
X11560Y14507D01*
X11560Y14507D01*
G37*
G54D23*
X11560Y14507D02*
X11552Y14507D01*
X11480Y14579D01*
X11480Y16369D01*
X11232Y16617D01*
X10984Y16369D01*
X11017Y16310D01*
X11172Y16255D01*
X11336Y16264D01*
X11447Y16310D01*
X11480Y16369D01*
X11480Y14579D01*
X10925Y15135D01*
X10925Y16426D01*
X10928Y16424D01*
X11176Y16673D01*
X10928Y16921D01*
X10925Y16919D01*
X10925Y17399D01*
X10997Y17326D01*
X11149Y17263D01*
X11314Y17263D01*
X11466Y17326D01*
X11555Y17415D01*
X11555Y16910D01*
X11535Y16921D01*
X11480Y16866D01*
X11480Y16976D01*
X11447Y17035D01*
X11292Y17090D01*
X11127Y17081D01*
X11017Y17035D01*
X10984Y16976D01*
X11232Y16728D01*
X11480Y16976D01*
X11480Y16866D01*
X11287Y16673D01*
X11535Y16424D01*
X11555Y16435D01*
X11555Y14533D01*
X11560Y14507D01*
G54D10*
G36*
X14063Y6791D02*
X14012Y6791D01*
X13932Y6758D01*
X13906Y6732D01*
X13052Y6732D01*
X13006Y6778D01*
X11240Y8544D01*
X11240Y8897D01*
X11226Y8965D01*
X11188Y9022D01*
X10794Y9416D01*
X10737Y9455D01*
X10669Y9468D01*
X10522Y9468D01*
X10516Y9474D01*
X10436Y9507D01*
X10350Y9507D01*
X10271Y9475D01*
X10210Y9414D01*
X10177Y9334D01*
X10177Y9292D01*
X10177Y10871D01*
X10558Y11252D01*
X10596Y11310D01*
X10596Y11310D01*
X10610Y11377D01*
X10610Y11929D01*
X10610Y11929D01*
X10596Y11996D01*
X10570Y12035D01*
X10570Y12050D01*
X10548Y12105D01*
X10832Y12105D01*
X10885Y12052D01*
X10885Y11996D01*
X10924Y11902D01*
X10996Y11830D01*
X11090Y11791D01*
X11144Y11791D01*
X11122Y11736D01*
X11122Y11650D01*
X11154Y11570D01*
X11215Y11509D01*
X11295Y11476D01*
X11304Y11476D01*
X11909Y10871D01*
X11909Y10558D01*
X11869Y10519D01*
X11830Y10425D01*
X11830Y10323D01*
X11869Y10229D01*
X11941Y10157D01*
X12035Y10118D01*
X12137Y10118D01*
X12231Y10156D01*
X12303Y10228D01*
X12342Y10322D01*
X12342Y10424D01*
X12303Y10518D01*
X12263Y10558D01*
X12263Y10885D01*
X12263Y10944D01*
X12263Y10944D01*
X12250Y11012D01*
X12211Y11070D01*
X12211Y11070D01*
X11555Y11726D01*
X11555Y11735D01*
X11522Y11815D01*
X11461Y11876D01*
X11381Y11909D01*
X11361Y11909D01*
X11397Y11996D01*
X11397Y12097D01*
X11358Y12192D01*
X11286Y12264D01*
X11192Y12303D01*
X11136Y12303D01*
X11031Y12408D01*
X10973Y12446D01*
X10905Y12460D01*
X9212Y12460D01*
X9144Y12446D01*
X9086Y12408D01*
X6986Y10307D01*
X6873Y10354D01*
X6873Y10354D01*
X7061Y10431D01*
X7205Y10575D01*
X7283Y10763D01*
X7283Y10967D01*
X7205Y11155D01*
X7061Y11299D01*
X6873Y11377D01*
X6670Y11378D01*
X6482Y11300D01*
X6480Y11298D01*
X6480Y16369D01*
X6232Y16617D01*
X6176Y16562D01*
X6176Y16673D01*
X5928Y16921D01*
X5869Y16888D01*
X5814Y16733D01*
X5823Y16568D01*
X5869Y16458D01*
X5928Y16424D01*
X6176Y16673D01*
X6176Y16562D01*
X5984Y16369D01*
X6017Y16310D01*
X6172Y16255D01*
X6336Y16264D01*
X6447Y16310D01*
X6480Y16369D01*
X6480Y11298D01*
X6338Y11156D01*
X6259Y10968D01*
X6259Y10826D01*
X6165Y10866D01*
X6069Y10866D01*
X6141Y11039D01*
X6141Y11243D01*
X6064Y11431D01*
X5920Y11575D01*
X5732Y11653D01*
X5528Y11653D01*
X5340Y11575D01*
X5220Y11456D01*
X5209Y11456D01*
X5172Y11492D01*
X5172Y12342D01*
X4921Y12594D01*
X4865Y12538D01*
X4669Y12342D01*
X4703Y12282D01*
X4860Y12227D01*
X5026Y12236D01*
X5139Y12282D01*
X5172Y12342D01*
X5172Y11492D01*
X3818Y12846D01*
X3818Y13905D01*
X3885Y13877D01*
X3987Y13877D01*
X4081Y13916D01*
X4082Y13917D01*
X4133Y13917D01*
X4133Y13503D01*
X4150Y13421D01*
X4197Y13350D01*
X4551Y12996D01*
X4620Y12950D01*
X4592Y12923D01*
X4614Y12901D01*
X4554Y12867D01*
X4499Y12710D01*
X4507Y12544D01*
X4554Y12431D01*
X4614Y12397D01*
X4865Y12649D01*
X4860Y12655D01*
X4915Y12710D01*
X4921Y12704D01*
X4926Y12710D01*
X4982Y12655D01*
X4976Y12649D01*
X5228Y12397D01*
X5287Y12431D01*
X5314Y12507D01*
X5353Y12413D01*
X5471Y12295D01*
X5624Y12231D01*
X5791Y12231D01*
X5944Y12294D01*
X6062Y12412D01*
X6126Y12566D01*
X6126Y12732D01*
X6062Y12886D01*
X5945Y13003D01*
X5791Y13067D01*
X5625Y13067D01*
X5604Y13059D01*
X5361Y13302D01*
X5291Y13349D01*
X5225Y13362D01*
X5275Y13412D01*
X5314Y13507D01*
X5353Y13413D01*
X5471Y13295D01*
X5624Y13231D01*
X5791Y13231D01*
X5944Y13294D01*
X6062Y13412D01*
X6126Y13566D01*
X6126Y13732D01*
X6062Y13886D01*
X5945Y14003D01*
X5791Y14067D01*
X5649Y14067D01*
X5649Y16613D01*
X5645Y16687D01*
X5645Y17759D01*
X5620Y17819D01*
X5620Y18625D01*
X5611Y18789D01*
X5565Y18900D01*
X5506Y18933D01*
X5258Y18685D01*
X5506Y18436D01*
X5565Y18469D01*
X5620Y18625D01*
X5620Y17819D01*
X5582Y17911D01*
X5466Y18027D01*
X5451Y18033D01*
X5451Y18381D01*
X5203Y18629D01*
X5147Y18574D01*
X5147Y18685D01*
X4899Y18933D01*
X4840Y18900D01*
X4785Y18745D01*
X4794Y18580D01*
X4840Y18469D01*
X4899Y18436D01*
X5147Y18685D01*
X5147Y18574D01*
X4954Y18381D01*
X4987Y18322D01*
X5143Y18267D01*
X5307Y18276D01*
X5418Y18322D01*
X5451Y18381D01*
X5451Y18033D01*
X5314Y18090D01*
X5150Y18090D01*
X4998Y18027D01*
X4882Y17911D01*
X4818Y17759D01*
X4818Y17595D01*
X4881Y17443D01*
X4997Y17326D01*
X5149Y17263D01*
X5314Y17263D01*
X5466Y17326D01*
X5582Y17442D01*
X5645Y17594D01*
X5645Y17759D01*
X5645Y16687D01*
X5640Y16777D01*
X5595Y16888D01*
X5535Y16921D01*
X5480Y16866D01*
X5480Y16976D01*
X5447Y17035D01*
X5292Y17090D01*
X5127Y17081D01*
X5017Y17035D01*
X4984Y16976D01*
X5232Y16728D01*
X5480Y16976D01*
X5480Y16866D01*
X5287Y16673D01*
X5535Y16424D01*
X5595Y16458D01*
X5649Y16613D01*
X5649Y14067D01*
X5625Y14067D01*
X5480Y14007D01*
X5480Y16369D01*
X5232Y16617D01*
X5176Y16562D01*
X5176Y16673D01*
X4928Y16921D01*
X4869Y16888D01*
X4814Y16733D01*
X4823Y16568D01*
X4869Y16458D01*
X4928Y16424D01*
X5176Y16673D01*
X5176Y16562D01*
X4984Y16369D01*
X5017Y16310D01*
X5172Y16255D01*
X5336Y16264D01*
X5447Y16310D01*
X5480Y16369D01*
X5480Y14007D01*
X5471Y14004D01*
X5354Y13886D01*
X5314Y13792D01*
X5275Y13886D01*
X5158Y14003D01*
X5004Y14067D01*
X4838Y14067D01*
X4684Y14004D01*
X4649Y13969D01*
X4649Y16613D01*
X4645Y16687D01*
X4645Y17759D01*
X4582Y17911D01*
X4466Y18027D01*
X4314Y18090D01*
X4150Y18090D01*
X3998Y18027D01*
X3882Y17911D01*
X3818Y17759D01*
X3818Y17595D01*
X3881Y17443D01*
X3997Y17326D01*
X4149Y17263D01*
X4314Y17263D01*
X4466Y17326D01*
X4582Y17442D01*
X4645Y17594D01*
X4645Y17759D01*
X4645Y16687D01*
X4640Y16777D01*
X4595Y16888D01*
X4535Y16921D01*
X4480Y16866D01*
X4480Y16976D01*
X4447Y17035D01*
X4292Y17090D01*
X4127Y17081D01*
X4017Y17035D01*
X3984Y16976D01*
X4232Y16728D01*
X4480Y16976D01*
X4480Y16866D01*
X4287Y16673D01*
X4535Y16424D01*
X4595Y16458D01*
X4649Y16613D01*
X4649Y13969D01*
X4567Y13886D01*
X4566Y13886D01*
X4566Y13988D01*
X4567Y13988D01*
X4606Y14082D01*
X4606Y14184D01*
X4567Y14278D01*
X4510Y14335D01*
X4510Y15395D01*
X4505Y15653D01*
X4480Y15713D01*
X4480Y16369D01*
X4232Y16617D01*
X4176Y16562D01*
X4176Y16673D01*
X3928Y16921D01*
X3869Y16888D01*
X3814Y16733D01*
X3823Y16568D01*
X3869Y16458D01*
X3928Y16424D01*
X4176Y16673D01*
X4176Y16562D01*
X3984Y16369D01*
X4017Y16310D01*
X4172Y16255D01*
X4336Y16264D01*
X4447Y16310D01*
X4480Y16369D01*
X4480Y15713D01*
X4416Y15868D01*
X4332Y15930D01*
X4277Y15875D01*
X4277Y15986D01*
X4215Y16069D01*
X3974Y16163D01*
X3716Y16158D01*
X3649Y16131D01*
X3649Y16613D01*
X3645Y16687D01*
X3645Y17759D01*
X3582Y17911D01*
X3466Y18027D01*
X3314Y18090D01*
X3150Y18090D01*
X2998Y18027D01*
X2882Y17911D01*
X2818Y17759D01*
X2818Y17595D01*
X2881Y17443D01*
X2997Y17326D01*
X3149Y17263D01*
X3314Y17263D01*
X3466Y17326D01*
X3582Y17442D01*
X3645Y17594D01*
X3645Y17759D01*
X3645Y16687D01*
X3640Y16777D01*
X3595Y16888D01*
X3535Y16921D01*
X3480Y16866D01*
X3480Y16976D01*
X3447Y17035D01*
X3292Y17090D01*
X3127Y17081D01*
X3017Y17035D01*
X2984Y16976D01*
X3232Y16728D01*
X3480Y16976D01*
X3480Y16866D01*
X3287Y16673D01*
X3535Y16424D01*
X3595Y16458D01*
X3649Y16613D01*
X3649Y16131D01*
X3501Y16069D01*
X3480Y16041D01*
X3480Y16369D01*
X3232Y16617D01*
X3176Y16562D01*
X3176Y16673D01*
X2928Y16921D01*
X2869Y16888D01*
X2814Y16733D01*
X2823Y16568D01*
X2869Y16458D01*
X2928Y16424D01*
X3176Y16673D01*
X3176Y16562D01*
X2984Y16369D01*
X3017Y16310D01*
X3172Y16255D01*
X3336Y16264D01*
X3447Y16310D01*
X3480Y16369D01*
X3480Y16041D01*
X3439Y15986D01*
X3858Y15566D01*
X4277Y15986D01*
X4277Y15875D01*
X3913Y15511D01*
X4332Y15092D01*
X4416Y15154D01*
X4510Y15395D01*
X4510Y14335D01*
X4495Y14350D01*
X4401Y14389D01*
X4299Y14389D01*
X4277Y14380D01*
X4277Y15037D01*
X3858Y15456D01*
X3802Y15400D01*
X3802Y15511D01*
X3383Y15930D01*
X3300Y15868D01*
X3205Y15627D01*
X3211Y15369D01*
X3300Y15154D01*
X3383Y15092D01*
X3802Y15511D01*
X3802Y15400D01*
X3439Y15037D01*
X3501Y14953D01*
X3741Y14859D01*
X4000Y14864D01*
X4215Y14953D01*
X4277Y15037D01*
X4277Y14380D01*
X4205Y14350D01*
X4205Y14350D01*
X4082Y14350D01*
X4082Y14350D01*
X3988Y14389D01*
X3886Y14389D01*
X3818Y14361D01*
X3818Y14370D01*
X3794Y14490D01*
X3726Y14592D01*
X3726Y14592D01*
X2649Y15669D01*
X2649Y16613D01*
X2640Y16777D01*
X2595Y16888D01*
X2535Y16921D01*
X2287Y16673D01*
X2535Y16424D01*
X2595Y16458D01*
X2649Y16613D01*
X2649Y15669D01*
X2480Y15838D01*
X1966Y16352D01*
X1984Y16369D01*
X2017Y16310D01*
X2172Y16255D01*
X2336Y16264D01*
X2447Y16310D01*
X2480Y16369D01*
X2232Y16617D01*
X2226Y16612D01*
X2171Y16667D01*
X2176Y16673D01*
X2171Y16678D01*
X2226Y16734D01*
X2232Y16728D01*
X2480Y16976D01*
X2447Y17035D01*
X2292Y17090D01*
X2127Y17081D01*
X2050Y17049D01*
X2264Y17263D01*
X2314Y17263D01*
X2466Y17326D01*
X2582Y17442D01*
X2645Y17594D01*
X2645Y17759D01*
X2616Y17829D01*
X2616Y18766D01*
X2553Y18918D01*
X2437Y19035D01*
X2285Y19098D01*
X2121Y19098D01*
X1969Y19035D01*
X1852Y18919D01*
X1789Y18767D01*
X1789Y18603D01*
X1852Y18451D01*
X1968Y18334D01*
X2120Y18271D01*
X2285Y18271D01*
X2437Y18334D01*
X2553Y18450D01*
X2616Y18602D01*
X2616Y18766D01*
X2616Y17829D01*
X2582Y17911D01*
X2466Y18027D01*
X2314Y18090D01*
X2150Y18090D01*
X1998Y18027D01*
X1882Y17911D01*
X1818Y17759D01*
X1818Y17709D01*
X1273Y17163D01*
X1222Y17087D01*
X1222Y19537D01*
X3838Y19537D01*
X3820Y19533D01*
X3762Y19495D01*
X3342Y19074D01*
X3285Y19098D01*
X3121Y19098D01*
X2969Y19035D01*
X2852Y18919D01*
X2789Y18767D01*
X2789Y18603D01*
X2852Y18451D01*
X2968Y18334D01*
X3120Y18271D01*
X3285Y18271D01*
X3437Y18334D01*
X3553Y18450D01*
X3616Y18602D01*
X3616Y18766D01*
X3592Y18824D01*
X3961Y19192D01*
X4460Y19192D01*
X4342Y19074D01*
X4285Y19098D01*
X4121Y19098D01*
X3969Y19035D01*
X3852Y18919D01*
X3789Y18767D01*
X3789Y18603D01*
X3852Y18451D01*
X3968Y18334D01*
X4120Y18271D01*
X4285Y18271D01*
X4437Y18334D01*
X4553Y18450D01*
X4616Y18602D01*
X4616Y18766D01*
X4592Y18824D01*
X4764Y18996D01*
X4959Y18996D01*
X4954Y18988D01*
X5203Y18740D01*
X5451Y18988D01*
X5447Y18996D01*
X5929Y18996D01*
X5852Y18919D01*
X5789Y18767D01*
X5789Y18603D01*
X5852Y18451D01*
X5968Y18334D01*
X6120Y18271D01*
X6285Y18271D01*
X6342Y18295D01*
X6555Y18082D01*
X6555Y17938D01*
X6466Y18027D01*
X6314Y18090D01*
X6150Y18090D01*
X5998Y18027D01*
X5882Y17911D01*
X5818Y17759D01*
X5818Y17595D01*
X5881Y17443D01*
X5997Y17326D01*
X6149Y17263D01*
X6314Y17263D01*
X6466Y17326D01*
X6555Y17415D01*
X6555Y16910D01*
X6535Y16921D01*
X6480Y16866D01*
X6480Y16976D01*
X6447Y17035D01*
X6292Y17090D01*
X6127Y17081D01*
X6017Y17035D01*
X5984Y16976D01*
X6232Y16728D01*
X6480Y16976D01*
X6480Y16866D01*
X6287Y16673D01*
X6535Y16424D01*
X6555Y16435D01*
X6555Y16417D01*
X6568Y16349D01*
X6607Y16292D01*
X7099Y15799D01*
X7099Y15799D01*
X7156Y15761D01*
X7224Y15748D01*
X7224Y15748D01*
X7646Y15748D01*
X7672Y15722D01*
X7752Y15689D01*
X7838Y15688D01*
X7917Y15721D01*
X7944Y15748D01*
X8697Y15748D01*
X13705Y10739D01*
X13589Y10623D01*
X13555Y10572D01*
X13543Y10511D01*
X13543Y8937D01*
X13555Y8876D01*
X13589Y8825D01*
X13898Y8517D01*
X13898Y7021D01*
X13910Y6961D01*
X13944Y6910D01*
X14063Y6791D01*
X14063Y6791D01*
G37*
G54D23*
X14063Y6791D02*
X14012Y6791D01*
X13932Y6758D01*
X13906Y6732D01*
X13052Y6732D01*
X13006Y6778D01*
X11240Y8544D01*
X11240Y8897D01*
X11226Y8965D01*
X11188Y9022D01*
X10794Y9416D01*
X10737Y9455D01*
X10669Y9468D01*
X10522Y9468D01*
X10516Y9474D01*
X10436Y9507D01*
X10350Y9507D01*
X10271Y9475D01*
X10210Y9414D01*
X10177Y9334D01*
X10177Y9292D01*
X10177Y10871D01*
X10558Y11252D01*
X10596Y11310D01*
X10596Y11310D01*
X10610Y11377D01*
X10610Y11929D01*
X10610Y11929D01*
X10596Y11996D01*
X10570Y12035D01*
X10570Y12050D01*
X10548Y12105D01*
X10832Y12105D01*
X10885Y12052D01*
X10885Y11996D01*
X10924Y11902D01*
X10996Y11830D01*
X11090Y11791D01*
X11144Y11791D01*
X11122Y11736D01*
X11122Y11650D01*
X11154Y11570D01*
X11215Y11509D01*
X11295Y11476D01*
X11304Y11476D01*
X11909Y10871D01*
X11909Y10558D01*
X11869Y10519D01*
X11830Y10425D01*
X11830Y10323D01*
X11869Y10229D01*
X11941Y10157D01*
X12035Y10118D01*
X12137Y10118D01*
X12231Y10156D01*
X12303Y10228D01*
X12342Y10322D01*
X12342Y10424D01*
X12303Y10518D01*
X12263Y10558D01*
X12263Y10885D01*
X12263Y10944D01*
X12263Y10944D01*
X12250Y11012D01*
X12211Y11070D01*
X12211Y11070D01*
X11555Y11726D01*
X11555Y11735D01*
X11522Y11815D01*
X11461Y11876D01*
X11381Y11909D01*
X11361Y11909D01*
X11397Y11996D01*
X11397Y12097D01*
X11358Y12192D01*
X11286Y12264D01*
X11192Y12303D01*
X11136Y12303D01*
X11031Y12408D01*
X10973Y12446D01*
X10905Y12460D01*
X9212Y12460D01*
X9144Y12446D01*
X9086Y12408D01*
X6986Y10307D01*
X6873Y10354D01*
X6873Y10354D01*
X7061Y10431D01*
X7205Y10575D01*
X7283Y10763D01*
X7283Y10967D01*
X7205Y11155D01*
X7061Y11299D01*
X6873Y11377D01*
X6670Y11378D01*
X6482Y11300D01*
X6480Y11298D01*
X6480Y16369D01*
X6232Y16617D01*
X6176Y16562D01*
X6176Y16673D01*
X5928Y16921D01*
X5869Y16888D01*
X5814Y16733D01*
X5823Y16568D01*
X5869Y16458D01*
X5928Y16424D01*
X6176Y16673D01*
X6176Y16562D01*
X5984Y16369D01*
X6017Y16310D01*
X6172Y16255D01*
X6336Y16264D01*
X6447Y16310D01*
X6480Y16369D01*
X6480Y11298D01*
X6338Y11156D01*
X6259Y10968D01*
X6259Y10826D01*
X6165Y10866D01*
X6069Y10866D01*
X6141Y11039D01*
X6141Y11243D01*
X6064Y11431D01*
X5920Y11575D01*
X5732Y11653D01*
X5528Y11653D01*
X5340Y11575D01*
X5220Y11456D01*
X5209Y11456D01*
X5172Y11492D01*
X5172Y12342D01*
X4921Y12594D01*
X4865Y12538D01*
X4669Y12342D01*
X4703Y12282D01*
X4860Y12227D01*
X5026Y12236D01*
X5139Y12282D01*
X5172Y12342D01*
X5172Y11492D01*
X3818Y12846D01*
X3818Y13905D01*
X3885Y13877D01*
X3987Y13877D01*
X4081Y13916D01*
X4082Y13917D01*
X4133Y13917D01*
X4133Y13503D01*
X4150Y13421D01*
X4197Y13350D01*
X4551Y12996D01*
X4620Y12950D01*
X4592Y12923D01*
X4614Y12901D01*
X4554Y12867D01*
X4499Y12710D01*
X4507Y12544D01*
X4554Y12431D01*
X4614Y12397D01*
X4865Y12649D01*
X4860Y12655D01*
X4915Y12710D01*
X4921Y12704D01*
X4926Y12710D01*
X4982Y12655D01*
X4976Y12649D01*
X5228Y12397D01*
X5287Y12431D01*
X5314Y12507D01*
X5353Y12413D01*
X5471Y12295D01*
X5624Y12231D01*
X5791Y12231D01*
X5944Y12294D01*
X6062Y12412D01*
X6126Y12566D01*
X6126Y12732D01*
X6062Y12886D01*
X5945Y13003D01*
X5791Y13067D01*
X5625Y13067D01*
X5604Y13059D01*
X5361Y13302D01*
X5291Y13349D01*
X5225Y13362D01*
X5275Y13412D01*
X5314Y13507D01*
X5353Y13413D01*
X5471Y13295D01*
X5624Y13231D01*
X5791Y13231D01*
X5944Y13294D01*
X6062Y13412D01*
X6126Y13566D01*
X6126Y13732D01*
X6062Y13886D01*
X5945Y14003D01*
X5791Y14067D01*
X5649Y14067D01*
X5649Y16613D01*
X5645Y16687D01*
X5645Y17759D01*
X5620Y17819D01*
X5620Y18625D01*
X5611Y18789D01*
X5565Y18900D01*
X5506Y18933D01*
X5258Y18685D01*
X5506Y18436D01*
X5565Y18469D01*
X5620Y18625D01*
X5620Y17819D01*
X5582Y17911D01*
X5466Y18027D01*
X5451Y18033D01*
X5451Y18381D01*
X5203Y18629D01*
X5147Y18574D01*
X5147Y18685D01*
X4899Y18933D01*
X4840Y18900D01*
X4785Y18745D01*
X4794Y18580D01*
X4840Y18469D01*
X4899Y18436D01*
X5147Y18685D01*
X5147Y18574D01*
X4954Y18381D01*
X4987Y18322D01*
X5143Y18267D01*
X5307Y18276D01*
X5418Y18322D01*
X5451Y18381D01*
X5451Y18033D01*
X5314Y18090D01*
X5150Y18090D01*
X4998Y18027D01*
X4882Y17911D01*
X4818Y17759D01*
X4818Y17595D01*
X4881Y17443D01*
X4997Y17326D01*
X5149Y17263D01*
X5314Y17263D01*
X5466Y17326D01*
X5582Y17442D01*
X5645Y17594D01*
X5645Y17759D01*
X5645Y16687D01*
X5640Y16777D01*
X5595Y16888D01*
X5535Y16921D01*
X5480Y16866D01*
X5480Y16976D01*
X5447Y17035D01*
X5292Y17090D01*
X5127Y17081D01*
X5017Y17035D01*
X4984Y16976D01*
X5232Y16728D01*
X5480Y16976D01*
X5480Y16866D01*
X5287Y16673D01*
X5535Y16424D01*
X5595Y16458D01*
X5649Y16613D01*
X5649Y14067D01*
X5625Y14067D01*
X5480Y14007D01*
X5480Y16369D01*
X5232Y16617D01*
X5176Y16562D01*
X5176Y16673D01*
X4928Y16921D01*
X4869Y16888D01*
X4814Y16733D01*
X4823Y16568D01*
X4869Y16458D01*
X4928Y16424D01*
X5176Y16673D01*
X5176Y16562D01*
X4984Y16369D01*
X5017Y16310D01*
X5172Y16255D01*
X5336Y16264D01*
X5447Y16310D01*
X5480Y16369D01*
X5480Y14007D01*
X5471Y14004D01*
X5354Y13886D01*
X5314Y13792D01*
X5275Y13886D01*
X5158Y14003D01*
X5004Y14067D01*
X4838Y14067D01*
X4684Y14004D01*
X4649Y13969D01*
X4649Y16613D01*
X4645Y16687D01*
X4645Y17759D01*
X4582Y17911D01*
X4466Y18027D01*
X4314Y18090D01*
X4150Y18090D01*
X3998Y18027D01*
X3882Y17911D01*
X3818Y17759D01*
X3818Y17595D01*
X3881Y17443D01*
X3997Y17326D01*
X4149Y17263D01*
X4314Y17263D01*
X4466Y17326D01*
X4582Y17442D01*
X4645Y17594D01*
X4645Y17759D01*
X4645Y16687D01*
X4640Y16777D01*
X4595Y16888D01*
X4535Y16921D01*
X4480Y16866D01*
X4480Y16976D01*
X4447Y17035D01*
X4292Y17090D01*
X4127Y17081D01*
X4017Y17035D01*
X3984Y16976D01*
X4232Y16728D01*
X4480Y16976D01*
X4480Y16866D01*
X4287Y16673D01*
X4535Y16424D01*
X4595Y16458D01*
X4649Y16613D01*
X4649Y13969D01*
X4567Y13886D01*
X4566Y13886D01*
X4566Y13988D01*
X4567Y13988D01*
X4606Y14082D01*
X4606Y14184D01*
X4567Y14278D01*
X4510Y14335D01*
X4510Y15395D01*
X4505Y15653D01*
X4480Y15713D01*
X4480Y16369D01*
X4232Y16617D01*
X4176Y16562D01*
X4176Y16673D01*
X3928Y16921D01*
X3869Y16888D01*
X3814Y16733D01*
X3823Y16568D01*
X3869Y16458D01*
X3928Y16424D01*
X4176Y16673D01*
X4176Y16562D01*
X3984Y16369D01*
X4017Y16310D01*
X4172Y16255D01*
X4336Y16264D01*
X4447Y16310D01*
X4480Y16369D01*
X4480Y15713D01*
X4416Y15868D01*
X4332Y15930D01*
X4277Y15875D01*
X4277Y15986D01*
X4215Y16069D01*
X3974Y16163D01*
X3716Y16158D01*
X3649Y16131D01*
X3649Y16613D01*
X3645Y16687D01*
X3645Y17759D01*
X3582Y17911D01*
X3466Y18027D01*
X3314Y18090D01*
X3150Y18090D01*
X2998Y18027D01*
X2882Y17911D01*
X2818Y17759D01*
X2818Y17595D01*
X2881Y17443D01*
X2997Y17326D01*
X3149Y17263D01*
X3314Y17263D01*
X3466Y17326D01*
X3582Y17442D01*
X3645Y17594D01*
X3645Y17759D01*
X3645Y16687D01*
X3640Y16777D01*
X3595Y16888D01*
X3535Y16921D01*
X3480Y16866D01*
X3480Y16976D01*
X3447Y17035D01*
X3292Y17090D01*
X3127Y17081D01*
X3017Y17035D01*
X2984Y16976D01*
X3232Y16728D01*
X3480Y16976D01*
X3480Y16866D01*
X3287Y16673D01*
X3535Y16424D01*
X3595Y16458D01*
X3649Y16613D01*
X3649Y16131D01*
X3501Y16069D01*
X3480Y16041D01*
X3480Y16369D01*
X3232Y16617D01*
X3176Y16562D01*
X3176Y16673D01*
X2928Y16921D01*
X2869Y16888D01*
X2814Y16733D01*
X2823Y16568D01*
X2869Y16458D01*
X2928Y16424D01*
X3176Y16673D01*
X3176Y16562D01*
X2984Y16369D01*
X3017Y16310D01*
X3172Y16255D01*
X3336Y16264D01*
X3447Y16310D01*
X3480Y16369D01*
X3480Y16041D01*
X3439Y15986D01*
X3858Y15566D01*
X4277Y15986D01*
X4277Y15875D01*
X3913Y15511D01*
X4332Y15092D01*
X4416Y15154D01*
X4510Y15395D01*
X4510Y14335D01*
X4495Y14350D01*
X4401Y14389D01*
X4299Y14389D01*
X4277Y14380D01*
X4277Y15037D01*
X3858Y15456D01*
X3802Y15400D01*
X3802Y15511D01*
X3383Y15930D01*
X3300Y15868D01*
X3205Y15627D01*
X3211Y15369D01*
X3300Y15154D01*
X3383Y15092D01*
X3802Y15511D01*
X3802Y15400D01*
X3439Y15037D01*
X3501Y14953D01*
X3741Y14859D01*
X4000Y14864D01*
X4215Y14953D01*
X4277Y15037D01*
X4277Y14380D01*
X4205Y14350D01*
X4205Y14350D01*
X4082Y14350D01*
X4082Y14350D01*
X3988Y14389D01*
X3886Y14389D01*
X3818Y14361D01*
X3818Y14370D01*
X3794Y14490D01*
X3726Y14592D01*
X3726Y14592D01*
X2649Y15669D01*
X2649Y16613D01*
X2640Y16777D01*
X2595Y16888D01*
X2535Y16921D01*
X2287Y16673D01*
X2535Y16424D01*
X2595Y16458D01*
X2649Y16613D01*
X2649Y15669D01*
X2480Y15838D01*
X1966Y16352D01*
X1984Y16369D01*
X2017Y16310D01*
X2172Y16255D01*
X2336Y16264D01*
X2447Y16310D01*
X2480Y16369D01*
X2232Y16617D01*
X2226Y16612D01*
X2171Y16667D01*
X2176Y16673D01*
X2171Y16678D01*
X2226Y16734D01*
X2232Y16728D01*
X2480Y16976D01*
X2447Y17035D01*
X2292Y17090D01*
X2127Y17081D01*
X2050Y17049D01*
X2264Y17263D01*
X2314Y17263D01*
X2466Y17326D01*
X2582Y17442D01*
X2645Y17594D01*
X2645Y17759D01*
X2616Y17829D01*
X2616Y18766D01*
X2553Y18918D01*
X2437Y19035D01*
X2285Y19098D01*
X2121Y19098D01*
X1969Y19035D01*
X1852Y18919D01*
X1789Y18767D01*
X1789Y18603D01*
X1852Y18451D01*
X1968Y18334D01*
X2120Y18271D01*
X2285Y18271D01*
X2437Y18334D01*
X2553Y18450D01*
X2616Y18602D01*
X2616Y18766D01*
X2616Y17829D01*
X2582Y17911D01*
X2466Y18027D01*
X2314Y18090D01*
X2150Y18090D01*
X1998Y18027D01*
X1882Y17911D01*
X1818Y17759D01*
X1818Y17709D01*
X1273Y17163D01*
X1222Y17087D01*
X1222Y19537D01*
X3838Y19537D01*
X3820Y19533D01*
X3762Y19495D01*
X3342Y19074D01*
X3285Y19098D01*
X3121Y19098D01*
X2969Y19035D01*
X2852Y18919D01*
X2789Y18767D01*
X2789Y18603D01*
X2852Y18451D01*
X2968Y18334D01*
X3120Y18271D01*
X3285Y18271D01*
X3437Y18334D01*
X3553Y18450D01*
X3616Y18602D01*
X3616Y18766D01*
X3592Y18824D01*
X3961Y19192D01*
X4460Y19192D01*
X4342Y19074D01*
X4285Y19098D01*
X4121Y19098D01*
X3969Y19035D01*
X3852Y18919D01*
X3789Y18767D01*
X3789Y18603D01*
X3852Y18451D01*
X3968Y18334D01*
X4120Y18271D01*
X4285Y18271D01*
X4437Y18334D01*
X4553Y18450D01*
X4616Y18602D01*
X4616Y18766D01*
X4592Y18824D01*
X4764Y18996D01*
X4959Y18996D01*
X4954Y18988D01*
X5203Y18740D01*
X5451Y18988D01*
X5447Y18996D01*
X5929Y18996D01*
X5852Y18919D01*
X5789Y18767D01*
X5789Y18603D01*
X5852Y18451D01*
X5968Y18334D01*
X6120Y18271D01*
X6285Y18271D01*
X6342Y18295D01*
X6555Y18082D01*
X6555Y17938D01*
X6466Y18027D01*
X6314Y18090D01*
X6150Y18090D01*
X5998Y18027D01*
X5882Y17911D01*
X5818Y17759D01*
X5818Y17595D01*
X5881Y17443D01*
X5997Y17326D01*
X6149Y17263D01*
X6314Y17263D01*
X6466Y17326D01*
X6555Y17415D01*
X6555Y16910D01*
X6535Y16921D01*
X6480Y16866D01*
X6480Y16976D01*
X6447Y17035D01*
X6292Y17090D01*
X6127Y17081D01*
X6017Y17035D01*
X5984Y16976D01*
X6232Y16728D01*
X6480Y16976D01*
X6480Y16866D01*
X6287Y16673D01*
X6535Y16424D01*
X6555Y16435D01*
X6555Y16417D01*
X6568Y16349D01*
X6607Y16292D01*
X7099Y15799D01*
X7099Y15799D01*
X7156Y15761D01*
X7224Y15748D01*
X7224Y15748D01*
X7646Y15748D01*
X7672Y15722D01*
X7752Y15689D01*
X7838Y15688D01*
X7917Y15721D01*
X7944Y15748D01*
X8697Y15748D01*
X13705Y10739D01*
X13589Y10623D01*
X13555Y10572D01*
X13543Y10511D01*
X13543Y8937D01*
X13555Y8876D01*
X13589Y8825D01*
X13898Y8517D01*
X13898Y7021D01*
X13910Y6961D01*
X13944Y6910D01*
X14063Y6791D01*
G54D10*
G36*
X15635Y15807D02*
X15152Y15807D01*
X14683Y16275D01*
X14739Y16255D01*
X14903Y16264D01*
X15014Y16310D01*
X15047Y16369D01*
X14799Y16617D01*
X14793Y16612D01*
X14738Y16667D01*
X14743Y16673D01*
X14495Y16921D01*
X14468Y16906D01*
X14468Y17423D01*
X14564Y17326D01*
X14716Y17263D01*
X14881Y17263D01*
X15033Y17326D01*
X15137Y17431D01*
X15137Y16901D01*
X15102Y16921D01*
X15047Y16866D01*
X15047Y16976D01*
X15014Y17035D01*
X14859Y17090D01*
X14694Y17081D01*
X14584Y17035D01*
X14550Y16976D01*
X14799Y16728D01*
X15047Y16976D01*
X15047Y16866D01*
X14854Y16673D01*
X15102Y16424D01*
X15137Y16444D01*
X15137Y16377D01*
X15151Y16310D01*
X15189Y16252D01*
X15635Y15807D01*
X15635Y15807D01*
G37*
G54D23*
X15635Y15807D02*
X15152Y15807D01*
X14683Y16275D01*
X14739Y16255D01*
X14903Y16264D01*
X15014Y16310D01*
X15047Y16369D01*
X14799Y16617D01*
X14793Y16612D01*
X14738Y16667D01*
X14743Y16673D01*
X14495Y16921D01*
X14468Y16906D01*
X14468Y17423D01*
X14564Y17326D01*
X14716Y17263D01*
X14881Y17263D01*
X15033Y17326D01*
X15137Y17431D01*
X15137Y16901D01*
X15102Y16921D01*
X15047Y16866D01*
X15047Y16976D01*
X15014Y17035D01*
X14859Y17090D01*
X14694Y17081D01*
X14584Y17035D01*
X14550Y16976D01*
X14799Y16728D01*
X15047Y16976D01*
X15047Y16866D01*
X14854Y16673D01*
X15102Y16424D01*
X15137Y16444D01*
X15137Y16377D01*
X15151Y16310D01*
X15189Y16252D01*
X15635Y15807D01*
G54D10*
G36*
X15905Y3844D02*
X15164Y3103D01*
X15151Y3085D01*
X15126Y3095D01*
X14871Y3095D01*
X14842Y3065D01*
X14842Y2716D01*
X14850Y2716D01*
X14850Y2638D01*
X14842Y2638D01*
X14842Y2288D01*
X14871Y2258D01*
X15118Y2258D01*
X15118Y2086D01*
X15107Y2091D01*
X15060Y2091D01*
X14764Y2091D01*
X14764Y2288D01*
X14764Y2638D01*
X14764Y2716D01*
X14764Y3065D01*
X14734Y3095D01*
X14479Y3095D01*
X14436Y3077D01*
X14402Y3044D01*
X14384Y3000D01*
X14384Y2953D01*
X14384Y2745D01*
X14414Y2716D01*
X14764Y2716D01*
X14764Y2638D01*
X14414Y2638D01*
X14384Y2608D01*
X14384Y2400D01*
X14384Y2353D01*
X14402Y2310D01*
X14436Y2276D01*
X14479Y2258D01*
X14734Y2258D01*
X14764Y2288D01*
X14764Y2091D01*
X14460Y2091D01*
X14416Y2073D01*
X14383Y2040D01*
X14365Y1996D01*
X14365Y1949D01*
X14365Y1929D01*
X12799Y1929D01*
X12850Y2005D01*
X12874Y2125D01*
X12850Y2246D01*
X12781Y2348D01*
X12679Y2416D01*
X12559Y2440D01*
X12438Y2416D01*
X12414Y2401D01*
X11192Y2401D01*
X8245Y5347D01*
X8243Y5356D01*
X8175Y5458D01*
X8073Y5527D01*
X7952Y5551D01*
X7832Y5527D01*
X7730Y5458D01*
X7661Y5356D01*
X7646Y5279D01*
X6101Y6824D01*
X6101Y8451D01*
X6994Y9344D01*
X6994Y9344D01*
X7028Y9394D01*
X7028Y9394D01*
X7061Y9408D01*
X7205Y9552D01*
X7283Y9740D01*
X7283Y9943D01*
X7236Y10057D01*
X9285Y12105D01*
X9493Y12105D01*
X9402Y12015D01*
X9363Y11957D01*
X9350Y11889D01*
X9350Y11732D01*
X9363Y11664D01*
X9402Y11607D01*
X9429Y11580D01*
X9429Y9643D01*
X8851Y9065D01*
X8812Y9007D01*
X8799Y8939D01*
X8799Y7637D01*
X8812Y7569D01*
X8851Y7512D01*
X9362Y7000D01*
X9379Y6989D01*
X9263Y6874D01*
X9200Y6721D01*
X9199Y6554D01*
X9263Y6401D01*
X9380Y6283D01*
X9534Y6219D01*
X9700Y6219D01*
X9854Y6283D01*
X9972Y6400D01*
X10036Y6554D01*
X10036Y6720D01*
X9972Y6874D01*
X9898Y6948D01*
X10056Y6948D01*
X10199Y6805D01*
X10199Y6314D01*
X10217Y6270D01*
X10251Y6237D01*
X10294Y6219D01*
X10341Y6219D01*
X10941Y6219D01*
X10984Y6237D01*
X11018Y6270D01*
X11036Y6314D01*
X11036Y6361D01*
X11036Y6961D01*
X11018Y7004D01*
X10985Y7037D01*
X10941Y7055D01*
X10894Y7055D01*
X10450Y7055D01*
X10255Y7251D01*
X10197Y7289D01*
X10129Y7303D01*
X9874Y7303D01*
X9972Y7400D01*
X10036Y7554D01*
X10036Y7720D01*
X9972Y7874D01*
X9869Y7977D01*
X9855Y7992D01*
X9701Y8055D01*
X9535Y8055D01*
X9475Y8031D01*
X9350Y8156D01*
X9350Y8314D01*
X9366Y8330D01*
X9400Y8271D01*
X9556Y8215D01*
X9723Y8224D01*
X9836Y8271D01*
X9869Y8330D01*
X9618Y8582D01*
X9612Y8576D01*
X9557Y8632D01*
X9562Y8637D01*
X9557Y8643D01*
X9612Y8698D01*
X9618Y8693D01*
X9623Y8698D01*
X9679Y8643D01*
X9673Y8637D01*
X9925Y8386D01*
X9940Y8395D01*
X9940Y8137D01*
X9954Y8069D01*
X9992Y8012D01*
X10224Y7780D01*
X10200Y7721D01*
X10199Y7554D01*
X10263Y7401D01*
X10380Y7283D01*
X10534Y7219D01*
X10700Y7219D01*
X10854Y7283D01*
X10972Y7400D01*
X11036Y7554D01*
X11036Y7720D01*
X10972Y7874D01*
X10855Y7992D01*
X10701Y8055D01*
X10535Y8055D01*
X10475Y8031D01*
X10295Y8211D01*
X10295Y8369D01*
X10380Y8283D01*
X10534Y8219D01*
X10700Y8219D01*
X10760Y8244D01*
X11751Y7253D01*
X11751Y6822D01*
X11745Y6815D01*
X11712Y6736D01*
X11712Y6650D01*
X11745Y6570D01*
X11751Y6563D01*
X11751Y6036D01*
X11688Y6010D01*
X11627Y5949D01*
X11594Y5870D01*
X11594Y5783D01*
X11627Y5704D01*
X11688Y5643D01*
X11767Y5610D01*
X11853Y5610D01*
X11933Y5643D01*
X11994Y5703D01*
X12027Y5783D01*
X12027Y5792D01*
X12054Y5819D01*
X12092Y5877D01*
X12092Y5877D01*
X12106Y5944D01*
X12106Y6563D01*
X12112Y6570D01*
X12145Y6649D01*
X12145Y6735D01*
X12112Y6815D01*
X12106Y6821D01*
X12106Y7177D01*
X12755Y6528D01*
X12834Y6449D01*
X12891Y6411D01*
X12959Y6397D01*
X13027Y6411D01*
X13036Y6417D01*
X13906Y6417D01*
X13932Y6391D01*
X14011Y6358D01*
X14048Y6358D01*
X12592Y4901D01*
X12555Y4901D01*
X12475Y4868D01*
X12414Y4807D01*
X12381Y4728D01*
X12381Y4642D01*
X12414Y4562D01*
X12475Y4501D01*
X12555Y4468D01*
X12641Y4468D01*
X12720Y4501D01*
X12781Y4562D01*
X12814Y4641D01*
X12814Y4678D01*
X14429Y6293D01*
X14463Y6344D01*
X14463Y6344D01*
X14475Y6404D01*
X14475Y6600D01*
X15905Y5170D01*
X15905Y3844D01*
X15905Y3844D01*
G37*
G54D23*
X15905Y3844D02*
X15164Y3103D01*
X15151Y3085D01*
X15126Y3095D01*
X14871Y3095D01*
X14842Y3065D01*
X14842Y2716D01*
X14850Y2716D01*
X14850Y2638D01*
X14842Y2638D01*
X14842Y2288D01*
X14871Y2258D01*
X15118Y2258D01*
X15118Y2086D01*
X15107Y2091D01*
X15060Y2091D01*
X14764Y2091D01*
X14764Y2288D01*
X14764Y2638D01*
X14764Y2716D01*
X14764Y3065D01*
X14734Y3095D01*
X14479Y3095D01*
X14436Y3077D01*
X14402Y3044D01*
X14384Y3000D01*
X14384Y2953D01*
X14384Y2745D01*
X14414Y2716D01*
X14764Y2716D01*
X14764Y2638D01*
X14414Y2638D01*
X14384Y2608D01*
X14384Y2400D01*
X14384Y2353D01*
X14402Y2310D01*
X14436Y2276D01*
X14479Y2258D01*
X14734Y2258D01*
X14764Y2288D01*
X14764Y2091D01*
X14460Y2091D01*
X14416Y2073D01*
X14383Y2040D01*
X14365Y1996D01*
X14365Y1949D01*
X14365Y1929D01*
X12799Y1929D01*
X12850Y2005D01*
X12874Y2125D01*
X12850Y2246D01*
X12781Y2348D01*
X12679Y2416D01*
X12559Y2440D01*
X12438Y2416D01*
X12414Y2401D01*
X11192Y2401D01*
X8245Y5347D01*
X8243Y5356D01*
X8175Y5458D01*
X8073Y5527D01*
X7952Y5551D01*
X7832Y5527D01*
X7730Y5458D01*
X7661Y5356D01*
X7646Y5279D01*
X6101Y6824D01*
X6101Y8451D01*
X6994Y9344D01*
X6994Y9344D01*
X7028Y9394D01*
X7028Y9394D01*
X7061Y9408D01*
X7205Y9552D01*
X7283Y9740D01*
X7283Y9943D01*
X7236Y10057D01*
X9285Y12105D01*
X9493Y12105D01*
X9402Y12015D01*
X9363Y11957D01*
X9350Y11889D01*
X9350Y11732D01*
X9363Y11664D01*
X9402Y11607D01*
X9429Y11580D01*
X9429Y9643D01*
X8851Y9065D01*
X8812Y9007D01*
X8799Y8939D01*
X8799Y7637D01*
X8812Y7569D01*
X8851Y7512D01*
X9362Y7000D01*
X9379Y6989D01*
X9263Y6874D01*
X9200Y6721D01*
X9199Y6554D01*
X9263Y6401D01*
X9380Y6283D01*
X9534Y6219D01*
X9700Y6219D01*
X9854Y6283D01*
X9972Y6400D01*
X10036Y6554D01*
X10036Y6720D01*
X9972Y6874D01*
X9898Y6948D01*
X10056Y6948D01*
X10199Y6805D01*
X10199Y6314D01*
X10217Y6270D01*
X10251Y6237D01*
X10294Y6219D01*
X10341Y6219D01*
X10941Y6219D01*
X10984Y6237D01*
X11018Y6270D01*
X11036Y6314D01*
X11036Y6361D01*
X11036Y6961D01*
X11018Y7004D01*
X10985Y7037D01*
X10941Y7055D01*
X10894Y7055D01*
X10450Y7055D01*
X10255Y7251D01*
X10197Y7289D01*
X10129Y7303D01*
X9874Y7303D01*
X9972Y7400D01*
X10036Y7554D01*
X10036Y7720D01*
X9972Y7874D01*
X9869Y7977D01*
X9855Y7992D01*
X9701Y8055D01*
X9535Y8055D01*
X9475Y8031D01*
X9350Y8156D01*
X9350Y8314D01*
X9366Y8330D01*
X9400Y8271D01*
X9556Y8215D01*
X9723Y8224D01*
X9836Y8271D01*
X9869Y8330D01*
X9618Y8582D01*
X9612Y8576D01*
X9557Y8632D01*
X9562Y8637D01*
X9557Y8643D01*
X9612Y8698D01*
X9618Y8693D01*
X9623Y8698D01*
X9679Y8643D01*
X9673Y8637D01*
X9925Y8386D01*
X9940Y8395D01*
X9940Y8137D01*
X9954Y8069D01*
X9992Y8012D01*
X10224Y7780D01*
X10200Y7721D01*
X10199Y7554D01*
X10263Y7401D01*
X10380Y7283D01*
X10534Y7219D01*
X10700Y7219D01*
X10854Y7283D01*
X10972Y7400D01*
X11036Y7554D01*
X11036Y7720D01*
X10972Y7874D01*
X10855Y7992D01*
X10701Y8055D01*
X10535Y8055D01*
X10475Y8031D01*
X10295Y8211D01*
X10295Y8369D01*
X10380Y8283D01*
X10534Y8219D01*
X10700Y8219D01*
X10760Y8244D01*
X11751Y7253D01*
X11751Y6822D01*
X11745Y6815D01*
X11712Y6736D01*
X11712Y6650D01*
X11745Y6570D01*
X11751Y6563D01*
X11751Y6036D01*
X11688Y6010D01*
X11627Y5949D01*
X11594Y5870D01*
X11594Y5783D01*
X11627Y5704D01*
X11688Y5643D01*
X11767Y5610D01*
X11853Y5610D01*
X11933Y5643D01*
X11994Y5703D01*
X12027Y5783D01*
X12027Y5792D01*
X12054Y5819D01*
X12092Y5877D01*
X12092Y5877D01*
X12106Y5944D01*
X12106Y6563D01*
X12112Y6570D01*
X12145Y6649D01*
X12145Y6735D01*
X12112Y6815D01*
X12106Y6821D01*
X12106Y7177D01*
X12755Y6528D01*
X12834Y6449D01*
X12891Y6411D01*
X12959Y6397D01*
X13027Y6411D01*
X13036Y6417D01*
X13906Y6417D01*
X13932Y6391D01*
X14011Y6358D01*
X14048Y6358D01*
X12592Y4901D01*
X12555Y4901D01*
X12475Y4868D01*
X12414Y4807D01*
X12381Y4728D01*
X12381Y4642D01*
X12414Y4562D01*
X12475Y4501D01*
X12555Y4468D01*
X12641Y4468D01*
X12720Y4501D01*
X12781Y4562D01*
X12814Y4641D01*
X12814Y4678D01*
X14429Y6293D01*
X14463Y6344D01*
X14463Y6344D01*
X14475Y6404D01*
X14475Y6600D01*
X15905Y5170D01*
X15905Y3844D01*
G54D10*
G36*
X16102Y1945D02*
X16054Y1993D01*
X16020Y2027D01*
X15866Y2091D01*
X15700Y2091D01*
X15546Y2027D01*
X15433Y1914D01*
X15433Y2467D01*
X15436Y2459D01*
X15496Y2425D01*
X15747Y2677D01*
X15496Y2928D01*
X15436Y2895D01*
X15433Y2885D01*
X15433Y2926D01*
X16102Y3596D01*
X16102Y2980D01*
X16076Y3005D01*
X16054Y2984D01*
X16021Y3043D01*
X15864Y3099D01*
X15698Y3090D01*
X15585Y3043D01*
X15551Y2984D01*
X15803Y2732D01*
X15808Y2738D01*
X15864Y2682D01*
X15858Y2677D01*
X15864Y2671D01*
X15808Y2616D01*
X15803Y2621D01*
X15551Y2370D01*
X15585Y2310D01*
X15742Y2254D01*
X15908Y2263D01*
X16021Y2310D01*
X16054Y2370D01*
X16054Y2370D01*
X16076Y2348D01*
X16102Y2374D01*
X16102Y1945D01*
X16102Y1945D01*
G37*
G54D23*
X16102Y1945D02*
X16054Y1993D01*
X16020Y2027D01*
X15866Y2091D01*
X15700Y2091D01*
X15546Y2027D01*
X15433Y1914D01*
X15433Y2467D01*
X15436Y2459D01*
X15496Y2425D01*
X15747Y2677D01*
X15496Y2928D01*
X15436Y2895D01*
X15433Y2885D01*
X15433Y2926D01*
X16102Y3596D01*
X16102Y2980D01*
X16076Y3005D01*
X16054Y2984D01*
X16021Y3043D01*
X15864Y3099D01*
X15698Y3090D01*
X15585Y3043D01*
X15551Y2984D01*
X15803Y2732D01*
X15808Y2738D01*
X15864Y2682D01*
X15858Y2677D01*
X15864Y2671D01*
X15808Y2616D01*
X15803Y2621D01*
X15551Y2370D01*
X15585Y2310D01*
X15742Y2254D01*
X15908Y2263D01*
X16021Y2310D01*
X16054Y2370D01*
X16054Y2370D01*
X16076Y2348D01*
X16102Y2374D01*
X16102Y1945D01*
G54D10*
G36*
X16422Y16003D02*
X15939Y16003D01*
X15659Y16283D01*
X15739Y16255D01*
X15903Y16264D01*
X16014Y16310D01*
X16047Y16369D01*
X15799Y16617D01*
X15793Y16612D01*
X15738Y16667D01*
X15743Y16673D01*
X15495Y16921D01*
X15492Y16919D01*
X15492Y17399D01*
X15564Y17326D01*
X15716Y17263D01*
X15881Y17263D01*
X16033Y17326D01*
X16122Y17415D01*
X16122Y16910D01*
X16102Y16921D01*
X16047Y16866D01*
X16047Y16976D01*
X16014Y17035D01*
X15859Y17090D01*
X15694Y17081D01*
X15584Y17035D01*
X15550Y16976D01*
X15799Y16728D01*
X16047Y16976D01*
X16047Y16866D01*
X15854Y16673D01*
X16102Y16424D01*
X16122Y16435D01*
X16122Y16377D01*
X16135Y16310D01*
X16173Y16252D01*
X16422Y16003D01*
X16422Y16003D01*
G37*
G54D23*
X16422Y16003D02*
X15939Y16003D01*
X15659Y16283D01*
X15739Y16255D01*
X15903Y16264D01*
X16014Y16310D01*
X16047Y16369D01*
X15799Y16617D01*
X15793Y16612D01*
X15738Y16667D01*
X15743Y16673D01*
X15495Y16921D01*
X15492Y16919D01*
X15492Y17399D01*
X15564Y17326D01*
X15716Y17263D01*
X15881Y17263D01*
X16033Y17326D01*
X16122Y17415D01*
X16122Y16910D01*
X16102Y16921D01*
X16047Y16866D01*
X16047Y16976D01*
X16014Y17035D01*
X15859Y17090D01*
X15694Y17081D01*
X15584Y17035D01*
X15550Y16976D01*
X15799Y16728D01*
X16047Y16976D01*
X16047Y16866D01*
X15854Y16673D01*
X16102Y16424D01*
X16122Y16435D01*
X16122Y16377D01*
X16135Y16310D01*
X16173Y16252D01*
X16422Y16003D01*
G54D10*
G36*
X17125Y1921D02*
X17054Y1993D01*
X17054Y2370D01*
X16803Y2621D01*
X16551Y2370D01*
X16585Y2310D01*
X16742Y2254D01*
X16908Y2263D01*
X17021Y2310D01*
X17054Y2370D01*
X17054Y1993D01*
X17020Y2027D01*
X16866Y2091D01*
X16700Y2091D01*
X16546Y2027D01*
X16429Y1910D01*
X16417Y1881D01*
X16417Y2505D01*
X16436Y2459D01*
X16496Y2425D01*
X16747Y2677D01*
X16496Y2928D01*
X16436Y2895D01*
X16417Y2840D01*
X16417Y5131D01*
X17125Y4422D01*
X17125Y2919D01*
X17110Y2928D01*
X17054Y2873D01*
X17054Y2984D01*
X17021Y3043D01*
X16864Y3099D01*
X16698Y3090D01*
X16585Y3043D01*
X16551Y2984D01*
X16803Y2732D01*
X17054Y2984D01*
X17054Y2873D01*
X16858Y2677D01*
X17110Y2425D01*
X17125Y2434D01*
X17125Y1921D01*
X17125Y1921D01*
G37*
G54D23*
X17125Y1921D02*
X17054Y1993D01*
X17054Y2370D01*
X16803Y2621D01*
X16551Y2370D01*
X16585Y2310D01*
X16742Y2254D01*
X16908Y2263D01*
X17021Y2310D01*
X17054Y2370D01*
X17054Y1993D01*
X17020Y2027D01*
X16866Y2091D01*
X16700Y2091D01*
X16546Y2027D01*
X16429Y1910D01*
X16417Y1881D01*
X16417Y2505D01*
X16436Y2459D01*
X16496Y2425D01*
X16747Y2677D01*
X16496Y2928D01*
X16436Y2895D01*
X16417Y2840D01*
X16417Y5131D01*
X17125Y4422D01*
X17125Y2919D01*
X17110Y2928D01*
X17054Y2873D01*
X17054Y2984D01*
X17021Y3043D01*
X16864Y3099D01*
X16698Y3090D01*
X16585Y3043D01*
X16551Y2984D01*
X16803Y2732D01*
X17054Y2984D01*
X17054Y2873D01*
X16858Y2677D01*
X17110Y2425D01*
X17125Y2434D01*
X17125Y1921D01*
G54D10*
G36*
X17210Y16200D02*
X16726Y16200D01*
X16635Y16292D01*
X16739Y16255D01*
X16903Y16264D01*
X17014Y16310D01*
X17047Y16369D01*
X16799Y16617D01*
X16793Y16612D01*
X16738Y16667D01*
X16743Y16673D01*
X16495Y16921D01*
X16476Y16910D01*
X16476Y17415D01*
X16564Y17326D01*
X16716Y17263D01*
X16881Y17263D01*
X17033Y17326D01*
X17106Y17399D01*
X17106Y16919D01*
X17102Y16921D01*
X17047Y16866D01*
X17047Y16976D01*
X17014Y17035D01*
X16859Y17090D01*
X16694Y17081D01*
X16584Y17035D01*
X16550Y16976D01*
X16799Y16728D01*
X17047Y16976D01*
X17047Y16866D01*
X16854Y16673D01*
X17102Y16424D01*
X17106Y16426D01*
X17106Y16377D01*
X17119Y16310D01*
X17158Y16252D01*
X17210Y16200D01*
X17210Y16200D01*
G37*
G54D23*
X17210Y16200D02*
X16726Y16200D01*
X16635Y16292D01*
X16739Y16255D01*
X16903Y16264D01*
X17014Y16310D01*
X17047Y16369D01*
X16799Y16617D01*
X16793Y16612D01*
X16738Y16667D01*
X16743Y16673D01*
X16495Y16921D01*
X16476Y16910D01*
X16476Y17415D01*
X16564Y17326D01*
X16716Y17263D01*
X16881Y17263D01*
X17033Y17326D01*
X17106Y17399D01*
X17106Y16919D01*
X17102Y16921D01*
X17047Y16866D01*
X17047Y16976D01*
X17014Y17035D01*
X16859Y17090D01*
X16694Y17081D01*
X16584Y17035D01*
X16550Y16976D01*
X16799Y16728D01*
X17047Y16976D01*
X17047Y16866D01*
X16854Y16673D01*
X17102Y16424D01*
X17106Y16426D01*
X17106Y16377D01*
X17119Y16310D01*
X17158Y16252D01*
X17210Y16200D01*
G54D10*
G36*
X18110Y1937D02*
X18054Y1993D01*
X18054Y2370D01*
X17803Y2621D01*
X17551Y2370D01*
X17585Y2310D01*
X17742Y2254D01*
X17908Y2263D01*
X18021Y2310D01*
X18054Y2370D01*
X18054Y1993D01*
X18020Y2027D01*
X17866Y2091D01*
X17700Y2091D01*
X17546Y2027D01*
X17440Y1922D01*
X17440Y2456D01*
X17496Y2425D01*
X17747Y2677D01*
X17496Y2928D01*
X17440Y2897D01*
X17440Y4344D01*
X18110Y3674D01*
X18110Y2928D01*
X18110Y2928D01*
X18054Y2873D01*
X18054Y2984D01*
X18021Y3043D01*
X17864Y3099D01*
X17698Y3090D01*
X17585Y3043D01*
X17551Y2984D01*
X17803Y2732D01*
X18054Y2984D01*
X18054Y2873D01*
X17858Y2677D01*
X18110Y2425D01*
X18110Y2425D01*
X18110Y1937D01*
X18110Y1937D01*
G37*
G54D23*
X18110Y1937D02*
X18054Y1993D01*
X18054Y2370D01*
X17803Y2621D01*
X17551Y2370D01*
X17585Y2310D01*
X17742Y2254D01*
X17908Y2263D01*
X18021Y2310D01*
X18054Y2370D01*
X18054Y1993D01*
X18020Y2027D01*
X17866Y2091D01*
X17700Y2091D01*
X17546Y2027D01*
X17440Y1922D01*
X17440Y2456D01*
X17496Y2425D01*
X17747Y2677D01*
X17496Y2928D01*
X17440Y2897D01*
X17440Y4344D01*
X18110Y3674D01*
X18110Y2928D01*
X18110Y2928D01*
X18054Y2873D01*
X18054Y2984D01*
X18021Y3043D01*
X17864Y3099D01*
X17698Y3090D01*
X17585Y3043D01*
X17551Y2984D01*
X17803Y2732D01*
X18054Y2984D01*
X18054Y2873D01*
X17858Y2677D01*
X18110Y2425D01*
X18110Y2425D01*
X18110Y1937D01*
G54D10*
G36*
X18129Y10821D02*
X17945Y10637D01*
X17907Y10579D01*
X17893Y10511D01*
X17893Y9882D01*
X17381Y9370D01*
X17334Y9389D01*
X17232Y9389D01*
X17138Y9350D01*
X17066Y9279D01*
X17027Y9184D01*
X17027Y9083D01*
X17066Y8989D01*
X17138Y8917D01*
X17186Y8896D01*
X17010Y8720D01*
X16945Y8720D01*
X16865Y8687D01*
X16804Y8626D01*
X16771Y8547D01*
X16771Y8461D01*
X16786Y8425D01*
X16279Y8425D01*
X15860Y8425D01*
X15774Y8511D01*
X15717Y8549D01*
X15649Y8562D01*
X15405Y8562D01*
X15358Y8582D01*
X15272Y8582D01*
X15192Y8549D01*
X15157Y8514D01*
X15157Y8847D01*
X15192Y8812D01*
X15271Y8779D01*
X15357Y8779D01*
X15437Y8812D01*
X15498Y8873D01*
X15531Y8952D01*
X15531Y9038D01*
X15498Y9118D01*
X15492Y9125D01*
X15492Y9257D01*
X15578Y9343D01*
X15578Y9343D01*
X15616Y9400D01*
X15629Y9468D01*
X15629Y9468D01*
X15629Y9665D01*
X15616Y9733D01*
X15616Y9733D01*
X15578Y9790D01*
X15427Y9940D01*
X16341Y9940D01*
X16351Y9916D01*
X16412Y9855D01*
X16492Y9822D01*
X16578Y9822D01*
X16657Y9855D01*
X16673Y9870D01*
X16688Y9855D01*
X16767Y9822D01*
X16853Y9822D01*
X16933Y9855D01*
X16948Y9870D01*
X16963Y9855D01*
X17043Y9822D01*
X17129Y9822D01*
X17209Y9855D01*
X17270Y9916D01*
X17303Y9996D01*
X17303Y10082D01*
X17270Y10161D01*
X17251Y10180D01*
X17250Y10188D01*
X17250Y10188D01*
X17211Y10246D01*
X16820Y10637D01*
X16763Y10675D01*
X16695Y10688D01*
X15371Y10688D01*
X14047Y12012D01*
X14047Y16369D01*
X13799Y16617D01*
X13550Y16369D01*
X13584Y16310D01*
X13739Y16255D01*
X13903Y16264D01*
X14014Y16310D01*
X14047Y16369D01*
X14047Y12012D01*
X12390Y13670D01*
X12390Y14052D01*
X12376Y14120D01*
X12376Y14120D01*
X12338Y14177D01*
X12047Y14468D01*
X12050Y14468D01*
X12130Y14501D01*
X12191Y14562D01*
X12224Y14641D01*
X12224Y14727D01*
X12191Y14807D01*
X12130Y14868D01*
X12106Y14878D01*
X12106Y17737D01*
X12663Y18295D01*
X12720Y18271D01*
X12885Y18271D01*
X13037Y18334D01*
X13129Y18427D01*
X13129Y17931D01*
X13033Y18027D01*
X12881Y18090D01*
X12717Y18090D01*
X12565Y18027D01*
X12448Y17911D01*
X12385Y17759D01*
X12385Y17595D01*
X12448Y17443D01*
X12564Y17326D01*
X12716Y17263D01*
X12881Y17263D01*
X13033Y17326D01*
X13129Y17423D01*
X13129Y16906D01*
X13102Y16921D01*
X13047Y16866D01*
X13047Y16976D01*
X13014Y17035D01*
X12859Y17090D01*
X12694Y17081D01*
X12584Y17035D01*
X12550Y16976D01*
X12799Y16728D01*
X13047Y16976D01*
X13047Y16866D01*
X12854Y16673D01*
X13102Y16424D01*
X13129Y16440D01*
X13129Y16023D01*
X13133Y16003D01*
X13129Y15984D01*
X13129Y15978D01*
X13047Y15896D01*
X13047Y16369D01*
X12799Y16617D01*
X12743Y16562D01*
X12743Y16673D01*
X12495Y16921D01*
X12436Y16888D01*
X12381Y16733D01*
X12390Y16568D01*
X12436Y16458D01*
X12495Y16424D01*
X12743Y16673D01*
X12743Y16562D01*
X12550Y16369D01*
X12584Y16310D01*
X12739Y16255D01*
X12903Y16264D01*
X13014Y16310D01*
X13047Y16369D01*
X13047Y15896D01*
X12485Y15334D01*
X12429Y15334D01*
X12335Y15295D01*
X12263Y15223D01*
X12224Y15129D01*
X12224Y15028D01*
X12263Y14933D01*
X12335Y14861D01*
X12429Y14822D01*
X12530Y14822D01*
X12625Y14861D01*
X12697Y14933D01*
X12736Y15027D01*
X12736Y15084D01*
X13432Y15780D01*
X13470Y15837D01*
X13484Y15905D01*
X13484Y15984D01*
X13480Y16003D01*
X13484Y16023D01*
X13484Y16431D01*
X13495Y16424D01*
X13743Y16673D01*
X13495Y16921D01*
X13484Y16915D01*
X13484Y17407D01*
X13564Y17326D01*
X13716Y17263D01*
X13881Y17263D01*
X14033Y17326D01*
X14114Y17407D01*
X14114Y16915D01*
X14102Y16921D01*
X14047Y16866D01*
X14047Y16976D01*
X14014Y17035D01*
X13859Y17090D01*
X13694Y17081D01*
X13584Y17035D01*
X13550Y16976D01*
X13799Y16728D01*
X14047Y16976D01*
X14047Y16866D01*
X13854Y16673D01*
X14102Y16424D01*
X14114Y16431D01*
X14114Y16417D01*
X14127Y16349D01*
X14166Y16292D01*
X14632Y15826D01*
X14601Y15813D01*
X14540Y15752D01*
X14507Y15673D01*
X14507Y15587D01*
X14540Y15507D01*
X14601Y15446D01*
X14681Y15413D01*
X14690Y15413D01*
X14795Y15307D01*
X14795Y15307D01*
X14853Y15269D01*
X14921Y15255D01*
X14921Y15255D01*
X14997Y15255D01*
X14997Y15255D01*
X17758Y15255D01*
X17933Y15081D01*
X17933Y12986D01*
X17564Y12618D01*
X17555Y12618D01*
X17475Y12585D01*
X17414Y12524D01*
X17381Y12444D01*
X17381Y12358D01*
X17414Y12279D01*
X17475Y12218D01*
X17555Y12185D01*
X17641Y12185D01*
X17720Y12217D01*
X17781Y12278D01*
X17814Y12358D01*
X17814Y12367D01*
X18129Y12682D01*
X18129Y10821D01*
X18129Y10821D01*
G37*
G54D23*
X18129Y10821D02*
X17945Y10637D01*
X17907Y10579D01*
X17893Y10511D01*
X17893Y9882D01*
X17381Y9370D01*
X17334Y9389D01*
X17232Y9389D01*
X17138Y9350D01*
X17066Y9279D01*
X17027Y9184D01*
X17027Y9083D01*
X17066Y8989D01*
X17138Y8917D01*
X17186Y8896D01*
X17010Y8720D01*
X16945Y8720D01*
X16865Y8687D01*
X16804Y8626D01*
X16771Y8547D01*
X16771Y8461D01*
X16786Y8425D01*
X16279Y8425D01*
X15860Y8425D01*
X15774Y8511D01*
X15717Y8549D01*
X15649Y8562D01*
X15405Y8562D01*
X15358Y8582D01*
X15272Y8582D01*
X15192Y8549D01*
X15157Y8514D01*
X15157Y8847D01*
X15192Y8812D01*
X15271Y8779D01*
X15357Y8779D01*
X15437Y8812D01*
X15498Y8873D01*
X15531Y8952D01*
X15531Y9038D01*
X15498Y9118D01*
X15492Y9125D01*
X15492Y9257D01*
X15578Y9343D01*
X15578Y9343D01*
X15616Y9400D01*
X15629Y9468D01*
X15629Y9468D01*
X15629Y9665D01*
X15616Y9733D01*
X15616Y9733D01*
X15578Y9790D01*
X15427Y9940D01*
X16341Y9940D01*
X16351Y9916D01*
X16412Y9855D01*
X16492Y9822D01*
X16578Y9822D01*
X16657Y9855D01*
X16673Y9870D01*
X16688Y9855D01*
X16767Y9822D01*
X16853Y9822D01*
X16933Y9855D01*
X16948Y9870D01*
X16963Y9855D01*
X17043Y9822D01*
X17129Y9822D01*
X17209Y9855D01*
X17270Y9916D01*
X17303Y9996D01*
X17303Y10082D01*
X17270Y10161D01*
X17251Y10180D01*
X17250Y10188D01*
X17250Y10188D01*
X17211Y10246D01*
X16820Y10637D01*
X16763Y10675D01*
X16695Y10688D01*
X15371Y10688D01*
X14047Y12012D01*
X14047Y16369D01*
X13799Y16617D01*
X13550Y16369D01*
X13584Y16310D01*
X13739Y16255D01*
X13903Y16264D01*
X14014Y16310D01*
X14047Y16369D01*
X14047Y12012D01*
X12390Y13670D01*
X12390Y14052D01*
X12376Y14120D01*
X12376Y14120D01*
X12338Y14177D01*
X12047Y14468D01*
X12050Y14468D01*
X12130Y14501D01*
X12191Y14562D01*
X12224Y14641D01*
X12224Y14727D01*
X12191Y14807D01*
X12130Y14868D01*
X12106Y14878D01*
X12106Y17737D01*
X12663Y18295D01*
X12720Y18271D01*
X12885Y18271D01*
X13037Y18334D01*
X13129Y18427D01*
X13129Y17931D01*
X13033Y18027D01*
X12881Y18090D01*
X12717Y18090D01*
X12565Y18027D01*
X12448Y17911D01*
X12385Y17759D01*
X12385Y17595D01*
X12448Y17443D01*
X12564Y17326D01*
X12716Y17263D01*
X12881Y17263D01*
X13033Y17326D01*
X13129Y17423D01*
X13129Y16906D01*
X13102Y16921D01*
X13047Y16866D01*
X13047Y16976D01*
X13014Y17035D01*
X12859Y17090D01*
X12694Y17081D01*
X12584Y17035D01*
X12550Y16976D01*
X12799Y16728D01*
X13047Y16976D01*
X13047Y16866D01*
X12854Y16673D01*
X13102Y16424D01*
X13129Y16440D01*
X13129Y16023D01*
X13133Y16003D01*
X13129Y15984D01*
X13129Y15978D01*
X13047Y15896D01*
X13047Y16369D01*
X12799Y16617D01*
X12743Y16562D01*
X12743Y16673D01*
X12495Y16921D01*
X12436Y16888D01*
X12381Y16733D01*
X12390Y16568D01*
X12436Y16458D01*
X12495Y16424D01*
X12743Y16673D01*
X12743Y16562D01*
X12550Y16369D01*
X12584Y16310D01*
X12739Y16255D01*
X12903Y16264D01*
X13014Y16310D01*
X13047Y16369D01*
X13047Y15896D01*
X12485Y15334D01*
X12429Y15334D01*
X12335Y15295D01*
X12263Y15223D01*
X12224Y15129D01*
X12224Y15028D01*
X12263Y14933D01*
X12335Y14861D01*
X12429Y14822D01*
X12530Y14822D01*
X12625Y14861D01*
X12697Y14933D01*
X12736Y15027D01*
X12736Y15084D01*
X13432Y15780D01*
X13470Y15837D01*
X13484Y15905D01*
X13484Y15984D01*
X13480Y16003D01*
X13484Y16023D01*
X13484Y16431D01*
X13495Y16424D01*
X13743Y16673D01*
X13495Y16921D01*
X13484Y16915D01*
X13484Y17407D01*
X13564Y17326D01*
X13716Y17263D01*
X13881Y17263D01*
X14033Y17326D01*
X14114Y17407D01*
X14114Y16915D01*
X14102Y16921D01*
X14047Y16866D01*
X14047Y16976D01*
X14014Y17035D01*
X13859Y17090D01*
X13694Y17081D01*
X13584Y17035D01*
X13550Y16976D01*
X13799Y16728D01*
X14047Y16976D01*
X14047Y16866D01*
X13854Y16673D01*
X14102Y16424D01*
X14114Y16431D01*
X14114Y16417D01*
X14127Y16349D01*
X14166Y16292D01*
X14632Y15826D01*
X14601Y15813D01*
X14540Y15752D01*
X14507Y15673D01*
X14507Y15587D01*
X14540Y15507D01*
X14601Y15446D01*
X14681Y15413D01*
X14690Y15413D01*
X14795Y15307D01*
X14795Y15307D01*
X14853Y15269D01*
X14921Y15255D01*
X14921Y15255D01*
X14997Y15255D01*
X14997Y15255D01*
X17758Y15255D01*
X17933Y15081D01*
X17933Y12986D01*
X17564Y12618D01*
X17555Y12618D01*
X17475Y12585D01*
X17414Y12524D01*
X17381Y12444D01*
X17381Y12358D01*
X17414Y12279D01*
X17475Y12218D01*
X17555Y12185D01*
X17641Y12185D01*
X17720Y12217D01*
X17781Y12278D01*
X17814Y12358D01*
X17814Y12367D01*
X18129Y12682D01*
X18129Y10821D01*
G54D10*
G36*
X18169Y16870D02*
X18161Y16888D01*
X18102Y16921D01*
X18047Y16866D01*
X18047Y16976D01*
X18014Y17035D01*
X17859Y17090D01*
X17694Y17081D01*
X17584Y17035D01*
X17550Y16976D01*
X17799Y16728D01*
X18047Y16976D01*
X18047Y16866D01*
X17854Y16673D01*
X17860Y16667D01*
X17804Y16612D01*
X17799Y16617D01*
X17793Y16612D01*
X17738Y16667D01*
X17743Y16673D01*
X17495Y16921D01*
X17460Y16901D01*
X17460Y17431D01*
X17564Y17326D01*
X17716Y17263D01*
X17881Y17263D01*
X18033Y17326D01*
X18149Y17442D01*
X18169Y17490D01*
X18169Y16870D01*
X18169Y16870D01*
G37*
G54D23*
X18169Y16870D02*
X18161Y16888D01*
X18102Y16921D01*
X18047Y16866D01*
X18047Y16976D01*
X18014Y17035D01*
X17859Y17090D01*
X17694Y17081D01*
X17584Y17035D01*
X17550Y16976D01*
X17799Y16728D01*
X18047Y16976D01*
X18047Y16866D01*
X17854Y16673D01*
X17860Y16667D01*
X17804Y16612D01*
X17799Y16617D01*
X17793Y16612D01*
X17738Y16667D01*
X17743Y16673D01*
X17495Y16921D01*
X17460Y16901D01*
X17460Y17431D01*
X17564Y17326D01*
X17716Y17263D01*
X17881Y17263D01*
X18033Y17326D01*
X18149Y17442D01*
X18169Y17490D01*
X18169Y16870D01*
G54D10*
G36*
X19114Y15939D02*
X18794Y16258D01*
X18903Y16264D01*
X19014Y16310D01*
X19047Y16369D01*
X18799Y16617D01*
X18793Y16612D01*
X18738Y16667D01*
X18743Y16673D01*
X18738Y16678D01*
X18793Y16734D01*
X18799Y16728D01*
X19047Y16976D01*
X19014Y17035D01*
X18859Y17090D01*
X18694Y17081D01*
X18584Y17035D01*
X18550Y16976D01*
X18529Y16998D01*
X18523Y16992D01*
X18523Y17368D01*
X18564Y17326D01*
X18716Y17263D01*
X18881Y17263D01*
X19033Y17326D01*
X19114Y17407D01*
X19114Y16915D01*
X19102Y16921D01*
X19047Y16866D01*
X18854Y16673D01*
X19102Y16424D01*
X19114Y16431D01*
X19114Y15939D01*
X19114Y15939D01*
G37*
G54D23*
X19114Y15939D02*
X18794Y16258D01*
X18903Y16264D01*
X19014Y16310D01*
X19047Y16369D01*
X18799Y16617D01*
X18793Y16612D01*
X18738Y16667D01*
X18743Y16673D01*
X18738Y16678D01*
X18793Y16734D01*
X18799Y16728D01*
X19047Y16976D01*
X19014Y17035D01*
X18859Y17090D01*
X18694Y17081D01*
X18584Y17035D01*
X18550Y16976D01*
X18529Y16998D01*
X18523Y16992D01*
X18523Y17368D01*
X18564Y17326D01*
X18716Y17263D01*
X18881Y17263D01*
X19033Y17326D01*
X19114Y17407D01*
X19114Y16915D01*
X19102Y16921D01*
X19047Y16866D01*
X18854Y16673D01*
X19102Y16424D01*
X19114Y16431D01*
X19114Y15939D01*
G54D10*
G36*
X19133Y1914D02*
X19054Y1993D01*
X19054Y2370D01*
X18803Y2621D01*
X18551Y2370D01*
X18585Y2310D01*
X18742Y2254D01*
X18908Y2263D01*
X19021Y2310D01*
X19054Y2370D01*
X19054Y1993D01*
X19020Y2027D01*
X18866Y2091D01*
X18700Y2091D01*
X18546Y2027D01*
X18429Y1910D01*
X18425Y1900D01*
X18425Y2486D01*
X18436Y2459D01*
X18496Y2425D01*
X18747Y2677D01*
X18496Y2928D01*
X18436Y2895D01*
X18425Y2863D01*
X18425Y3596D01*
X18786Y3235D01*
X18786Y3235D01*
X18837Y3200D01*
X18837Y3200D01*
X18897Y3188D01*
X18950Y3188D01*
X19133Y3005D01*
X19133Y2915D01*
X19110Y2928D01*
X19054Y2873D01*
X19054Y2984D01*
X19021Y3043D01*
X18864Y3099D01*
X18698Y3090D01*
X18585Y3043D01*
X18551Y2984D01*
X18803Y2732D01*
X19054Y2984D01*
X19054Y2873D01*
X18858Y2677D01*
X19110Y2425D01*
X19133Y2438D01*
X19133Y1914D01*
X19133Y1914D01*
G37*
G54D23*
X19133Y1914D02*
X19054Y1993D01*
X19054Y2370D01*
X18803Y2621D01*
X18551Y2370D01*
X18585Y2310D01*
X18742Y2254D01*
X18908Y2263D01*
X19021Y2310D01*
X19054Y2370D01*
X19054Y1993D01*
X19020Y2027D01*
X18866Y2091D01*
X18700Y2091D01*
X18546Y2027D01*
X18429Y1910D01*
X18425Y1900D01*
X18425Y2486D01*
X18436Y2459D01*
X18496Y2425D01*
X18747Y2677D01*
X18496Y2928D01*
X18436Y2895D01*
X18425Y2863D01*
X18425Y3596D01*
X18786Y3235D01*
X18786Y3235D01*
X18837Y3200D01*
X18837Y3200D01*
X18897Y3188D01*
X18950Y3188D01*
X19133Y3005D01*
X19133Y2915D01*
X19110Y2928D01*
X19054Y2873D01*
X19054Y2984D01*
X19021Y3043D01*
X18864Y3099D01*
X18698Y3090D01*
X18585Y3043D01*
X18551Y2984D01*
X18803Y2732D01*
X19054Y2984D01*
X19054Y2873D01*
X18858Y2677D01*
X19110Y2425D01*
X19133Y2438D01*
X19133Y1914D01*
G54D10*
G36*
X20137Y16901D02*
X20102Y16921D01*
X20047Y16866D01*
X20047Y16976D01*
X20014Y17035D01*
X19859Y17090D01*
X19694Y17081D01*
X19584Y17035D01*
X19550Y16976D01*
X19799Y16728D01*
X20047Y16976D01*
X20047Y16866D01*
X19854Y16673D01*
X19860Y16667D01*
X19804Y16612D01*
X19799Y16617D01*
X19550Y16369D01*
X19584Y16310D01*
X19739Y16255D01*
X19745Y16256D01*
X19468Y15978D01*
X19468Y16440D01*
X19495Y16424D01*
X19743Y16673D01*
X19495Y16921D01*
X19468Y16906D01*
X19468Y17423D01*
X19564Y17326D01*
X19716Y17263D01*
X19881Y17263D01*
X20033Y17326D01*
X20137Y17431D01*
X20137Y16901D01*
X20137Y16901D01*
G37*
G54D23*
X20137Y16901D02*
X20102Y16921D01*
X20047Y16866D01*
X20047Y16976D01*
X20014Y17035D01*
X19859Y17090D01*
X19694Y17081D01*
X19584Y17035D01*
X19550Y16976D01*
X19799Y16728D01*
X20047Y16976D01*
X20047Y16866D01*
X19854Y16673D01*
X19860Y16667D01*
X19804Y16612D01*
X19799Y16617D01*
X19550Y16369D01*
X19584Y16310D01*
X19739Y16255D01*
X19745Y16256D01*
X19468Y15978D01*
X19468Y16440D01*
X19495Y16424D01*
X19743Y16673D01*
X19495Y16921D01*
X19468Y16906D01*
X19468Y17423D01*
X19564Y17326D01*
X19716Y17263D01*
X19881Y17263D01*
X20033Y17326D01*
X20137Y17431D01*
X20137Y16901D01*
G54D10*
G36*
X20157Y1862D02*
X20138Y1909D01*
X20054Y1993D01*
X20054Y2370D01*
X19803Y2621D01*
X19551Y2370D01*
X19585Y2310D01*
X19742Y2254D01*
X19908Y2263D01*
X20021Y2310D01*
X20054Y2370D01*
X20054Y1993D01*
X20020Y2027D01*
X19866Y2091D01*
X19700Y2091D01*
X19546Y2027D01*
X19448Y1929D01*
X19448Y2452D01*
X19496Y2425D01*
X19747Y2677D01*
X19496Y2928D01*
X19448Y2902D01*
X19448Y3070D01*
X19436Y3131D01*
X19436Y3131D01*
X19402Y3182D01*
X19402Y3182D01*
X19159Y3425D01*
X19619Y3425D01*
X19990Y3054D01*
X19864Y3099D01*
X19698Y3090D01*
X19585Y3043D01*
X19551Y2984D01*
X19803Y2732D01*
X19808Y2738D01*
X19864Y2682D01*
X19858Y2677D01*
X20110Y2425D01*
X20157Y2452D01*
X20157Y1862D01*
X20157Y1862D01*
G37*
G54D23*
X20157Y1862D02*
X20138Y1909D01*
X20054Y1993D01*
X20054Y2370D01*
X19803Y2621D01*
X19551Y2370D01*
X19585Y2310D01*
X19742Y2254D01*
X19908Y2263D01*
X20021Y2310D01*
X20054Y2370D01*
X20054Y1993D01*
X20020Y2027D01*
X19866Y2091D01*
X19700Y2091D01*
X19546Y2027D01*
X19448Y1929D01*
X19448Y2452D01*
X19496Y2425D01*
X19747Y2677D01*
X19496Y2928D01*
X19448Y2902D01*
X19448Y3070D01*
X19436Y3131D01*
X19436Y3131D01*
X19402Y3182D01*
X19402Y3182D01*
X19159Y3425D01*
X19619Y3425D01*
X19990Y3054D01*
X19864Y3099D01*
X19698Y3090D01*
X19585Y3043D01*
X19551Y2984D01*
X19803Y2732D01*
X19808Y2738D01*
X19864Y2682D01*
X19858Y2677D01*
X20110Y2425D01*
X20157Y2452D01*
X20157Y1862D01*
G54D10*
G36*
X20612Y147D02*
X13216Y147D01*
X13216Y766D01*
X13153Y918D01*
X13037Y1035D01*
X12885Y1098D01*
X12721Y1098D01*
X12569Y1035D01*
X12452Y919D01*
X12389Y767D01*
X12389Y603D01*
X12452Y451D01*
X12568Y334D01*
X12720Y271D01*
X12885Y271D01*
X13037Y334D01*
X13153Y450D01*
X13216Y602D01*
X13216Y766D01*
X13216Y147D01*
X12220Y147D01*
X12220Y625D01*
X12211Y789D01*
X12165Y900D01*
X12106Y933D01*
X12051Y877D01*
X12051Y988D01*
X12018Y1047D01*
X11863Y1102D01*
X11698Y1093D01*
X11587Y1047D01*
X11554Y988D01*
X11803Y740D01*
X12051Y988D01*
X12051Y877D01*
X11858Y685D01*
X12106Y436D01*
X12165Y469D01*
X12220Y625D01*
X12220Y147D01*
X12051Y147D01*
X12051Y381D01*
X11803Y629D01*
X11747Y574D01*
X11747Y685D01*
X11499Y933D01*
X11440Y900D01*
X11385Y745D01*
X11394Y580D01*
X11440Y469D01*
X11499Y436D01*
X11747Y685D01*
X11747Y574D01*
X11554Y381D01*
X11587Y322D01*
X11743Y267D01*
X11907Y276D01*
X12018Y322D01*
X12051Y381D01*
X12051Y147D01*
X11220Y147D01*
X11220Y625D01*
X11211Y789D01*
X11165Y900D01*
X11106Y933D01*
X11051Y877D01*
X11051Y988D01*
X11018Y1047D01*
X10863Y1102D01*
X10698Y1093D01*
X10587Y1047D01*
X10554Y988D01*
X10803Y740D01*
X11051Y988D01*
X11051Y877D01*
X10858Y685D01*
X11106Y436D01*
X11165Y469D01*
X11220Y625D01*
X11220Y147D01*
X11051Y147D01*
X11051Y381D01*
X10803Y629D01*
X10747Y574D01*
X10747Y685D01*
X10499Y933D01*
X10440Y900D01*
X10385Y745D01*
X10394Y580D01*
X10440Y469D01*
X10499Y436D01*
X10747Y685D01*
X10747Y574D01*
X10554Y381D01*
X10587Y322D01*
X10743Y267D01*
X10907Y276D01*
X11018Y322D01*
X11051Y381D01*
X11051Y147D01*
X10216Y147D01*
X10216Y766D01*
X10153Y918D01*
X10037Y1035D01*
X9885Y1098D01*
X9721Y1098D01*
X9679Y1081D01*
X9277Y1482D01*
X9175Y1550D01*
X9055Y1574D01*
X7377Y1574D01*
X7257Y1550D01*
X7155Y1482D01*
X6771Y1098D01*
X6721Y1098D01*
X6569Y1035D01*
X6452Y919D01*
X6389Y767D01*
X6389Y603D01*
X6452Y451D01*
X6568Y334D01*
X6720Y271D01*
X6885Y271D01*
X7037Y334D01*
X7153Y450D01*
X7216Y602D01*
X7216Y652D01*
X7431Y867D01*
X7389Y767D01*
X7389Y603D01*
X7452Y451D01*
X7568Y334D01*
X7720Y271D01*
X7885Y271D01*
X8037Y334D01*
X8153Y450D01*
X8216Y602D01*
X8216Y766D01*
X8153Y918D01*
X8127Y944D01*
X8478Y944D01*
X8452Y919D01*
X8389Y767D01*
X8389Y603D01*
X8452Y451D01*
X8568Y334D01*
X8720Y271D01*
X8885Y271D01*
X9037Y334D01*
X9153Y450D01*
X9216Y602D01*
X9216Y653D01*
X9407Y462D01*
X9407Y462D01*
X9509Y394D01*
X9509Y394D01*
X9568Y334D01*
X9720Y271D01*
X9885Y271D01*
X10037Y334D01*
X10153Y450D01*
X10216Y602D01*
X10216Y766D01*
X10216Y147D01*
X6216Y147D01*
X6216Y766D01*
X6153Y918D01*
X6102Y970D01*
X6102Y3171D01*
X5935Y3576D01*
X5625Y3886D01*
X5220Y4054D01*
X4781Y4055D01*
X4510Y3943D01*
X4510Y10671D01*
X4505Y10929D01*
X4416Y11144D01*
X4332Y11206D01*
X4277Y11151D01*
X4277Y11262D01*
X4215Y11345D01*
X3974Y11439D01*
X3716Y11434D01*
X3501Y11345D01*
X3439Y11262D01*
X3858Y10842D01*
X4277Y11262D01*
X4277Y11151D01*
X3913Y10787D01*
X4332Y10368D01*
X4416Y10430D01*
X4510Y10671D01*
X4510Y3943D01*
X4376Y3887D01*
X4277Y3788D01*
X4277Y10313D01*
X3858Y10732D01*
X3802Y10676D01*
X3802Y10787D01*
X3383Y11206D01*
X3300Y11144D01*
X3205Y10903D01*
X3211Y10645D01*
X3300Y10430D01*
X3383Y10368D01*
X3802Y10787D01*
X3802Y10676D01*
X3439Y10313D01*
X3501Y10229D01*
X3741Y10135D01*
X4000Y10140D01*
X4215Y10229D01*
X4277Y10313D01*
X4277Y3788D01*
X4066Y3578D01*
X3897Y3172D01*
X3897Y2734D01*
X4064Y2329D01*
X4295Y2098D01*
X4043Y2203D01*
X3741Y2205D01*
X3741Y3167D01*
X3575Y3573D01*
X3569Y3581D01*
X3438Y3698D01*
X3383Y3643D01*
X3383Y3753D01*
X3266Y3884D01*
X3146Y3935D01*
X3146Y12276D01*
X3146Y14018D01*
X3135Y14143D01*
X3107Y14210D01*
X3058Y14231D01*
X3003Y14176D01*
X3003Y14287D01*
X2982Y14336D01*
X2863Y14374D01*
X2738Y14364D01*
X2670Y14336D01*
X2649Y14287D01*
X2826Y14110D01*
X3003Y14287D01*
X3003Y14176D01*
X2882Y14055D01*
X3058Y13878D01*
X3107Y13899D01*
X3146Y14018D01*
X3146Y12276D01*
X3135Y12401D01*
X3107Y12468D01*
X3058Y12489D01*
X3003Y12434D01*
X3003Y12545D01*
X3003Y13822D01*
X2826Y13999D01*
X2771Y13944D01*
X2771Y14055D01*
X2594Y14231D01*
X2545Y14210D01*
X2507Y14091D01*
X2517Y13966D01*
X2545Y13899D01*
X2594Y13878D01*
X2771Y14055D01*
X2771Y13944D01*
X2649Y13822D01*
X2670Y13774D01*
X2790Y13735D01*
X2915Y13746D01*
X2982Y13774D01*
X3003Y13822D01*
X3003Y12545D01*
X2982Y12594D01*
X2863Y12632D01*
X2738Y12621D01*
X2670Y12594D01*
X2649Y12545D01*
X2826Y12368D01*
X3003Y12545D01*
X3003Y12434D01*
X2882Y12312D01*
X3058Y12136D01*
X3107Y12157D01*
X3146Y12276D01*
X3146Y3935D01*
X3003Y3995D01*
X3003Y12080D01*
X2826Y12257D01*
X2771Y12202D01*
X2771Y12312D01*
X2594Y12489D01*
X2545Y12468D01*
X2507Y12349D01*
X2517Y12224D01*
X2545Y12157D01*
X2594Y12136D01*
X2771Y12312D01*
X2771Y12202D01*
X2649Y12080D01*
X2670Y12031D01*
X2790Y11993D01*
X2915Y12004D01*
X2982Y12031D01*
X3003Y12080D01*
X3003Y3995D01*
X2862Y4054D01*
X2423Y4056D01*
X2187Y3960D01*
X2187Y11467D01*
X2187Y14696D01*
X2182Y14938D01*
X2100Y15136D01*
X2020Y15193D01*
X1630Y14803D01*
X2020Y14412D01*
X2100Y14469D01*
X2187Y14696D01*
X2187Y11467D01*
X2182Y11710D01*
X2100Y11908D01*
X2020Y11965D01*
X1630Y11574D01*
X2020Y11184D01*
X2100Y11241D01*
X2187Y11467D01*
X2187Y3960D01*
X2017Y3890D01*
X2009Y3884D01*
X1891Y3753D01*
X2637Y3008D01*
X3383Y3753D01*
X3383Y3643D01*
X2693Y2952D01*
X3438Y2206D01*
X3569Y2324D01*
X3739Y2728D01*
X3741Y3167D01*
X3741Y2205D01*
X3604Y2205D01*
X3332Y2094D01*
X3383Y2151D01*
X2637Y2897D01*
X2582Y2842D01*
X2582Y2952D01*
X1836Y3698D01*
X1705Y3581D01*
X1536Y3176D01*
X1534Y2738D01*
X1700Y2332D01*
X1705Y2324D01*
X1836Y2206D01*
X2582Y2952D01*
X2582Y2842D01*
X1891Y2151D01*
X2009Y2020D01*
X2413Y1851D01*
X2852Y1849D01*
X3123Y1960D01*
X3073Y1903D01*
X3818Y1157D01*
X4564Y1903D01*
X4512Y1961D01*
X4779Y1850D01*
X5218Y1850D01*
X5623Y2017D01*
X5933Y2327D01*
X6102Y2732D01*
X6102Y3171D01*
X6102Y970D01*
X6037Y1035D01*
X5885Y1098D01*
X5721Y1098D01*
X5569Y1035D01*
X5452Y919D01*
X5389Y767D01*
X5389Y603D01*
X5452Y451D01*
X5568Y334D01*
X5720Y271D01*
X5885Y271D01*
X6037Y334D01*
X6153Y450D01*
X6216Y602D01*
X6216Y766D01*
X6216Y147D01*
X4922Y147D01*
X4922Y1316D01*
X4756Y1722D01*
X4750Y1731D01*
X4620Y1848D01*
X3874Y1102D01*
X4620Y356D01*
X4750Y473D01*
X4920Y878D01*
X4922Y1316D01*
X4922Y147D01*
X4397Y147D01*
X4439Y164D01*
X4447Y170D01*
X4564Y301D01*
X3818Y1047D01*
X3763Y991D01*
X3763Y1102D01*
X3017Y1848D01*
X2886Y1731D01*
X2717Y1326D01*
X2715Y887D01*
X2881Y481D01*
X2886Y473D01*
X3017Y356D01*
X3763Y1102D01*
X3763Y991D01*
X3073Y301D01*
X3190Y170D01*
X3244Y147D01*
X1222Y147D01*
X1222Y11075D01*
X1241Y11049D01*
X1467Y10961D01*
X1710Y10967D01*
X1908Y11049D01*
X1965Y11128D01*
X1574Y11519D01*
X1569Y11513D01*
X1513Y11569D01*
X1519Y11574D01*
X1513Y11580D01*
X1569Y11635D01*
X1574Y11630D01*
X1965Y12020D01*
X1908Y12100D01*
X1681Y12187D01*
X1438Y12182D01*
X1241Y12100D01*
X1222Y12074D01*
X1222Y14303D01*
X1241Y14277D01*
X1467Y14189D01*
X1710Y14195D01*
X1908Y14277D01*
X1965Y14357D01*
X1574Y14747D01*
X1569Y14742D01*
X1513Y14797D01*
X1519Y14803D01*
X1513Y14808D01*
X1569Y14864D01*
X1574Y14858D01*
X1965Y15249D01*
X1908Y15328D01*
X1681Y15416D01*
X1438Y15410D01*
X1241Y15328D01*
X1222Y15302D01*
X1222Y16231D01*
X1273Y16155D01*
X3188Y14239D01*
X3188Y12716D01*
X3212Y12596D01*
X3281Y12493D01*
X4856Y10919D01*
X4856Y10919D01*
X4958Y10850D01*
X5025Y10837D01*
X4907Y10788D01*
X4763Y10644D01*
X4685Y10456D01*
X4684Y10287D01*
X4619Y10222D01*
X4551Y10120D01*
X4527Y10000D01*
X4527Y6259D01*
X4551Y6139D01*
X4619Y6037D01*
X5643Y5013D01*
X5745Y4945D01*
X5866Y4921D01*
X5986Y4945D01*
X6088Y5013D01*
X6157Y5115D01*
X6165Y5158D01*
X9933Y1391D01*
X9933Y1391D01*
X9973Y1364D01*
X10035Y1323D01*
X10155Y1299D01*
X10155Y1299D01*
X11968Y1299D01*
X14390Y1299D01*
X14416Y1273D01*
X14459Y1255D01*
X14506Y1255D01*
X15106Y1255D01*
X15118Y1259D01*
X15118Y1250D01*
X14970Y1103D01*
X14479Y1103D01*
X14436Y1085D01*
X14403Y1052D01*
X14385Y1008D01*
X14385Y961D01*
X14385Y361D01*
X14402Y318D01*
X14436Y284D01*
X14479Y266D01*
X14526Y266D01*
X15126Y266D01*
X15169Y284D01*
X15203Y318D01*
X15221Y361D01*
X15221Y408D01*
X15221Y852D01*
X15400Y1032D01*
X15439Y1089D01*
X15452Y1157D01*
X15439Y1225D01*
X15433Y1234D01*
X15433Y1432D01*
X15546Y1318D01*
X15699Y1255D01*
X15866Y1255D01*
X16019Y1318D01*
X16102Y1400D01*
X16102Y1234D01*
X15946Y1078D01*
X15886Y1103D01*
X15720Y1103D01*
X15566Y1039D01*
X15448Y922D01*
X15385Y768D01*
X15384Y602D01*
X15448Y448D01*
X15566Y330D01*
X15719Y267D01*
X15885Y266D01*
X16039Y330D01*
X16157Y447D01*
X16221Y601D01*
X16221Y767D01*
X16196Y827D01*
X16385Y1016D01*
X16423Y1073D01*
X16437Y1141D01*
X16423Y1209D01*
X16417Y1218D01*
X16417Y1464D01*
X16428Y1436D01*
X16546Y1318D01*
X16699Y1255D01*
X16866Y1255D01*
X17019Y1318D01*
X17125Y1424D01*
X17125Y1258D01*
X16946Y1078D01*
X16886Y1103D01*
X16720Y1103D01*
X16566Y1039D01*
X16448Y922D01*
X16385Y768D01*
X16384Y602D01*
X16448Y448D01*
X16566Y330D01*
X16719Y267D01*
X16885Y266D01*
X17039Y330D01*
X17157Y447D01*
X17221Y601D01*
X17221Y767D01*
X17196Y827D01*
X17408Y1040D01*
X17447Y1097D01*
X17460Y1165D01*
X17447Y1233D01*
X17440Y1242D01*
X17440Y1424D01*
X17546Y1318D01*
X17699Y1255D01*
X17866Y1255D01*
X18019Y1318D01*
X18110Y1408D01*
X18110Y1242D01*
X17946Y1078D01*
X17886Y1103D01*
X17720Y1103D01*
X17566Y1039D01*
X17448Y922D01*
X17385Y768D01*
X17384Y602D01*
X17448Y448D01*
X17566Y330D01*
X17719Y267D01*
X17885Y266D01*
X18039Y330D01*
X18157Y447D01*
X18221Y601D01*
X18221Y767D01*
X18196Y827D01*
X18392Y1024D01*
X18431Y1081D01*
X18444Y1149D01*
X18431Y1217D01*
X18425Y1226D01*
X18425Y1445D01*
X18428Y1436D01*
X18546Y1318D01*
X18699Y1255D01*
X18866Y1255D01*
X19019Y1318D01*
X19133Y1432D01*
X19133Y1266D01*
X18946Y1078D01*
X18886Y1103D01*
X18720Y1103D01*
X18566Y1039D01*
X18448Y922D01*
X18385Y768D01*
X18384Y602D01*
X18448Y448D01*
X18566Y330D01*
X18719Y267D01*
X18885Y266D01*
X19039Y330D01*
X19157Y447D01*
X19221Y601D01*
X19221Y767D01*
X19196Y827D01*
X19416Y1047D01*
X19455Y1105D01*
X19468Y1173D01*
X19455Y1241D01*
X19448Y1250D01*
X19448Y1416D01*
X19546Y1318D01*
X19699Y1255D01*
X19866Y1255D01*
X20019Y1318D01*
X20137Y1436D01*
X20157Y1483D01*
X20157Y1289D01*
X19946Y1078D01*
X19886Y1103D01*
X19720Y1103D01*
X19566Y1039D01*
X19448Y922D01*
X19385Y768D01*
X19384Y602D01*
X19448Y448D01*
X19566Y330D01*
X19719Y267D01*
X19885Y266D01*
X20039Y330D01*
X20157Y447D01*
X20221Y601D01*
X20221Y767D01*
X20196Y827D01*
X20440Y1071D01*
X20478Y1129D01*
X20492Y1196D01*
X20478Y1264D01*
X20472Y1273D01*
X20472Y2952D01*
X20460Y3013D01*
X20460Y3013D01*
X20426Y3064D01*
X20426Y3064D01*
X19796Y3694D01*
X19745Y3728D01*
X19685Y3740D01*
X18962Y3740D01*
X18486Y4216D01*
X18508Y4225D01*
X18569Y4286D01*
X18602Y4366D01*
X18602Y4452D01*
X18569Y4531D01*
X18514Y4586D01*
X18529Y4601D01*
X18562Y4681D01*
X18563Y4767D01*
X18530Y4846D01*
X18469Y4907D01*
X18389Y4940D01*
X18303Y4940D01*
X18254Y4920D01*
X16056Y7119D01*
X16056Y7119D01*
X15775Y7399D01*
X15811Y7414D01*
X15872Y7475D01*
X15874Y7480D01*
X17311Y7480D01*
X17379Y7493D01*
X17379Y7493D01*
X17436Y7532D01*
X19613Y9708D01*
X19613Y9708D01*
X19651Y9766D01*
X19665Y9834D01*
X19665Y9834D01*
X19665Y13264D01*
X19665Y15674D01*
X20440Y16449D01*
X20440Y16449D01*
X20478Y16507D01*
X20492Y16574D01*
X20492Y16574D01*
X20492Y18897D01*
X20478Y18965D01*
X20440Y19022D01*
X20164Y19298D01*
X20107Y19336D01*
X20039Y19350D01*
X19291Y19350D01*
X19223Y19336D01*
X19166Y19298D01*
X19166Y19298D01*
X19166Y19298D01*
X18942Y19074D01*
X18885Y19098D01*
X18721Y19098D01*
X18569Y19035D01*
X18452Y18919D01*
X18389Y18767D01*
X18389Y18603D01*
X18452Y18451D01*
X18568Y18334D01*
X18720Y18271D01*
X18885Y18271D01*
X19037Y18334D01*
X19153Y18450D01*
X19216Y18602D01*
X19216Y18766D01*
X19192Y18824D01*
X19364Y18996D01*
X19529Y18996D01*
X19452Y18919D01*
X19389Y18767D01*
X19389Y18603D01*
X19413Y18545D01*
X19166Y18298D01*
X19127Y18241D01*
X19114Y18173D01*
X19114Y17946D01*
X19033Y18027D01*
X18881Y18090D01*
X18717Y18090D01*
X18565Y18027D01*
X18523Y17986D01*
X18523Y18141D01*
X18523Y18141D01*
X18510Y18209D01*
X18471Y18267D01*
X18471Y18267D01*
X18192Y18545D01*
X18216Y18602D01*
X18216Y18766D01*
X18153Y18918D01*
X18037Y19035D01*
X17885Y19098D01*
X17721Y19098D01*
X17663Y19074D01*
X17243Y19495D01*
X17185Y19533D01*
X17167Y19537D01*
X20612Y19537D01*
X20612Y147D01*
X20612Y147D01*
G37*
G54D23*
X20612Y147D02*
X13216Y147D01*
X13216Y766D01*
X13153Y918D01*
X13037Y1035D01*
X12885Y1098D01*
X12721Y1098D01*
X12569Y1035D01*
X12452Y919D01*
X12389Y767D01*
X12389Y603D01*
X12452Y451D01*
X12568Y334D01*
X12720Y271D01*
X12885Y271D01*
X13037Y334D01*
X13153Y450D01*
X13216Y602D01*
X13216Y766D01*
X13216Y147D01*
X12220Y147D01*
X12220Y625D01*
X12211Y789D01*
X12165Y900D01*
X12106Y933D01*
X12051Y877D01*
X12051Y988D01*
X12018Y1047D01*
X11863Y1102D01*
X11698Y1093D01*
X11587Y1047D01*
X11554Y988D01*
X11803Y740D01*
X12051Y988D01*
X12051Y877D01*
X11858Y685D01*
X12106Y436D01*
X12165Y469D01*
X12220Y625D01*
X12220Y147D01*
X12051Y147D01*
X12051Y381D01*
X11803Y629D01*
X11747Y574D01*
X11747Y685D01*
X11499Y933D01*
X11440Y900D01*
X11385Y745D01*
X11394Y580D01*
X11440Y469D01*
X11499Y436D01*
X11747Y685D01*
X11747Y574D01*
X11554Y381D01*
X11587Y322D01*
X11743Y267D01*
X11907Y276D01*
X12018Y322D01*
X12051Y381D01*
X12051Y147D01*
X11220Y147D01*
X11220Y625D01*
X11211Y789D01*
X11165Y900D01*
X11106Y933D01*
X11051Y877D01*
X11051Y988D01*
X11018Y1047D01*
X10863Y1102D01*
X10698Y1093D01*
X10587Y1047D01*
X10554Y988D01*
X10803Y740D01*
X11051Y988D01*
X11051Y877D01*
X10858Y685D01*
X11106Y436D01*
X11165Y469D01*
X11220Y625D01*
X11220Y147D01*
X11051Y147D01*
X11051Y381D01*
X10803Y629D01*
X10747Y574D01*
X10747Y685D01*
X10499Y933D01*
X10440Y900D01*
X10385Y745D01*
X10394Y580D01*
X10440Y469D01*
X10499Y436D01*
X10747Y685D01*
X10747Y574D01*
X10554Y381D01*
X10587Y322D01*
X10743Y267D01*
X10907Y276D01*
X11018Y322D01*
X11051Y381D01*
X11051Y147D01*
X10216Y147D01*
X10216Y766D01*
X10153Y918D01*
X10037Y1035D01*
X9885Y1098D01*
X9721Y1098D01*
X9679Y1081D01*
X9277Y1482D01*
X9175Y1550D01*
X9055Y1574D01*
X7377Y1574D01*
X7257Y1550D01*
X7155Y1482D01*
X6771Y1098D01*
X6721Y1098D01*
X6569Y1035D01*
X6452Y919D01*
X6389Y767D01*
X6389Y603D01*
X6452Y451D01*
X6568Y334D01*
X6720Y271D01*
X6885Y271D01*
X7037Y334D01*
X7153Y450D01*
X7216Y602D01*
X7216Y652D01*
X7431Y867D01*
X7389Y767D01*
X7389Y603D01*
X7452Y451D01*
X7568Y334D01*
X7720Y271D01*
X7885Y271D01*
X8037Y334D01*
X8153Y450D01*
X8216Y602D01*
X8216Y766D01*
X8153Y918D01*
X8127Y944D01*
X8478Y944D01*
X8452Y919D01*
X8389Y767D01*
X8389Y603D01*
X8452Y451D01*
X8568Y334D01*
X8720Y271D01*
X8885Y271D01*
X9037Y334D01*
X9153Y450D01*
X9216Y602D01*
X9216Y653D01*
X9407Y462D01*
X9407Y462D01*
X9509Y394D01*
X9509Y394D01*
X9568Y334D01*
X9720Y271D01*
X9885Y271D01*
X10037Y334D01*
X10153Y450D01*
X10216Y602D01*
X10216Y766D01*
X10216Y147D01*
X6216Y147D01*
X6216Y766D01*
X6153Y918D01*
X6102Y970D01*
X6102Y3171D01*
X5935Y3576D01*
X5625Y3886D01*
X5220Y4054D01*
X4781Y4055D01*
X4510Y3943D01*
X4510Y10671D01*
X4505Y10929D01*
X4416Y11144D01*
X4332Y11206D01*
X4277Y11151D01*
X4277Y11262D01*
X4215Y11345D01*
X3974Y11439D01*
X3716Y11434D01*
X3501Y11345D01*
X3439Y11262D01*
X3858Y10842D01*
X4277Y11262D01*
X4277Y11151D01*
X3913Y10787D01*
X4332Y10368D01*
X4416Y10430D01*
X4510Y10671D01*
X4510Y3943D01*
X4376Y3887D01*
X4277Y3788D01*
X4277Y10313D01*
X3858Y10732D01*
X3802Y10676D01*
X3802Y10787D01*
X3383Y11206D01*
X3300Y11144D01*
X3205Y10903D01*
X3211Y10645D01*
X3300Y10430D01*
X3383Y10368D01*
X3802Y10787D01*
X3802Y10676D01*
X3439Y10313D01*
X3501Y10229D01*
X3741Y10135D01*
X4000Y10140D01*
X4215Y10229D01*
X4277Y10313D01*
X4277Y3788D01*
X4066Y3578D01*
X3897Y3172D01*
X3897Y2734D01*
X4064Y2329D01*
X4295Y2098D01*
X4043Y2203D01*
X3741Y2205D01*
X3741Y3167D01*
X3575Y3573D01*
X3569Y3581D01*
X3438Y3698D01*
X3383Y3643D01*
X3383Y3753D01*
X3266Y3884D01*
X3146Y3935D01*
X3146Y12276D01*
X3146Y14018D01*
X3135Y14143D01*
X3107Y14210D01*
X3058Y14231D01*
X3003Y14176D01*
X3003Y14287D01*
X2982Y14336D01*
X2863Y14374D01*
X2738Y14364D01*
X2670Y14336D01*
X2649Y14287D01*
X2826Y14110D01*
X3003Y14287D01*
X3003Y14176D01*
X2882Y14055D01*
X3058Y13878D01*
X3107Y13899D01*
X3146Y14018D01*
X3146Y12276D01*
X3135Y12401D01*
X3107Y12468D01*
X3058Y12489D01*
X3003Y12434D01*
X3003Y12545D01*
X3003Y13822D01*
X2826Y13999D01*
X2771Y13944D01*
X2771Y14055D01*
X2594Y14231D01*
X2545Y14210D01*
X2507Y14091D01*
X2517Y13966D01*
X2545Y13899D01*
X2594Y13878D01*
X2771Y14055D01*
X2771Y13944D01*
X2649Y13822D01*
X2670Y13774D01*
X2790Y13735D01*
X2915Y13746D01*
X2982Y13774D01*
X3003Y13822D01*
X3003Y12545D01*
X2982Y12594D01*
X2863Y12632D01*
X2738Y12621D01*
X2670Y12594D01*
X2649Y12545D01*
X2826Y12368D01*
X3003Y12545D01*
X3003Y12434D01*
X2882Y12312D01*
X3058Y12136D01*
X3107Y12157D01*
X3146Y12276D01*
X3146Y3935D01*
X3003Y3995D01*
X3003Y12080D01*
X2826Y12257D01*
X2771Y12202D01*
X2771Y12312D01*
X2594Y12489D01*
X2545Y12468D01*
X2507Y12349D01*
X2517Y12224D01*
X2545Y12157D01*
X2594Y12136D01*
X2771Y12312D01*
X2771Y12202D01*
X2649Y12080D01*
X2670Y12031D01*
X2790Y11993D01*
X2915Y12004D01*
X2982Y12031D01*
X3003Y12080D01*
X3003Y3995D01*
X2862Y4054D01*
X2423Y4056D01*
X2187Y3960D01*
X2187Y11467D01*
X2187Y14696D01*
X2182Y14938D01*
X2100Y15136D01*
X2020Y15193D01*
X1630Y14803D01*
X2020Y14412D01*
X2100Y14469D01*
X2187Y14696D01*
X2187Y11467D01*
X2182Y11710D01*
X2100Y11908D01*
X2020Y11965D01*
X1630Y11574D01*
X2020Y11184D01*
X2100Y11241D01*
X2187Y11467D01*
X2187Y3960D01*
X2017Y3890D01*
X2009Y3884D01*
X1891Y3753D01*
X2637Y3008D01*
X3383Y3753D01*
X3383Y3643D01*
X2693Y2952D01*
X3438Y2206D01*
X3569Y2324D01*
X3739Y2728D01*
X3741Y3167D01*
X3741Y2205D01*
X3604Y2205D01*
X3332Y2094D01*
X3383Y2151D01*
X2637Y2897D01*
X2582Y2842D01*
X2582Y2952D01*
X1836Y3698D01*
X1705Y3581D01*
X1536Y3176D01*
X1534Y2738D01*
X1700Y2332D01*
X1705Y2324D01*
X1836Y2206D01*
X2582Y2952D01*
X2582Y2842D01*
X1891Y2151D01*
X2009Y2020D01*
X2413Y1851D01*
X2852Y1849D01*
X3123Y1960D01*
X3073Y1903D01*
X3818Y1157D01*
X4564Y1903D01*
X4512Y1961D01*
X4779Y1850D01*
X5218Y1850D01*
X5623Y2017D01*
X5933Y2327D01*
X6102Y2732D01*
X6102Y3171D01*
X6102Y970D01*
X6037Y1035D01*
X5885Y1098D01*
X5721Y1098D01*
X5569Y1035D01*
X5452Y919D01*
X5389Y767D01*
X5389Y603D01*
X5452Y451D01*
X5568Y334D01*
X5720Y271D01*
X5885Y271D01*
X6037Y334D01*
X6153Y450D01*
X6216Y602D01*
X6216Y766D01*
X6216Y147D01*
X4922Y147D01*
X4922Y1316D01*
X4756Y1722D01*
X4750Y1731D01*
X4620Y1848D01*
X3874Y1102D01*
X4620Y356D01*
X4750Y473D01*
X4920Y878D01*
X4922Y1316D01*
X4922Y147D01*
X4397Y147D01*
X4439Y164D01*
X4447Y170D01*
X4564Y301D01*
X3818Y1047D01*
X3763Y991D01*
X3763Y1102D01*
X3017Y1848D01*
X2886Y1731D01*
X2717Y1326D01*
X2715Y887D01*
X2881Y481D01*
X2886Y473D01*
X3017Y356D01*
X3763Y1102D01*
X3763Y991D01*
X3073Y301D01*
X3190Y170D01*
X3244Y147D01*
X1222Y147D01*
X1222Y11075D01*
X1241Y11049D01*
X1467Y10961D01*
X1710Y10967D01*
X1908Y11049D01*
X1965Y11128D01*
X1574Y11519D01*
X1569Y11513D01*
X1513Y11569D01*
X1519Y11574D01*
X1513Y11580D01*
X1569Y11635D01*
X1574Y11630D01*
X1965Y12020D01*
X1908Y12100D01*
X1681Y12187D01*
X1438Y12182D01*
X1241Y12100D01*
X1222Y12074D01*
X1222Y14303D01*
X1241Y14277D01*
X1467Y14189D01*
X1710Y14195D01*
X1908Y14277D01*
X1965Y14357D01*
X1574Y14747D01*
X1569Y14742D01*
X1513Y14797D01*
X1519Y14803D01*
X1513Y14808D01*
X1569Y14864D01*
X1574Y14858D01*
X1965Y15249D01*
X1908Y15328D01*
X1681Y15416D01*
X1438Y15410D01*
X1241Y15328D01*
X1222Y15302D01*
X1222Y16231D01*
X1273Y16155D01*
X3188Y14239D01*
X3188Y12716D01*
X3212Y12596D01*
X3281Y12493D01*
X4856Y10919D01*
X4856Y10919D01*
X4958Y10850D01*
X5025Y10837D01*
X4907Y10788D01*
X4763Y10644D01*
X4685Y10456D01*
X4684Y10287D01*
X4619Y10222D01*
X4551Y10120D01*
X4527Y10000D01*
X4527Y6259D01*
X4551Y6139D01*
X4619Y6037D01*
X5643Y5013D01*
X5745Y4945D01*
X5866Y4921D01*
X5986Y4945D01*
X6088Y5013D01*
X6157Y5115D01*
X6165Y5158D01*
X9933Y1391D01*
X9933Y1391D01*
X9973Y1364D01*
X10035Y1323D01*
X10155Y1299D01*
X10155Y1299D01*
X11968Y1299D01*
X14390Y1299D01*
X14416Y1273D01*
X14459Y1255D01*
X14506Y1255D01*
X15106Y1255D01*
X15118Y1259D01*
X15118Y1250D01*
X14970Y1103D01*
X14479Y1103D01*
X14436Y1085D01*
X14403Y1052D01*
X14385Y1008D01*
X14385Y961D01*
X14385Y361D01*
X14402Y318D01*
X14436Y284D01*
X14479Y266D01*
X14526Y266D01*
X15126Y266D01*
X15169Y284D01*
X15203Y318D01*
X15221Y361D01*
X15221Y408D01*
X15221Y852D01*
X15400Y1032D01*
X15439Y1089D01*
X15452Y1157D01*
X15439Y1225D01*
X15433Y1234D01*
X15433Y1432D01*
X15546Y1318D01*
X15699Y1255D01*
X15866Y1255D01*
X16019Y1318D01*
X16102Y1400D01*
X16102Y1234D01*
X15946Y1078D01*
X15886Y1103D01*
X15720Y1103D01*
X15566Y1039D01*
X15448Y922D01*
X15385Y768D01*
X15384Y602D01*
X15448Y448D01*
X15566Y330D01*
X15719Y267D01*
X15885Y266D01*
X16039Y330D01*
X16157Y447D01*
X16221Y601D01*
X16221Y767D01*
X16196Y827D01*
X16385Y1016D01*
X16423Y1073D01*
X16437Y1141D01*
X16423Y1209D01*
X16417Y1218D01*
X16417Y1464D01*
X16428Y1436D01*
X16546Y1318D01*
X16699Y1255D01*
X16866Y1255D01*
X17019Y1318D01*
X17125Y1424D01*
X17125Y1258D01*
X16946Y1078D01*
X16886Y1103D01*
X16720Y1103D01*
X16566Y1039D01*
X16448Y922D01*
X16385Y768D01*
X16384Y602D01*
X16448Y448D01*
X16566Y330D01*
X16719Y267D01*
X16885Y266D01*
X17039Y330D01*
X17157Y447D01*
X17221Y601D01*
X17221Y767D01*
X17196Y827D01*
X17408Y1040D01*
X17447Y1097D01*
X17460Y1165D01*
X17447Y1233D01*
X17440Y1242D01*
X17440Y1424D01*
X17546Y1318D01*
X17699Y1255D01*
X17866Y1255D01*
X18019Y1318D01*
X18110Y1408D01*
X18110Y1242D01*
X17946Y1078D01*
X17886Y1103D01*
X17720Y1103D01*
X17566Y1039D01*
X17448Y922D01*
X17385Y768D01*
X17384Y602D01*
X17448Y448D01*
X17566Y330D01*
X17719Y267D01*
X17885Y266D01*
X18039Y330D01*
X18157Y447D01*
X18221Y601D01*
X18221Y767D01*
X18196Y827D01*
X18392Y1024D01*
X18431Y1081D01*
X18444Y1149D01*
X18431Y1217D01*
X18425Y1226D01*
X18425Y1445D01*
X18428Y1436D01*
X18546Y1318D01*
X18699Y1255D01*
X18866Y1255D01*
X19019Y1318D01*
X19133Y1432D01*
X19133Y1266D01*
X18946Y1078D01*
X18886Y1103D01*
X18720Y1103D01*
X18566Y1039D01*
X18448Y922D01*
X18385Y768D01*
X18384Y602D01*
X18448Y448D01*
X18566Y330D01*
X18719Y267D01*
X18885Y266D01*
X19039Y330D01*
X19157Y447D01*
X19221Y601D01*
X19221Y767D01*
X19196Y827D01*
X19416Y1047D01*
X19455Y1105D01*
X19468Y1173D01*
X19455Y1241D01*
X19448Y1250D01*
X19448Y1416D01*
X19546Y1318D01*
X19699Y1255D01*
X19866Y1255D01*
X20019Y1318D01*
X20137Y1436D01*
X20157Y1483D01*
X20157Y1289D01*
X19946Y1078D01*
X19886Y1103D01*
X19720Y1103D01*
X19566Y1039D01*
X19448Y922D01*
X19385Y768D01*
X19384Y602D01*
X19448Y448D01*
X19566Y330D01*
X19719Y267D01*
X19885Y266D01*
X20039Y330D01*
X20157Y447D01*
X20221Y601D01*
X20221Y767D01*
X20196Y827D01*
X20440Y1071D01*
X20478Y1129D01*
X20492Y1196D01*
X20478Y1264D01*
X20472Y1273D01*
X20472Y2952D01*
X20460Y3013D01*
X20460Y3013D01*
X20426Y3064D01*
X20426Y3064D01*
X19796Y3694D01*
X19745Y3728D01*
X19685Y3740D01*
X18962Y3740D01*
X18486Y4216D01*
X18508Y4225D01*
X18569Y4286D01*
X18602Y4366D01*
X18602Y4452D01*
X18569Y4531D01*
X18514Y4586D01*
X18529Y4601D01*
X18562Y4681D01*
X18563Y4767D01*
X18530Y4846D01*
X18469Y4907D01*
X18389Y4940D01*
X18303Y4940D01*
X18254Y4920D01*
X16056Y7119D01*
X16056Y7119D01*
X15775Y7399D01*
X15811Y7414D01*
X15872Y7475D01*
X15874Y7480D01*
X17311Y7480D01*
X17379Y7493D01*
X17379Y7493D01*
X17436Y7532D01*
X19613Y9708D01*
X19613Y9708D01*
X19651Y9766D01*
X19665Y9834D01*
X19665Y9834D01*
X19665Y13264D01*
X19665Y15674D01*
X20440Y16449D01*
X20440Y16449D01*
X20478Y16507D01*
X20492Y16574D01*
X20492Y16574D01*
X20492Y18897D01*
X20478Y18965D01*
X20440Y19022D01*
X20164Y19298D01*
X20107Y19336D01*
X20039Y19350D01*
X19291Y19350D01*
X19223Y19336D01*
X19166Y19298D01*
X19166Y19298D01*
X19166Y19298D01*
X18942Y19074D01*
X18885Y19098D01*
X18721Y19098D01*
X18569Y19035D01*
X18452Y18919D01*
X18389Y18767D01*
X18389Y18603D01*
X18452Y18451D01*
X18568Y18334D01*
X18720Y18271D01*
X18885Y18271D01*
X19037Y18334D01*
X19153Y18450D01*
X19216Y18602D01*
X19216Y18766D01*
X19192Y18824D01*
X19364Y18996D01*
X19529Y18996D01*
X19452Y18919D01*
X19389Y18767D01*
X19389Y18603D01*
X19413Y18545D01*
X19166Y18298D01*
X19127Y18241D01*
X19114Y18173D01*
X19114Y17946D01*
X19033Y18027D01*
X18881Y18090D01*
X18717Y18090D01*
X18565Y18027D01*
X18523Y17986D01*
X18523Y18141D01*
X18523Y18141D01*
X18510Y18209D01*
X18471Y18267D01*
X18471Y18267D01*
X18192Y18545D01*
X18216Y18602D01*
X18216Y18766D01*
X18153Y18918D01*
X18037Y19035D01*
X17885Y19098D01*
X17721Y19098D01*
X17663Y19074D01*
X17243Y19495D01*
X17185Y19533D01*
X17167Y19537D01*
X20612Y19537D01*
X20612Y147D01*
M02*
