G04 (created by PCBNEW (2013-mar-13)-testing) date T 04 juuni 2013 16:25:38 EEST*
%MOIN*%
G04 Gerber Fmt 3.4, Leading zero omitted, Abs format*
%FSLAX34Y34*%
G01*
G70*
G90*
G04 APERTURE LIST*
%ADD10C,0*%
%ADD11C,0.0590551*%
%ADD12R,0.06X0.06*%
%ADD13C,0.06*%
%ADD14R,0.025X0.045*%
%ADD15R,0.08X0.06*%
%ADD16R,0.06X0.08*%
%ADD17R,0.0531496X0.015748*%
%ADD18C,0.0393701*%
%ADD19C,0.0984252*%
%ADD20R,0.0708661X0.0708661*%
%ADD21R,0.0905512X0.019685*%
%ADD22R,0.0984252X0.0787402*%
%ADD23C,0.19685*%
%ADD24R,0.12X0.065*%
%ADD25R,0.24X0.24*%
%ADD26R,0.0787402X0.0433071*%
%ADD27R,0.0688976X0.0885827*%
%ADD28R,0.045X0.025*%
%ADD29R,0.0236X0.0551*%
%ADD30R,0.016X0.06*%
%ADD31R,0.06X0.016*%
%ADD32R,0.0314961X0.200787*%
%ADD33R,0.0511811X0.200787*%
%ADD34C,0.0787402*%
%ADD35R,0.0629921X0.0275591*%
%ADD36R,0.0165354X0.0511811*%
%ADD37R,0.019685X0.0393701*%
%ADD38R,0.0393701X0.019685*%
%ADD39R,0.045X0.02*%
%ADD40R,0.0492126X0.023622*%
%ADD41R,0.149213X0.0472441*%
%ADD42R,0.0551181X0.0570866*%
%ADD43R,0.023622X0.0393701*%
%ADD44R,0.0334646X0.0374016*%
%ADD45C,0.1063*%
%ADD46R,0.063X0.0866*%
G04 APERTURE END LIST*
G54D10*
G54D11*
X6803Y685D03*
X7803Y685D03*
X8803Y685D03*
X9803Y685D03*
X10803Y685D03*
X11803Y685D03*
X12803Y685D03*
X5803Y685D03*
X13803Y18685D03*
X14803Y18685D03*
X15803Y18685D03*
X16803Y18685D03*
X17803Y18685D03*
X18803Y18685D03*
X19803Y18685D03*
X12803Y18685D03*
G54D12*
X14803Y685D03*
G54D13*
X15803Y685D03*
X16803Y685D03*
X17803Y685D03*
X18803Y685D03*
X19803Y685D03*
G54D11*
X3203Y18685D03*
X4203Y18685D03*
X5203Y18685D03*
X6203Y18685D03*
X7203Y18685D03*
X8203Y18685D03*
X9203Y18685D03*
X2203Y18685D03*
X10203Y18685D03*
X11203Y18685D03*
G54D14*
X7062Y13346D03*
X7662Y13346D03*
X7662Y12795D03*
X7062Y12795D03*
G54D11*
X13799Y17677D03*
X14799Y17677D03*
X15799Y17677D03*
X16799Y17677D03*
X17799Y17677D03*
X18799Y17677D03*
X19799Y17677D03*
X12799Y17677D03*
X13799Y16673D03*
X14799Y16673D03*
X15799Y16673D03*
X16799Y16673D03*
X17799Y16673D03*
X18799Y16673D03*
X19799Y16673D03*
X12799Y16673D03*
G54D12*
X14783Y1673D03*
G54D13*
X15783Y1673D03*
X16783Y1673D03*
X17783Y1673D03*
X18783Y1673D03*
X19783Y1673D03*
G54D12*
X14803Y2677D03*
G54D13*
X15803Y2677D03*
X16803Y2677D03*
X17803Y2677D03*
X18803Y2677D03*
X19803Y2677D03*
G54D11*
X3232Y17677D03*
X4232Y17677D03*
X5232Y17677D03*
X6232Y17677D03*
X7232Y17677D03*
X8232Y17677D03*
X9232Y17677D03*
X2232Y17677D03*
X10232Y17677D03*
X11232Y17677D03*
X3232Y16673D03*
X4232Y16673D03*
X5232Y16673D03*
X6232Y16673D03*
X7232Y16673D03*
X8232Y16673D03*
X9232Y16673D03*
X2232Y16673D03*
X10232Y16673D03*
X11232Y16673D03*
G54D15*
X7362Y12146D03*
X7362Y10846D03*
G54D16*
X6279Y6023D03*
X7579Y6023D03*
G54D17*
X2698Y13700D03*
X2698Y13444D03*
X2698Y13188D03*
X2698Y12933D03*
X2698Y12677D03*
G54D18*
X2826Y12312D03*
X2826Y14055D03*
G54D19*
X1574Y11574D03*
X1574Y14803D03*
G54D20*
X1653Y12736D03*
X1653Y13641D03*
G54D21*
X3811Y13818D03*
X3811Y13503D03*
X3811Y13188D03*
X3811Y12874D03*
X3811Y12559D03*
G54D22*
X3811Y11437D03*
X3811Y14940D03*
X1645Y14940D03*
X1645Y11437D03*
G54D23*
X3818Y1102D03*
X5000Y2952D03*
X2637Y2952D03*
G54D24*
X4960Y5241D03*
G54D25*
X2460Y6141D03*
G54D24*
X4960Y7041D03*
G54D26*
X4960Y6141D03*
G54D27*
X6358Y7480D03*
X7421Y7480D03*
G54D14*
X14818Y12401D03*
X15418Y12401D03*
G54D28*
X12204Y12898D03*
X12204Y12298D03*
X10866Y11599D03*
X10866Y10999D03*
G54D14*
X13174Y6417D03*
X12574Y6417D03*
G54D28*
X16732Y7574D03*
X16732Y8174D03*
G54D14*
X8607Y10787D03*
X8007Y10787D03*
X9030Y10787D03*
X9630Y10787D03*
X9030Y9448D03*
X9630Y9448D03*
X9030Y10039D03*
X9630Y10039D03*
G54D28*
X7086Y14936D03*
X7086Y15536D03*
G54D14*
X10762Y1850D03*
X11362Y1850D03*
G54D28*
X12204Y13322D03*
X12204Y13922D03*
G54D14*
X16707Y11141D03*
X17307Y11141D03*
X8607Y9448D03*
X8007Y9448D03*
X8607Y10039D03*
X8007Y10039D03*
G54D28*
X7795Y15536D03*
X7795Y14936D03*
G54D14*
X10339Y1850D03*
X9739Y1850D03*
G54D29*
X12832Y14829D03*
X12832Y12729D03*
X13332Y14829D03*
X13832Y14829D03*
X14332Y14829D03*
X13332Y12729D03*
X13832Y12729D03*
X14332Y12729D03*
G54D30*
X13779Y11698D03*
X13464Y11698D03*
X13149Y11698D03*
X12834Y11698D03*
X12519Y11698D03*
X12204Y11698D03*
X14094Y11698D03*
X14409Y11698D03*
X14724Y11698D03*
X15039Y11698D03*
X15354Y11698D03*
X13779Y7198D03*
X13464Y7198D03*
X13149Y7198D03*
X12834Y7198D03*
X12519Y7198D03*
X12204Y7198D03*
X14094Y7198D03*
X14409Y7198D03*
X14724Y7198D03*
X15039Y7198D03*
X15354Y7198D03*
G54D31*
X11529Y9448D03*
X16029Y9448D03*
X11529Y9133D03*
X16029Y9133D03*
X16029Y8818D03*
X11529Y8818D03*
X11529Y8503D03*
X16029Y8503D03*
X16029Y8188D03*
X11529Y8188D03*
X11529Y7873D03*
X16029Y7873D03*
X16029Y9763D03*
X11529Y9763D03*
X11529Y10078D03*
X16029Y10078D03*
X16029Y10393D03*
X11529Y10393D03*
X11529Y10708D03*
X16029Y10708D03*
X16029Y11023D03*
X11529Y11023D03*
G54D32*
X13169Y4803D03*
G54D33*
X13937Y4803D03*
G54D32*
X14704Y4803D03*
G54D34*
X20157Y4527D03*
G54D14*
X12701Y5826D03*
X12101Y5826D03*
G54D28*
X16653Y3479D03*
X16653Y4079D03*
X17204Y3479D03*
X17204Y4079D03*
G54D29*
X19332Y3635D03*
X19332Y5735D03*
X18832Y3635D03*
X18332Y3635D03*
X17832Y3635D03*
X18832Y5735D03*
X18332Y5735D03*
X17832Y5735D03*
G54D35*
X19527Y6771D03*
X19527Y8937D03*
X18622Y8937D03*
X18622Y6771D03*
G54D28*
X20314Y7347D03*
X20314Y6747D03*
X17874Y6747D03*
X17874Y7347D03*
G54D36*
X11820Y4222D03*
X12076Y4222D03*
X12332Y4222D03*
X12588Y4222D03*
X12588Y5147D03*
X12332Y5147D03*
X12076Y5147D03*
X11820Y5147D03*
G54D37*
X12519Y3622D03*
X12814Y3622D03*
X12224Y3622D03*
G54D38*
X11299Y4803D03*
X11299Y5098D03*
X11299Y4507D03*
X11299Y5393D03*
X11299Y5098D03*
X11299Y5688D03*
G54D39*
X17929Y12147D03*
X17929Y12647D03*
X17929Y13147D03*
X17929Y13647D03*
X17929Y14147D03*
X17929Y14647D03*
X17929Y15147D03*
X17929Y15647D03*
X15929Y15647D03*
X15929Y15147D03*
X15929Y14647D03*
X15929Y14147D03*
X15929Y13647D03*
X15929Y13147D03*
X15929Y12647D03*
X15929Y12147D03*
G54D24*
X4960Y7997D03*
G54D25*
X2460Y8897D03*
G54D24*
X4960Y9797D03*
G54D26*
X4960Y8897D03*
G54D40*
X18937Y15177D03*
X18937Y14744D03*
X18937Y14311D03*
X18937Y13877D03*
X18937Y13444D03*
X18937Y13011D03*
X18937Y12578D03*
X18937Y12145D03*
G54D41*
X19913Y11692D03*
G54D42*
X19616Y15816D03*
G54D43*
X20108Y15905D03*
G54D44*
X20492Y15541D03*
G54D12*
X10618Y6637D03*
G54D13*
X9618Y6637D03*
X10618Y7637D03*
X9618Y7637D03*
X10618Y8637D03*
X9618Y8637D03*
G54D27*
X6358Y8779D03*
X7421Y8779D03*
G54D14*
X17652Y11141D03*
X18252Y11141D03*
G54D13*
X5708Y12649D03*
X5708Y13649D03*
X4921Y13649D03*
X4921Y12649D03*
G54D45*
X3858Y10787D03*
X3858Y15511D03*
G54D46*
X6220Y4370D03*
X7716Y4370D03*
M02*
