G04 (created by PCBNEW (2013-mar-13)-testing) date R 28 juuni 2013 13:42:34 EEST*
%MOIN*%
G04 Gerber Fmt 3.4, Leading zero omitted, Abs format*
%FSLAX34Y34*%
G01*
G70*
G90*
G04 APERTURE LIST*
%ADD10C,0.005906*%
%ADD11R,0.025000X0.045000*%
%ADD12R,0.080000X0.060000*%
%ADD13R,0.060000X0.080000*%
%ADD14R,0.053150X0.015748*%
%ADD15R,0.070866X0.070866*%
%ADD16R,0.090551X0.019685*%
%ADD17R,0.098425X0.078740*%
%ADD18R,0.120000X0.065000*%
%ADD19R,0.240000X0.240000*%
%ADD20R,0.078740X0.043307*%
%ADD21R,0.068898X0.088583*%
%ADD22R,0.045000X0.025000*%
%ADD23R,0.023600X0.055100*%
%ADD24R,0.016000X0.060000*%
%ADD25R,0.060000X0.016000*%
%ADD26R,0.031496X0.200787*%
%ADD27R,0.051181X0.200787*%
%ADD28R,0.062992X0.027559*%
%ADD29R,0.016535X0.051181*%
%ADD30R,0.019685X0.039370*%
%ADD31R,0.039370X0.019685*%
%ADD32R,0.045000X0.020000*%
%ADD33R,0.049213X0.023622*%
%ADD34R,0.149213X0.047244*%
%ADD35R,0.055118X0.057087*%
%ADD36R,0.023622X0.039370*%
%ADD37R,0.033465X0.037402*%
%ADD38R,0.063000X0.086600*%
G04 APERTURE END LIST*
G54D10*
G54D11*
X7062Y13346D03*
X7662Y13346D03*
X7662Y12795D03*
X7062Y12795D03*
G54D12*
X7362Y12146D03*
X7362Y10846D03*
G54D13*
X6279Y6023D03*
X7579Y6023D03*
G54D14*
X2698Y13700D03*
X2698Y13444D03*
X2698Y13188D03*
X2698Y12933D03*
X2698Y12677D03*
G54D15*
X1653Y12736D03*
X1653Y13641D03*
G54D16*
X3811Y13818D03*
X3811Y13503D03*
X3811Y13188D03*
X3811Y12874D03*
X3811Y12559D03*
G54D17*
X3811Y11437D03*
X3811Y14940D03*
X1645Y14940D03*
X1645Y11437D03*
G54D18*
X4960Y5241D03*
G54D19*
X2460Y6141D03*
G54D18*
X4960Y7041D03*
G54D20*
X4960Y6141D03*
G54D21*
X6358Y7480D03*
X7421Y7480D03*
G54D11*
X14818Y12401D03*
X15418Y12401D03*
G54D22*
X12204Y12898D03*
X12204Y12298D03*
X10866Y11599D03*
X10866Y10999D03*
G54D11*
X13174Y6417D03*
X12574Y6417D03*
G54D22*
X16732Y7574D03*
X16732Y8174D03*
G54D11*
X8607Y10787D03*
X8007Y10787D03*
X9030Y10787D03*
X9630Y10787D03*
X9030Y9448D03*
X9630Y9448D03*
X9030Y10039D03*
X9630Y10039D03*
G54D22*
X7086Y14936D03*
X7086Y15536D03*
G54D11*
X10762Y1850D03*
X11362Y1850D03*
G54D22*
X12204Y13322D03*
X12204Y13922D03*
G54D11*
X16707Y11141D03*
X17307Y11141D03*
X8607Y9448D03*
X8007Y9448D03*
X8607Y10039D03*
X8007Y10039D03*
G54D22*
X7795Y15536D03*
X7795Y14936D03*
G54D11*
X10339Y1850D03*
X9739Y1850D03*
G54D23*
X12832Y14829D03*
X12832Y12729D03*
X13332Y14829D03*
X13832Y14829D03*
X14332Y14829D03*
X13332Y12729D03*
X13832Y12729D03*
X14332Y12729D03*
G54D24*
X13779Y11698D03*
X13464Y11698D03*
X13149Y11698D03*
X12834Y11698D03*
X12519Y11698D03*
X12204Y11698D03*
X14094Y11698D03*
X14409Y11698D03*
X14724Y11698D03*
X15039Y11698D03*
X15354Y11698D03*
X13779Y7198D03*
X13464Y7198D03*
X13149Y7198D03*
X12834Y7198D03*
X12519Y7198D03*
X12204Y7198D03*
X14094Y7198D03*
X14409Y7198D03*
X14724Y7198D03*
X15039Y7198D03*
X15354Y7198D03*
G54D25*
X11529Y9448D03*
X16029Y9448D03*
X11529Y9133D03*
X16029Y9133D03*
X16029Y8818D03*
X11529Y8818D03*
X11529Y8503D03*
X16029Y8503D03*
X16029Y8188D03*
X11529Y8188D03*
X11529Y7873D03*
X16029Y7873D03*
X16029Y9763D03*
X11529Y9763D03*
X11529Y10078D03*
X16029Y10078D03*
X16029Y10393D03*
X11529Y10393D03*
X11529Y10708D03*
X16029Y10708D03*
X16029Y11023D03*
X11529Y11023D03*
G54D26*
X13169Y4803D03*
G54D27*
X13937Y4803D03*
G54D26*
X14704Y4803D03*
G54D11*
X12701Y5826D03*
X12101Y5826D03*
G54D22*
X16653Y3479D03*
X16653Y4079D03*
X17204Y3479D03*
X17204Y4079D03*
G54D23*
X19332Y3635D03*
X19332Y5735D03*
X18832Y3635D03*
X18332Y3635D03*
X17832Y3635D03*
X18832Y5735D03*
X18332Y5735D03*
X17832Y5735D03*
G54D28*
X19527Y6771D03*
X19527Y8937D03*
X18622Y8937D03*
X18622Y6771D03*
G54D22*
X20314Y7347D03*
X20314Y6747D03*
X17874Y6747D03*
X17874Y7347D03*
G54D29*
X11820Y4222D03*
X12076Y4222D03*
X12332Y4222D03*
X12588Y4222D03*
X12588Y5147D03*
X12332Y5147D03*
X12076Y5147D03*
X11820Y5147D03*
G54D30*
X12519Y3622D03*
X12814Y3622D03*
X12224Y3622D03*
G54D31*
X11299Y4803D03*
X11299Y5098D03*
X11299Y4507D03*
X11299Y5393D03*
X11299Y5098D03*
X11299Y5688D03*
G54D32*
X17929Y12147D03*
X17929Y12647D03*
X17929Y13147D03*
X17929Y13647D03*
X17929Y14147D03*
X17929Y14647D03*
X17929Y15147D03*
X17929Y15647D03*
X15929Y15647D03*
X15929Y15147D03*
X15929Y14647D03*
X15929Y14147D03*
X15929Y13647D03*
X15929Y13147D03*
X15929Y12647D03*
X15929Y12147D03*
G54D18*
X4960Y7997D03*
G54D19*
X2460Y8897D03*
G54D18*
X4960Y9797D03*
G54D20*
X4960Y8897D03*
G54D33*
X18937Y15177D03*
X18937Y14744D03*
X18937Y14311D03*
X18937Y13877D03*
X18937Y13444D03*
X18937Y13011D03*
X18937Y12578D03*
X18937Y12145D03*
G54D34*
X19913Y11692D03*
G54D35*
X19616Y15816D03*
G54D36*
X20108Y15905D03*
G54D37*
X20492Y15541D03*
G54D21*
X6358Y8779D03*
X7421Y8779D03*
G54D11*
X17652Y11141D03*
X18252Y11141D03*
G54D38*
X6220Y4370D03*
X7716Y4370D03*
M02*
