G04 (created by PCBNEW (2013-mar-13)-testing) date R 28 juuni 2013 13:42:34 EEST*
%MOIN*%
G04 Gerber Fmt 3.4, Leading zero omitted, Abs format*
%FSLAX34Y34*%
G01*
G70*
G90*
G04 APERTURE LIST*
%ADD10C,0.005906*%
%ADD11C,0.009843*%
%ADD12C,0.012000*%
%ADD13C,0.005000*%
%ADD14C,0.008000*%
%ADD15C,0.004500*%
%ADD16C,0.006000*%
%ADD17C,0.004700*%
G04 APERTURE END LIST*
G54D10*
G54D11*
X11814Y17088D02*
X12208Y17220D01*
X11814Y17351D01*
X12208Y17482D02*
X11814Y17482D01*
X11814Y17745D02*
X11814Y17820D01*
X11833Y17857D01*
X11870Y17895D01*
X11945Y17913D01*
X12076Y17913D01*
X12151Y17895D01*
X12189Y17857D01*
X12208Y17820D01*
X12208Y17745D01*
X12189Y17707D01*
X12151Y17670D01*
X12076Y17651D01*
X11945Y17651D01*
X11870Y17670D01*
X11833Y17707D01*
X11814Y17745D01*
X11833Y18588D02*
X11814Y18551D01*
X11814Y18495D01*
X11833Y18438D01*
X11870Y18401D01*
X11908Y18382D01*
X11983Y18363D01*
X12039Y18363D01*
X12114Y18382D01*
X12151Y18401D01*
X12189Y18438D01*
X12208Y18495D01*
X12208Y18532D01*
X12189Y18588D01*
X12170Y18607D01*
X12039Y18607D01*
X12039Y18532D01*
X12208Y18776D02*
X11814Y18776D01*
X12208Y19001D01*
X11814Y19001D01*
X12208Y19188D02*
X11814Y19188D01*
X11814Y19282D01*
X11833Y19338D01*
X11870Y19376D01*
X11908Y19394D01*
X11983Y19413D01*
X12039Y19413D01*
X12114Y19394D01*
X12151Y19376D01*
X12189Y19338D01*
X12208Y19282D01*
X12208Y19188D01*
X13633Y2470D02*
X13614Y2432D01*
X13614Y2376D01*
X13633Y2320D01*
X13670Y2282D01*
X13708Y2263D01*
X13783Y2245D01*
X13839Y2245D01*
X13914Y2263D01*
X13951Y2282D01*
X13989Y2320D01*
X14008Y2376D01*
X14008Y2413D01*
X13989Y2470D01*
X13970Y2488D01*
X13839Y2488D01*
X13839Y2413D01*
X14008Y2657D02*
X13614Y2657D01*
X14008Y2882D01*
X13614Y2882D01*
X14008Y3070D02*
X13614Y3070D01*
X13614Y3163D01*
X13633Y3220D01*
X13670Y3257D01*
X13708Y3276D01*
X13783Y3295D01*
X13839Y3295D01*
X13914Y3276D01*
X13951Y3257D01*
X13989Y3220D01*
X14008Y3163D01*
X14008Y3070D01*
X13614Y1192D02*
X14008Y1323D01*
X13614Y1454D01*
X13895Y1566D02*
X13895Y1754D01*
X14008Y1529D02*
X13614Y1660D01*
X14008Y1791D01*
X13745Y1923D02*
X14008Y1923D01*
X13783Y1923D02*
X13764Y1941D01*
X13745Y1979D01*
X13745Y2035D01*
X13764Y2073D01*
X13801Y2091D01*
X14008Y2091D01*
X10308Y10132D02*
X10120Y10001D01*
X10308Y9907D02*
X9914Y9907D01*
X9914Y10057D01*
X9933Y10095D01*
X9951Y10113D01*
X9989Y10132D01*
X10045Y10132D01*
X10083Y10113D01*
X10101Y10095D01*
X10120Y10057D01*
X10120Y9907D01*
X10308Y10263D02*
X10045Y10470D01*
X10045Y10263D02*
X10308Y10470D01*
X9914Y9298D02*
X9914Y9523D01*
X10308Y9410D02*
X9914Y9410D01*
X10308Y9616D02*
X10045Y9823D01*
X10045Y9616D02*
X10308Y9823D01*
X8608Y15391D02*
X8608Y15204D01*
X8214Y15204D01*
X11695Y13398D02*
X11695Y13585D01*
X11808Y13360D02*
X11414Y13492D01*
X11808Y13623D01*
X11808Y13979D02*
X11620Y13848D01*
X11808Y13754D02*
X11414Y13754D01*
X11414Y13904D01*
X11433Y13941D01*
X11451Y13960D01*
X11489Y13979D01*
X11545Y13979D01*
X11583Y13960D01*
X11601Y13941D01*
X11620Y13904D01*
X11620Y13754D01*
X11789Y14298D02*
X11808Y14260D01*
X11808Y14185D01*
X11789Y14148D01*
X11751Y14129D01*
X11601Y14129D01*
X11564Y14148D01*
X11545Y14185D01*
X11545Y14260D01*
X11564Y14298D01*
X11601Y14316D01*
X11639Y14316D01*
X11676Y14129D01*
X11545Y14429D02*
X11545Y14579D01*
X11808Y14485D02*
X11470Y14485D01*
X11433Y14504D01*
X11414Y14541D01*
X11414Y14579D01*
X10286Y2785D02*
X10361Y2785D01*
X10398Y2766D01*
X10436Y2729D01*
X10454Y2654D01*
X10454Y2523D01*
X10436Y2448D01*
X10398Y2410D01*
X10361Y2391D01*
X10286Y2391D01*
X10248Y2410D01*
X10211Y2448D01*
X10192Y2523D01*
X10192Y2654D01*
X10211Y2729D01*
X10248Y2766D01*
X10286Y2785D01*
X10623Y2391D02*
X10623Y2785D01*
X10848Y2391D01*
X10848Y2785D01*
X9008Y7188D02*
X8614Y7188D01*
X8970Y7601D02*
X8989Y7582D01*
X9008Y7526D01*
X9008Y7488D01*
X8989Y7432D01*
X8951Y7395D01*
X8914Y7376D01*
X8839Y7357D01*
X8783Y7357D01*
X8708Y7376D01*
X8670Y7395D01*
X8633Y7432D01*
X8614Y7488D01*
X8614Y7526D01*
X8633Y7582D01*
X8651Y7601D01*
X8989Y7751D02*
X9008Y7807D01*
X9008Y7901D01*
X8989Y7938D01*
X8970Y7957D01*
X8933Y7976D01*
X8895Y7976D01*
X8858Y7957D01*
X8839Y7938D01*
X8820Y7901D01*
X8801Y7826D01*
X8783Y7788D01*
X8764Y7770D01*
X8726Y7751D01*
X8689Y7751D01*
X8651Y7770D01*
X8633Y7788D01*
X8614Y7826D01*
X8614Y7920D01*
X8633Y7976D01*
X9008Y8145D02*
X8614Y8145D01*
X8614Y8295D01*
X8633Y8332D01*
X8651Y8351D01*
X8689Y8370D01*
X8745Y8370D01*
X8783Y8351D01*
X8801Y8332D01*
X8820Y8295D01*
X8820Y8145D01*
X10514Y4154D02*
X10908Y4248D01*
X10626Y4323D01*
X10908Y4398D01*
X10514Y4491D01*
X10514Y4585D02*
X10514Y4810D01*
X10908Y4698D02*
X10514Y4698D01*
X10908Y4941D02*
X10514Y4941D01*
X10514Y5035D01*
X10533Y5091D01*
X10570Y5129D01*
X10608Y5148D01*
X10683Y5166D01*
X10739Y5166D01*
X10814Y5148D01*
X10851Y5129D01*
X10889Y5091D01*
X10908Y5035D01*
X10908Y4941D01*
X17308Y4645D02*
X17120Y4513D01*
X17308Y4420D02*
X16914Y4420D01*
X16914Y4570D01*
X16933Y4607D01*
X16951Y4626D01*
X16989Y4645D01*
X17045Y4645D01*
X17083Y4626D01*
X17101Y4607D01*
X17120Y4570D01*
X17120Y4420D01*
X16914Y4757D02*
X16914Y4982D01*
X17308Y4870D02*
X16914Y4870D01*
X17270Y5338D02*
X17289Y5320D01*
X17308Y5263D01*
X17308Y5226D01*
X17289Y5170D01*
X17251Y5132D01*
X17214Y5113D01*
X17139Y5095D01*
X17083Y5095D01*
X17008Y5113D01*
X16970Y5132D01*
X16933Y5170D01*
X16914Y5226D01*
X16914Y5263D01*
X16933Y5320D01*
X16951Y5338D01*
G54D10*
X10053Y1185D02*
X10303Y935D01*
X10303Y935D02*
X10553Y1185D01*
X10553Y1185D02*
X11053Y1185D01*
X11053Y1185D02*
X11303Y935D01*
X11303Y935D02*
X11553Y1185D01*
X11553Y1185D02*
X12053Y1185D01*
X12053Y1185D02*
X12303Y935D01*
X12303Y935D02*
X12553Y1185D01*
X12553Y1185D02*
X13053Y1185D01*
X13053Y1185D02*
X13303Y935D01*
X13303Y935D02*
X13303Y435D01*
X13303Y435D02*
X13053Y185D01*
X13053Y185D02*
X12553Y185D01*
X12553Y185D02*
X12303Y435D01*
X12303Y435D02*
X12053Y185D01*
X12053Y185D02*
X11553Y185D01*
X11553Y185D02*
X11303Y435D01*
X11303Y435D02*
X11053Y185D01*
X11053Y185D02*
X10553Y185D01*
X10553Y185D02*
X10303Y435D01*
X10303Y435D02*
X10053Y185D01*
X10053Y185D02*
X9553Y185D01*
X9553Y185D02*
X9303Y435D01*
X9303Y435D02*
X9053Y185D01*
X9053Y185D02*
X8553Y185D01*
X8553Y185D02*
X8303Y435D01*
X8303Y435D02*
X8053Y185D01*
X8053Y185D02*
X7553Y185D01*
X7553Y185D02*
X7303Y435D01*
X7303Y435D02*
X7053Y185D01*
X7053Y185D02*
X6553Y185D01*
X6553Y185D02*
X6303Y435D01*
X6303Y435D02*
X6053Y185D01*
X6053Y185D02*
X5553Y185D01*
X5553Y185D02*
X5303Y435D01*
X5303Y435D02*
X5303Y685D01*
X5303Y685D02*
X5303Y935D01*
X5303Y935D02*
X5553Y1185D01*
X5553Y1185D02*
X6053Y1185D01*
X6053Y1185D02*
X6303Y935D01*
X6303Y935D02*
X6553Y1185D01*
X6553Y1185D02*
X7053Y1185D01*
X7053Y1185D02*
X7303Y935D01*
X7303Y935D02*
X7553Y1185D01*
X7553Y1185D02*
X8053Y1185D01*
X8053Y1185D02*
X8303Y935D01*
X8303Y935D02*
X8553Y1185D01*
X8553Y1185D02*
X9053Y1185D01*
X9053Y1185D02*
X9303Y935D01*
X9303Y935D02*
X9553Y1185D01*
X9553Y1185D02*
X10053Y1185D01*
X17053Y19185D02*
X17303Y18935D01*
X17303Y18935D02*
X17553Y19185D01*
X17553Y19185D02*
X18053Y19185D01*
X18053Y19185D02*
X18303Y18935D01*
X18303Y18935D02*
X18553Y19185D01*
X18553Y19185D02*
X19053Y19185D01*
X19053Y19185D02*
X19303Y18935D01*
X19303Y18935D02*
X19553Y19185D01*
X19553Y19185D02*
X20053Y19185D01*
X20053Y19185D02*
X20303Y18935D01*
X20303Y18935D02*
X20303Y18435D01*
X20303Y18435D02*
X20053Y18185D01*
X20053Y18185D02*
X19553Y18185D01*
X19553Y18185D02*
X19303Y18435D01*
X19303Y18435D02*
X19053Y18185D01*
X19053Y18185D02*
X18553Y18185D01*
X18553Y18185D02*
X18303Y18435D01*
X18303Y18435D02*
X18053Y18185D01*
X18053Y18185D02*
X17553Y18185D01*
X17553Y18185D02*
X17303Y18435D01*
X17303Y18435D02*
X17053Y18185D01*
X17053Y18185D02*
X16553Y18185D01*
X16553Y18185D02*
X16303Y18435D01*
X16303Y18435D02*
X16053Y18185D01*
X16053Y18185D02*
X15553Y18185D01*
X15553Y18185D02*
X15303Y18435D01*
X15303Y18435D02*
X15053Y18185D01*
X15053Y18185D02*
X14553Y18185D01*
X14553Y18185D02*
X14303Y18435D01*
X14303Y18435D02*
X14053Y18185D01*
X14053Y18185D02*
X13553Y18185D01*
X13553Y18185D02*
X13303Y18435D01*
X13303Y18435D02*
X13053Y18185D01*
X13053Y18185D02*
X12553Y18185D01*
X12553Y18185D02*
X12303Y18435D01*
X12303Y18435D02*
X12303Y18685D01*
X12303Y18685D02*
X12303Y18935D01*
X12303Y18935D02*
X12553Y19185D01*
X12553Y19185D02*
X13053Y19185D01*
X13053Y19185D02*
X13303Y18935D01*
X13303Y18935D02*
X13553Y19185D01*
X13553Y19185D02*
X14053Y19185D01*
X14053Y19185D02*
X14303Y18935D01*
X14303Y18935D02*
X14553Y19185D01*
X14553Y19185D02*
X15053Y19185D01*
X15053Y19185D02*
X15303Y18935D01*
X15303Y18935D02*
X15553Y19185D01*
X15553Y19185D02*
X16053Y19185D01*
X16053Y19185D02*
X16303Y18935D01*
X16303Y18935D02*
X16553Y19185D01*
X16553Y19185D02*
X17053Y19185D01*
G54D12*
X14303Y185D02*
X14303Y1185D01*
X14303Y1185D02*
X20303Y1185D01*
X20303Y1185D02*
X20303Y185D01*
X20303Y185D02*
X14303Y185D01*
X15303Y185D02*
X15303Y1185D01*
G54D10*
X9703Y18935D02*
X9953Y19185D01*
X9953Y19185D02*
X10453Y19185D01*
X10453Y19185D02*
X10703Y18935D01*
X10703Y18935D02*
X10953Y19185D01*
X10953Y19185D02*
X11453Y19185D01*
X11453Y19185D02*
X11703Y18935D01*
X11703Y18935D02*
X11703Y18435D01*
X11703Y18435D02*
X11453Y18185D01*
X11453Y18185D02*
X10953Y18185D01*
X10953Y18185D02*
X10703Y18435D01*
X10703Y18435D02*
X10453Y18185D01*
X10453Y18185D02*
X9953Y18185D01*
X9953Y18185D02*
X9703Y18435D01*
X2703Y18885D02*
X2703Y18485D01*
X6453Y19185D02*
X6703Y18935D01*
X6703Y18935D02*
X6953Y19185D01*
X6953Y19185D02*
X7453Y19185D01*
X7453Y19185D02*
X7703Y18935D01*
X7703Y18935D02*
X7953Y19185D01*
X7953Y19185D02*
X8453Y19185D01*
X8453Y19185D02*
X8703Y18935D01*
X8703Y18935D02*
X8953Y19185D01*
X8953Y19185D02*
X9453Y19185D01*
X9453Y19185D02*
X9703Y18935D01*
X9703Y18435D02*
X9453Y18185D01*
X9453Y18185D02*
X8953Y18185D01*
X8953Y18185D02*
X8703Y18435D01*
X8703Y18435D02*
X8453Y18185D01*
X8453Y18185D02*
X7953Y18185D01*
X7953Y18185D02*
X7703Y18435D01*
X7703Y18435D02*
X7453Y18185D01*
X7453Y18185D02*
X6953Y18185D01*
X6953Y18185D02*
X6703Y18435D01*
X6703Y18435D02*
X6453Y18185D01*
X6453Y18185D02*
X5953Y18185D01*
X5953Y18185D02*
X5703Y18435D01*
X5703Y18435D02*
X5453Y18185D01*
X5453Y18185D02*
X4953Y18185D01*
X4953Y18185D02*
X4703Y18435D01*
X4703Y18435D02*
X4453Y18185D01*
X4453Y18185D02*
X3953Y18185D01*
X3953Y18185D02*
X3703Y18435D01*
X3703Y18435D02*
X3453Y18185D01*
X3453Y18185D02*
X2953Y18185D01*
X2953Y18185D02*
X2703Y18435D01*
X2703Y18435D02*
X2453Y18185D01*
X2453Y18185D02*
X1953Y18185D01*
X1953Y18185D02*
X1703Y18435D01*
X1703Y18435D02*
X1703Y18685D01*
X1703Y18685D02*
X1703Y18935D01*
X1703Y18935D02*
X1953Y19185D01*
X1953Y19185D02*
X2453Y19185D01*
X2453Y19185D02*
X2703Y18935D01*
X2703Y18935D02*
X2953Y19185D01*
X2953Y19185D02*
X3453Y19185D01*
X3453Y19185D02*
X3703Y18935D01*
X3703Y18935D02*
X3953Y19185D01*
X3953Y19185D02*
X4453Y19185D01*
X4453Y19185D02*
X4703Y18935D01*
X4703Y18935D02*
X4953Y19185D01*
X4953Y19185D02*
X5453Y19185D01*
X5453Y19185D02*
X5703Y18935D01*
X5703Y18935D02*
X5953Y19185D01*
X5953Y19185D02*
X6453Y19185D01*
X7047Y13503D02*
X7677Y13503D01*
X7677Y13503D02*
X7677Y13188D01*
X7677Y13188D02*
X7047Y13188D01*
X7047Y13188D02*
X7047Y13503D01*
X7677Y12637D02*
X7047Y12637D01*
X7047Y12637D02*
X7047Y12952D01*
X7047Y12952D02*
X7677Y12952D01*
X7677Y12952D02*
X7677Y12637D01*
X13299Y17877D02*
X13299Y17477D01*
X17049Y18177D02*
X17299Y17927D01*
X17299Y17927D02*
X17549Y18177D01*
X17549Y18177D02*
X18049Y18177D01*
X18049Y18177D02*
X18299Y17927D01*
X18299Y17927D02*
X18549Y18177D01*
X18549Y18177D02*
X19049Y18177D01*
X19049Y18177D02*
X19299Y17927D01*
X19299Y17927D02*
X19549Y18177D01*
X19549Y18177D02*
X20049Y18177D01*
X20049Y18177D02*
X20299Y17927D01*
X20299Y17927D02*
X20299Y17427D01*
X20299Y17427D02*
X20049Y17177D01*
X20049Y17177D02*
X19549Y17177D01*
X19549Y17177D02*
X19299Y17427D01*
X19299Y17427D02*
X19049Y17177D01*
X19049Y17177D02*
X18549Y17177D01*
X18549Y17177D02*
X18299Y17427D01*
X18299Y17427D02*
X18049Y17177D01*
X18049Y17177D02*
X17549Y17177D01*
X17549Y17177D02*
X17299Y17427D01*
X17299Y17427D02*
X17049Y17177D01*
X17049Y17177D02*
X16549Y17177D01*
X16549Y17177D02*
X16299Y17427D01*
X16299Y17427D02*
X16049Y17177D01*
X16049Y17177D02*
X15549Y17177D01*
X15549Y17177D02*
X15299Y17427D01*
X15299Y17427D02*
X15049Y17177D01*
X15049Y17177D02*
X14549Y17177D01*
X14549Y17177D02*
X14299Y17427D01*
X14299Y17427D02*
X14049Y17177D01*
X14049Y17177D02*
X13549Y17177D01*
X13549Y17177D02*
X13299Y17427D01*
X13299Y17427D02*
X13049Y17177D01*
X13049Y17177D02*
X12549Y17177D01*
X12549Y17177D02*
X12299Y17427D01*
X12299Y17427D02*
X12299Y17677D01*
X12299Y17677D02*
X12299Y17927D01*
X12299Y17927D02*
X12549Y18177D01*
X12549Y18177D02*
X13049Y18177D01*
X13049Y18177D02*
X13299Y17927D01*
X13299Y17927D02*
X13549Y18177D01*
X13549Y18177D02*
X14049Y18177D01*
X14049Y18177D02*
X14299Y17927D01*
X14299Y17927D02*
X14549Y18177D01*
X14549Y18177D02*
X15049Y18177D01*
X15049Y18177D02*
X15299Y17927D01*
X15299Y17927D02*
X15549Y18177D01*
X15549Y18177D02*
X16049Y18177D01*
X16049Y18177D02*
X16299Y17927D01*
X16299Y17927D02*
X16549Y18177D01*
X16549Y18177D02*
X17049Y18177D01*
X13299Y16873D02*
X13299Y16473D01*
X17049Y17173D02*
X17299Y16923D01*
X17299Y16923D02*
X17549Y17173D01*
X17549Y17173D02*
X18049Y17173D01*
X18049Y17173D02*
X18299Y16923D01*
X18299Y16923D02*
X18549Y17173D01*
X18549Y17173D02*
X19049Y17173D01*
X19049Y17173D02*
X19299Y16923D01*
X19299Y16923D02*
X19549Y17173D01*
X19549Y17173D02*
X20049Y17173D01*
X20049Y17173D02*
X20299Y16923D01*
X20299Y16923D02*
X20299Y16423D01*
X20299Y16423D02*
X20049Y16173D01*
X20049Y16173D02*
X19549Y16173D01*
X19549Y16173D02*
X19299Y16423D01*
X19299Y16423D02*
X19049Y16173D01*
X19049Y16173D02*
X18549Y16173D01*
X18549Y16173D02*
X18299Y16423D01*
X18299Y16423D02*
X18049Y16173D01*
X18049Y16173D02*
X17549Y16173D01*
X17549Y16173D02*
X17299Y16423D01*
X17299Y16423D02*
X17049Y16173D01*
X17049Y16173D02*
X16549Y16173D01*
X16549Y16173D02*
X16299Y16423D01*
X16299Y16423D02*
X16049Y16173D01*
X16049Y16173D02*
X15549Y16173D01*
X15549Y16173D02*
X15299Y16423D01*
X15299Y16423D02*
X15049Y16173D01*
X15049Y16173D02*
X14549Y16173D01*
X14549Y16173D02*
X14299Y16423D01*
X14299Y16423D02*
X14049Y16173D01*
X14049Y16173D02*
X13549Y16173D01*
X13549Y16173D02*
X13299Y16423D01*
X13299Y16423D02*
X13049Y16173D01*
X13049Y16173D02*
X12549Y16173D01*
X12549Y16173D02*
X12299Y16423D01*
X12299Y16423D02*
X12299Y16673D01*
X12299Y16673D02*
X12299Y16923D01*
X12299Y16923D02*
X12549Y17173D01*
X12549Y17173D02*
X13049Y17173D01*
X13049Y17173D02*
X13299Y16923D01*
X13299Y16923D02*
X13549Y17173D01*
X13549Y17173D02*
X14049Y17173D01*
X14049Y17173D02*
X14299Y16923D01*
X14299Y16923D02*
X14549Y17173D01*
X14549Y17173D02*
X15049Y17173D01*
X15049Y17173D02*
X15299Y16923D01*
X15299Y16923D02*
X15549Y17173D01*
X15549Y17173D02*
X16049Y17173D01*
X16049Y17173D02*
X16299Y16923D01*
X16299Y16923D02*
X16549Y17173D01*
X16549Y17173D02*
X17049Y17173D01*
G54D12*
X14283Y1173D02*
X14283Y2173D01*
X14283Y2173D02*
X20283Y2173D01*
X20283Y2173D02*
X20283Y1173D01*
X20283Y1173D02*
X14283Y1173D01*
X15283Y1173D02*
X15283Y2173D01*
X14303Y2177D02*
X14303Y3177D01*
X14303Y3177D02*
X20303Y3177D01*
X20303Y3177D02*
X20303Y2177D01*
X20303Y2177D02*
X14303Y2177D01*
X15303Y2177D02*
X15303Y3177D01*
G54D10*
X9732Y17927D02*
X9982Y18177D01*
X9982Y18177D02*
X10482Y18177D01*
X10482Y18177D02*
X10732Y17927D01*
X10732Y17927D02*
X10982Y18177D01*
X10982Y18177D02*
X11482Y18177D01*
X11482Y18177D02*
X11732Y17927D01*
X11732Y17927D02*
X11732Y17427D01*
X11732Y17427D02*
X11482Y17177D01*
X11482Y17177D02*
X10982Y17177D01*
X10982Y17177D02*
X10732Y17427D01*
X10732Y17427D02*
X10482Y17177D01*
X10482Y17177D02*
X9982Y17177D01*
X9982Y17177D02*
X9732Y17427D01*
X2732Y17877D02*
X2732Y17477D01*
X6482Y18177D02*
X6732Y17927D01*
X6732Y17927D02*
X6982Y18177D01*
X6982Y18177D02*
X7482Y18177D01*
X7482Y18177D02*
X7732Y17927D01*
X7732Y17927D02*
X7982Y18177D01*
X7982Y18177D02*
X8482Y18177D01*
X8482Y18177D02*
X8732Y17927D01*
X8732Y17927D02*
X8982Y18177D01*
X8982Y18177D02*
X9482Y18177D01*
X9482Y18177D02*
X9732Y17927D01*
X9732Y17427D02*
X9482Y17177D01*
X9482Y17177D02*
X8982Y17177D01*
X8982Y17177D02*
X8732Y17427D01*
X8732Y17427D02*
X8482Y17177D01*
X8482Y17177D02*
X7982Y17177D01*
X7982Y17177D02*
X7732Y17427D01*
X7732Y17427D02*
X7482Y17177D01*
X7482Y17177D02*
X6982Y17177D01*
X6982Y17177D02*
X6732Y17427D01*
X6732Y17427D02*
X6482Y17177D01*
X6482Y17177D02*
X5982Y17177D01*
X5982Y17177D02*
X5732Y17427D01*
X5732Y17427D02*
X5482Y17177D01*
X5482Y17177D02*
X4982Y17177D01*
X4982Y17177D02*
X4732Y17427D01*
X4732Y17427D02*
X4482Y17177D01*
X4482Y17177D02*
X3982Y17177D01*
X3982Y17177D02*
X3732Y17427D01*
X3732Y17427D02*
X3482Y17177D01*
X3482Y17177D02*
X2982Y17177D01*
X2982Y17177D02*
X2732Y17427D01*
X2732Y17427D02*
X2482Y17177D01*
X2482Y17177D02*
X1982Y17177D01*
X1982Y17177D02*
X1732Y17427D01*
X1732Y17427D02*
X1732Y17677D01*
X1732Y17677D02*
X1732Y17927D01*
X1732Y17927D02*
X1982Y18177D01*
X1982Y18177D02*
X2482Y18177D01*
X2482Y18177D02*
X2732Y17927D01*
X2732Y17927D02*
X2982Y18177D01*
X2982Y18177D02*
X3482Y18177D01*
X3482Y18177D02*
X3732Y17927D01*
X3732Y17927D02*
X3982Y18177D01*
X3982Y18177D02*
X4482Y18177D01*
X4482Y18177D02*
X4732Y17927D01*
X4732Y17927D02*
X4982Y18177D01*
X4982Y18177D02*
X5482Y18177D01*
X5482Y18177D02*
X5732Y17927D01*
X5732Y17927D02*
X5982Y18177D01*
X5982Y18177D02*
X6482Y18177D01*
X9732Y16923D02*
X9982Y17173D01*
X9982Y17173D02*
X10482Y17173D01*
X10482Y17173D02*
X10732Y16923D01*
X10732Y16923D02*
X10982Y17173D01*
X10982Y17173D02*
X11482Y17173D01*
X11482Y17173D02*
X11732Y16923D01*
X11732Y16923D02*
X11732Y16423D01*
X11732Y16423D02*
X11482Y16173D01*
X11482Y16173D02*
X10982Y16173D01*
X10982Y16173D02*
X10732Y16423D01*
X10732Y16423D02*
X10482Y16173D01*
X10482Y16173D02*
X9982Y16173D01*
X9982Y16173D02*
X9732Y16423D01*
X2732Y16873D02*
X2732Y16473D01*
X6482Y17173D02*
X6732Y16923D01*
X6732Y16923D02*
X6982Y17173D01*
X6982Y17173D02*
X7482Y17173D01*
X7482Y17173D02*
X7732Y16923D01*
X7732Y16923D02*
X7982Y17173D01*
X7982Y17173D02*
X8482Y17173D01*
X8482Y17173D02*
X8732Y16923D01*
X8732Y16923D02*
X8982Y17173D01*
X8982Y17173D02*
X9482Y17173D01*
X9482Y17173D02*
X9732Y16923D01*
X9732Y16423D02*
X9482Y16173D01*
X9482Y16173D02*
X8982Y16173D01*
X8982Y16173D02*
X8732Y16423D01*
X8732Y16423D02*
X8482Y16173D01*
X8482Y16173D02*
X7982Y16173D01*
X7982Y16173D02*
X7732Y16423D01*
X7732Y16423D02*
X7482Y16173D01*
X7482Y16173D02*
X6982Y16173D01*
X6982Y16173D02*
X6732Y16423D01*
X6732Y16423D02*
X6482Y16173D01*
X6482Y16173D02*
X5982Y16173D01*
X5982Y16173D02*
X5732Y16423D01*
X5732Y16423D02*
X5482Y16173D01*
X5482Y16173D02*
X4982Y16173D01*
X4982Y16173D02*
X4732Y16423D01*
X4732Y16423D02*
X4482Y16173D01*
X4482Y16173D02*
X3982Y16173D01*
X3982Y16173D02*
X3732Y16423D01*
X3732Y16423D02*
X3482Y16173D01*
X3482Y16173D02*
X2982Y16173D01*
X2982Y16173D02*
X2732Y16423D01*
X2732Y16423D02*
X2482Y16173D01*
X2482Y16173D02*
X1982Y16173D01*
X1982Y16173D02*
X1732Y16423D01*
X1732Y16423D02*
X1732Y16673D01*
X1732Y16673D02*
X1732Y16923D01*
X1732Y16923D02*
X1982Y17173D01*
X1982Y17173D02*
X2482Y17173D01*
X2482Y17173D02*
X2732Y16923D01*
X2732Y16923D02*
X2982Y17173D01*
X2982Y17173D02*
X3482Y17173D01*
X3482Y17173D02*
X3732Y16923D01*
X3732Y16923D02*
X3982Y17173D01*
X3982Y17173D02*
X4482Y17173D01*
X4482Y17173D02*
X4732Y16923D01*
X4732Y16923D02*
X4982Y17173D01*
X4982Y17173D02*
X5482Y17173D01*
X5482Y17173D02*
X5732Y16923D01*
X5732Y16923D02*
X5982Y17173D01*
X5982Y17173D02*
X6482Y17173D01*
G54D13*
X7812Y12496D02*
X6912Y12496D01*
X6912Y12496D02*
X6912Y11846D01*
X7812Y11146D02*
X7812Y10496D01*
X7812Y10496D02*
X6912Y10496D01*
X6912Y10496D02*
X6912Y11146D01*
X7812Y11846D02*
X7812Y12496D01*
X5929Y6473D02*
X5929Y5573D01*
X5929Y5573D02*
X6579Y5573D01*
X7279Y6473D02*
X7929Y6473D01*
X7929Y6473D02*
X7929Y5573D01*
X7929Y5573D02*
X7279Y5573D01*
X6579Y6473D02*
X5929Y6473D01*
G54D10*
X4114Y14704D02*
X4114Y11673D01*
X4114Y11673D02*
X492Y11692D01*
X492Y11692D02*
X492Y14704D01*
X492Y14704D02*
X4114Y14704D01*
X1062Y14370D02*
X1062Y12007D01*
X866Y14665D02*
X2913Y14665D01*
X2913Y14665D02*
X2913Y11712D01*
X2913Y11712D02*
X866Y11712D01*
X866Y11712D02*
X866Y14665D01*
X4330Y2952D02*
G75*
G03X3346Y3937I-984J0D01*
G74*
G01*
X3346Y1968D02*
G75*
G03X4330Y2952I0J984D01*
G74*
G01*
X3346Y3937D02*
X1181Y3937D01*
X1181Y1968D02*
X3346Y1968D01*
X1181Y1181D02*
X1181Y4724D01*
X-393Y1181D02*
X-393Y4724D01*
X-393Y4724D02*
X5511Y4724D01*
X5511Y4724D02*
X5511Y1181D01*
X5511Y1181D02*
X-393Y1181D01*
G54D13*
X4360Y6691D02*
X5610Y6691D01*
X5610Y6691D02*
X5610Y7391D01*
X5610Y7391D02*
X4360Y7391D01*
X4360Y4891D02*
X5610Y4891D01*
X5610Y4891D02*
X5610Y5591D01*
X5610Y5591D02*
X4360Y5591D01*
X1960Y7491D02*
X4360Y7491D01*
X4360Y7491D02*
X4360Y4791D01*
X4360Y4791D02*
X1260Y4791D01*
X1210Y4791D02*
X1210Y7491D01*
X1260Y7491D02*
X1960Y7491D01*
G54D10*
X6200Y8070D02*
X7578Y8070D01*
X7578Y8070D02*
X7578Y6889D01*
X7578Y6889D02*
X6200Y6889D01*
X6200Y6889D02*
X6200Y8070D01*
X14803Y12559D02*
X15433Y12559D01*
X15433Y12559D02*
X15433Y12244D01*
X15433Y12244D02*
X14803Y12244D01*
X14803Y12244D02*
X14803Y12559D01*
X12362Y12913D02*
X12362Y12283D01*
X12362Y12283D02*
X12047Y12283D01*
X12047Y12283D02*
X12047Y12913D01*
X12047Y12913D02*
X12362Y12913D01*
X11023Y11614D02*
X11023Y10984D01*
X11023Y10984D02*
X10708Y10984D01*
X10708Y10984D02*
X10708Y11614D01*
X10708Y11614D02*
X11023Y11614D01*
X13188Y6259D02*
X12559Y6259D01*
X12559Y6259D02*
X12559Y6574D01*
X12559Y6574D02*
X13188Y6574D01*
X13188Y6574D02*
X13188Y6259D01*
X16574Y7559D02*
X16574Y8188D01*
X16574Y8188D02*
X16889Y8188D01*
X16889Y8188D02*
X16889Y7559D01*
X16889Y7559D02*
X16574Y7559D01*
X8622Y10629D02*
X7992Y10629D01*
X7992Y10629D02*
X7992Y10944D01*
X7992Y10944D02*
X8622Y10944D01*
X8622Y10944D02*
X8622Y10629D01*
X9015Y10944D02*
X9645Y10944D01*
X9645Y10944D02*
X9645Y10629D01*
X9645Y10629D02*
X9015Y10629D01*
X9015Y10629D02*
X9015Y10944D01*
X9015Y9606D02*
X9645Y9606D01*
X9645Y9606D02*
X9645Y9291D01*
X9645Y9291D02*
X9015Y9291D01*
X9015Y9291D02*
X9015Y9606D01*
X9015Y10196D02*
X9645Y10196D01*
X9645Y10196D02*
X9645Y9881D01*
X9645Y9881D02*
X9015Y9881D01*
X9015Y9881D02*
X9015Y10196D01*
X6929Y14921D02*
X6929Y15551D01*
X6929Y15551D02*
X7244Y15551D01*
X7244Y15551D02*
X7244Y14921D01*
X7244Y14921D02*
X6929Y14921D01*
X10748Y2007D02*
X11377Y2007D01*
X11377Y2007D02*
X11377Y1692D01*
X11377Y1692D02*
X10748Y1692D01*
X10748Y1692D02*
X10748Y2007D01*
X12047Y13307D02*
X12047Y13937D01*
X12047Y13937D02*
X12362Y13937D01*
X12362Y13937D02*
X12362Y13307D01*
X12362Y13307D02*
X12047Y13307D01*
X16692Y11299D02*
X17322Y11299D01*
X17322Y11299D02*
X17322Y10984D01*
X17322Y10984D02*
X16692Y10984D01*
X16692Y10984D02*
X16692Y11299D01*
X8622Y9291D02*
X7992Y9291D01*
X7992Y9291D02*
X7992Y9606D01*
X7992Y9606D02*
X8622Y9606D01*
X8622Y9606D02*
X8622Y9291D01*
X8622Y9881D02*
X7992Y9881D01*
X7992Y9881D02*
X7992Y10196D01*
X7992Y10196D02*
X8622Y10196D01*
X8622Y10196D02*
X8622Y9881D01*
X7952Y15551D02*
X7952Y14921D01*
X7952Y14921D02*
X7637Y14921D01*
X7637Y14921D02*
X7637Y15551D01*
X7637Y15551D02*
X7952Y15551D01*
X10354Y1692D02*
X9724Y1692D01*
X9724Y1692D02*
X9724Y2007D01*
X9724Y2007D02*
X10354Y2007D01*
X10354Y2007D02*
X10354Y1692D01*
G54D13*
X12532Y13079D02*
X12532Y13029D01*
X12532Y13029D02*
X14632Y13029D01*
X14632Y14529D02*
X12532Y14529D01*
X12532Y14529D02*
X12532Y13079D01*
X12532Y13979D02*
X12732Y13979D01*
X12732Y13979D02*
X12732Y13579D01*
X12732Y13579D02*
X12532Y13579D01*
X14632Y14529D02*
X14632Y13029D01*
G54D12*
X15749Y11418D02*
X15749Y7478D01*
X15749Y7478D02*
X11809Y7478D01*
X11809Y11228D02*
X11809Y7478D01*
X11999Y11418D02*
X15749Y11418D01*
X11809Y11228D02*
X11999Y11418D01*
G54D14*
X12529Y10948D02*
G75*
G03X12529Y10948I-250J0D01*
G74*
G01*
G54D10*
X13307Y5590D02*
X13307Y4015D01*
X14566Y5590D02*
X14566Y4015D01*
X14094Y5590D02*
X14094Y4015D01*
X13779Y5590D02*
X13779Y4015D01*
X13031Y5590D02*
X14842Y5590D01*
X14842Y5590D02*
X14842Y4015D01*
X14842Y4015D02*
X13070Y4015D01*
X13070Y4015D02*
X13031Y4015D01*
X13031Y4015D02*
X13031Y5590D01*
X12716Y5669D02*
X12086Y5669D01*
X12086Y5669D02*
X12086Y5984D01*
X12086Y5984D02*
X12716Y5984D01*
X12716Y5984D02*
X12716Y5669D01*
X16496Y3464D02*
X16496Y4094D01*
X16496Y4094D02*
X16811Y4094D01*
X16811Y4094D02*
X16811Y3464D01*
X16811Y3464D02*
X16496Y3464D01*
X17047Y3464D02*
X17047Y4094D01*
X17047Y4094D02*
X17362Y4094D01*
X17362Y4094D02*
X17362Y3464D01*
X17362Y3464D02*
X17047Y3464D01*
G54D13*
X19632Y5385D02*
X19632Y5435D01*
X19632Y5435D02*
X17532Y5435D01*
X17532Y3935D02*
X19632Y3935D01*
X19632Y3935D02*
X19632Y5385D01*
X19632Y4485D02*
X19432Y4485D01*
X19432Y4485D02*
X19432Y4885D01*
X19432Y4885D02*
X19632Y4885D01*
X17532Y3935D02*
X17532Y5435D01*
G54D10*
X18366Y6358D02*
X19783Y6358D01*
X19783Y6358D02*
X19783Y6515D01*
X19783Y6515D02*
X18366Y6515D01*
X19783Y6141D02*
X19783Y9527D01*
X19783Y9527D02*
X18366Y9527D01*
X18366Y9527D02*
X18366Y6141D01*
X18366Y6141D02*
X19783Y6141D01*
X20472Y7362D02*
X20472Y6732D01*
X20472Y6732D02*
X20157Y6732D01*
X20157Y6732D02*
X20157Y7362D01*
X20157Y7362D02*
X20472Y7362D01*
X17716Y6732D02*
X17716Y7362D01*
X17716Y7362D02*
X18031Y7362D01*
X18031Y7362D02*
X18031Y6732D01*
X18031Y6732D02*
X17716Y6732D01*
X11938Y4566D02*
G75*
G03X11938Y4566I-88J0D01*
G74*
G01*
X11653Y4370D02*
X11653Y5000D01*
X11653Y5000D02*
X12755Y5000D01*
X12755Y5000D02*
X12755Y4370D01*
X12755Y4370D02*
X11653Y4370D01*
G54D14*
X16229Y11747D02*
X16229Y16047D01*
X16229Y16047D02*
X17629Y16047D01*
X17629Y16047D02*
X17629Y11747D01*
X17629Y11747D02*
X16229Y11747D01*
X16729Y11747D02*
X16729Y12047D01*
X16729Y12047D02*
X17129Y12047D01*
X17129Y12047D02*
X17129Y11747D01*
G54D13*
X4360Y9447D02*
X5610Y9447D01*
X5610Y9447D02*
X5610Y10147D01*
X5610Y10147D02*
X4360Y10147D01*
X4360Y7647D02*
X5610Y7647D01*
X5610Y7647D02*
X5610Y8347D01*
X5610Y8347D02*
X4360Y8347D01*
X1960Y10247D02*
X4360Y10247D01*
X4360Y10247D02*
X4360Y7547D01*
X4360Y7547D02*
X1260Y7547D01*
X1210Y7547D02*
X1210Y10247D01*
X1260Y10247D02*
X1960Y10247D01*
G54D10*
X20590Y11929D02*
X20590Y16023D01*
X20590Y16023D02*
X18425Y16023D01*
X18425Y16023D02*
X18425Y11574D01*
X18425Y11574D02*
X19212Y11574D01*
G54D14*
X11118Y9137D02*
X11118Y6137D01*
X9118Y6137D02*
X9118Y9137D01*
X9118Y9137D02*
X11118Y9137D01*
X11118Y6137D02*
X9118Y6137D01*
G54D10*
X6200Y9370D02*
X7578Y9370D01*
X7578Y9370D02*
X7578Y8188D01*
X7578Y8188D02*
X6200Y8188D01*
X6200Y8188D02*
X6200Y9370D01*
X17637Y11299D02*
X18267Y11299D01*
X18267Y11299D02*
X18267Y10984D01*
X18267Y10984D02*
X17637Y10984D01*
X17637Y10984D02*
X17637Y11299D01*
G54D13*
X-191Y15549D02*
X-191Y10749D01*
X-191Y10749D02*
X6508Y10749D01*
X6508Y10749D02*
X6508Y15549D01*
X6508Y15549D02*
X-191Y15549D01*
X7268Y4370D02*
X7348Y4370D01*
X7868Y3620D02*
X6068Y3620D01*
X6068Y3620D02*
X6068Y3870D01*
X6708Y5120D02*
X6708Y3620D01*
X6578Y5120D02*
X6578Y3620D01*
X7868Y4870D02*
X7868Y5120D01*
X7868Y5120D02*
X6068Y5120D01*
X6068Y5120D02*
X6068Y4870D01*
X7868Y3870D02*
X7868Y3620D01*
X7018Y4370D02*
X7268Y4183D01*
X7268Y4183D02*
X7268Y4370D01*
X7268Y4370D02*
X7268Y4557D01*
X7268Y4557D02*
X7018Y4370D01*
X7018Y4370D02*
X7018Y4245D01*
X7018Y4245D02*
X7080Y4183D01*
X7018Y4370D02*
X7018Y4495D01*
X7018Y4495D02*
X6956Y4557D01*
X7018Y4370D02*
X6581Y4370D01*
G54D10*
X9012Y1256D02*
X9012Y1650D01*
X9162Y1650D01*
X9200Y1631D01*
X9218Y1613D01*
X9237Y1575D01*
X9237Y1519D01*
X9218Y1481D01*
X9200Y1463D01*
X9162Y1444D01*
X9012Y1444D01*
X9387Y1613D02*
X9406Y1631D01*
X9443Y1650D01*
X9537Y1650D01*
X9574Y1631D01*
X9593Y1613D01*
X9612Y1575D01*
X9612Y1538D01*
X9593Y1481D01*
X9368Y1256D01*
X9612Y1256D01*
X8468Y-205D02*
X8450Y-224D01*
X8393Y-243D01*
X8356Y-243D01*
X8300Y-224D01*
X8262Y-186D01*
X8243Y-149D01*
X8225Y-74D01*
X8225Y-18D01*
X8243Y56D01*
X8262Y94D01*
X8300Y131D01*
X8356Y150D01*
X8393Y150D01*
X8450Y131D01*
X8468Y113D01*
X8712Y150D02*
X8787Y150D01*
X8825Y131D01*
X8862Y94D01*
X8881Y19D01*
X8881Y-111D01*
X8862Y-186D01*
X8825Y-224D01*
X8787Y-243D01*
X8712Y-243D01*
X8675Y-224D01*
X8637Y-186D01*
X8618Y-111D01*
X8618Y19D01*
X8637Y94D01*
X8675Y131D01*
X8712Y150D01*
X9050Y-243D02*
X9050Y150D01*
X9275Y-243D01*
X9275Y150D01*
X9462Y-243D02*
X9462Y150D01*
X9687Y-243D01*
X9687Y150D01*
X9781Y-280D02*
X10081Y-280D01*
X10231Y-18D02*
X10193Y0D01*
X10174Y19D01*
X10156Y56D01*
X10156Y75D01*
X10174Y113D01*
X10193Y131D01*
X10231Y150D01*
X10306Y150D01*
X10343Y131D01*
X10362Y113D01*
X10381Y75D01*
X10381Y56D01*
X10362Y19D01*
X10343Y0D01*
X10306Y-18D01*
X10231Y-18D01*
X10193Y-36D01*
X10174Y-55D01*
X10156Y-93D01*
X10156Y-168D01*
X10174Y-205D01*
X10193Y-224D01*
X10231Y-243D01*
X10306Y-243D01*
X10343Y-224D01*
X10362Y-205D01*
X10381Y-168D01*
X10381Y-93D01*
X10362Y-55D01*
X10343Y-36D01*
X10306Y-18D01*
X16012Y19256D02*
X16012Y19650D01*
X16162Y19650D01*
X16200Y19631D01*
X16218Y19613D01*
X16237Y19575D01*
X16237Y19519D01*
X16218Y19481D01*
X16200Y19463D01*
X16162Y19444D01*
X16012Y19444D01*
X16368Y19650D02*
X16612Y19650D01*
X16481Y19500D01*
X16537Y19500D01*
X16574Y19481D01*
X16593Y19463D01*
X16612Y19425D01*
X16612Y19331D01*
X16593Y19294D01*
X16574Y19275D01*
X16537Y19256D01*
X16425Y19256D01*
X16387Y19275D01*
X16368Y19294D01*
X15468Y17794D02*
X15450Y17775D01*
X15393Y17756D01*
X15356Y17756D01*
X15300Y17775D01*
X15262Y17813D01*
X15243Y17850D01*
X15225Y17925D01*
X15225Y17981D01*
X15243Y18056D01*
X15262Y18094D01*
X15300Y18131D01*
X15356Y18150D01*
X15393Y18150D01*
X15450Y18131D01*
X15468Y18113D01*
X15712Y18150D02*
X15787Y18150D01*
X15825Y18131D01*
X15862Y18094D01*
X15881Y18019D01*
X15881Y17888D01*
X15862Y17813D01*
X15825Y17775D01*
X15787Y17756D01*
X15712Y17756D01*
X15675Y17775D01*
X15637Y17813D01*
X15618Y17888D01*
X15618Y18019D01*
X15637Y18094D01*
X15675Y18131D01*
X15712Y18150D01*
X16050Y17756D02*
X16050Y18150D01*
X16275Y17756D01*
X16275Y18150D01*
X16462Y17756D02*
X16462Y18150D01*
X16687Y17756D01*
X16687Y18150D01*
X16781Y17719D02*
X17081Y17719D01*
X17231Y17981D02*
X17193Y18000D01*
X17174Y18019D01*
X17156Y18056D01*
X17156Y18075D01*
X17174Y18113D01*
X17193Y18131D01*
X17231Y18150D01*
X17306Y18150D01*
X17343Y18131D01*
X17362Y18113D01*
X17381Y18075D01*
X17381Y18056D01*
X17362Y18019D01*
X17343Y18000D01*
X17306Y17981D01*
X17231Y17981D01*
X17193Y17963D01*
X17174Y17944D01*
X17156Y17906D01*
X17156Y17831D01*
X17174Y17794D01*
X17193Y17775D01*
X17231Y17756D01*
X17306Y17756D01*
X17343Y17775D01*
X17362Y17794D01*
X17381Y17831D01*
X17381Y17906D01*
X17362Y17944D01*
X17343Y17963D01*
X17306Y17981D01*
G54D14*
X17007Y1354D02*
X17007Y1754D01*
X17160Y1754D01*
X17198Y1735D01*
X17217Y1715D01*
X17236Y1677D01*
X17236Y1620D01*
X17217Y1582D01*
X17198Y1563D01*
X17160Y1544D01*
X17007Y1544D01*
X17579Y1620D02*
X17579Y1354D01*
X17484Y1773D02*
X17388Y1487D01*
X17636Y1487D01*
G54D10*
X6412Y19256D02*
X6412Y19650D01*
X6562Y19650D01*
X6600Y19631D01*
X6618Y19613D01*
X6637Y19575D01*
X6637Y19519D01*
X6618Y19481D01*
X6600Y19463D01*
X6562Y19444D01*
X6412Y19444D01*
X7012Y19256D02*
X6787Y19256D01*
X6900Y19256D02*
X6900Y19650D01*
X6862Y19594D01*
X6825Y19556D01*
X6787Y19538D01*
X5681Y17794D02*
X5662Y17775D01*
X5606Y17756D01*
X5568Y17756D01*
X5512Y17775D01*
X5475Y17813D01*
X5456Y17850D01*
X5437Y17925D01*
X5437Y17981D01*
X5456Y18056D01*
X5475Y18094D01*
X5512Y18131D01*
X5568Y18150D01*
X5606Y18150D01*
X5662Y18131D01*
X5681Y18113D01*
X5925Y18150D02*
X6000Y18150D01*
X6037Y18131D01*
X6075Y18094D01*
X6093Y18019D01*
X6093Y17888D01*
X6075Y17813D01*
X6037Y17775D01*
X6000Y17756D01*
X5925Y17756D01*
X5887Y17775D01*
X5850Y17813D01*
X5831Y17888D01*
X5831Y18019D01*
X5850Y18094D01*
X5887Y18131D01*
X5925Y18150D01*
X6262Y17756D02*
X6262Y18150D01*
X6487Y17756D01*
X6487Y18150D01*
X6675Y17756D02*
X6675Y18150D01*
X6900Y17756D01*
X6900Y18150D01*
X6993Y17719D02*
X7293Y17719D01*
X7593Y17756D02*
X7368Y17756D01*
X7481Y17756D02*
X7481Y18150D01*
X7443Y18094D01*
X7406Y18056D01*
X7368Y18038D01*
X7837Y18150D02*
X7874Y18150D01*
X7912Y18131D01*
X7931Y18113D01*
X7949Y18075D01*
X7968Y18000D01*
X7968Y17906D01*
X7949Y17831D01*
X7931Y17794D01*
X7912Y17775D01*
X7874Y17756D01*
X7837Y17756D01*
X7799Y17775D01*
X7781Y17794D01*
X7762Y17831D01*
X7743Y17906D01*
X7743Y18000D01*
X7762Y18075D01*
X7781Y18113D01*
X7799Y18131D01*
X7837Y18150D01*
G54D15*
X7332Y13255D02*
X7272Y13351D01*
X7229Y13255D02*
X7229Y13455D01*
X7297Y13455D01*
X7315Y13446D01*
X7323Y13436D01*
X7332Y13417D01*
X7332Y13389D01*
X7323Y13370D01*
X7315Y13360D01*
X7297Y13351D01*
X7229Y13351D01*
X7503Y13255D02*
X7400Y13255D01*
X7452Y13255D02*
X7452Y13455D01*
X7435Y13427D01*
X7417Y13408D01*
X7400Y13398D01*
X7332Y12704D02*
X7272Y12800D01*
X7229Y12704D02*
X7229Y12904D01*
X7297Y12904D01*
X7315Y12895D01*
X7323Y12885D01*
X7332Y12866D01*
X7332Y12838D01*
X7323Y12819D01*
X7315Y12809D01*
X7297Y12800D01*
X7229Y12800D01*
X7400Y12885D02*
X7409Y12895D01*
X7426Y12904D01*
X7469Y12904D01*
X7486Y12895D01*
X7495Y12885D01*
X7503Y12866D01*
X7503Y12847D01*
X7495Y12819D01*
X7392Y12704D01*
X7503Y12704D01*
G54D10*
X15821Y18249D02*
X15821Y18642D01*
X15971Y18642D01*
X16008Y18624D01*
X16027Y18605D01*
X16046Y18567D01*
X16046Y18511D01*
X16027Y18474D01*
X16008Y18455D01*
X15971Y18436D01*
X15821Y18436D01*
X16421Y18249D02*
X16196Y18249D01*
X16308Y18249D02*
X16308Y18642D01*
X16271Y18586D01*
X16233Y18549D01*
X16196Y18530D01*
X16758Y18511D02*
X16758Y18249D01*
X16664Y18661D02*
X16571Y18380D01*
X16814Y18380D01*
X15464Y16786D02*
X15446Y16767D01*
X15389Y16749D01*
X15352Y16749D01*
X15296Y16767D01*
X15258Y16805D01*
X15239Y16842D01*
X15221Y16917D01*
X15221Y16974D01*
X15239Y17049D01*
X15258Y17086D01*
X15296Y17124D01*
X15352Y17142D01*
X15389Y17142D01*
X15446Y17124D01*
X15464Y17105D01*
X15708Y17142D02*
X15783Y17142D01*
X15821Y17124D01*
X15858Y17086D01*
X15877Y17011D01*
X15877Y16880D01*
X15858Y16805D01*
X15821Y16767D01*
X15783Y16749D01*
X15708Y16749D01*
X15671Y16767D01*
X15633Y16805D01*
X15614Y16880D01*
X15614Y17011D01*
X15633Y17086D01*
X15671Y17124D01*
X15708Y17142D01*
X16046Y16749D02*
X16046Y17142D01*
X16271Y16749D01*
X16271Y17142D01*
X16458Y16749D02*
X16458Y17142D01*
X16683Y16749D01*
X16683Y17142D01*
X16777Y16711D02*
X17077Y16711D01*
X17227Y16974D02*
X17189Y16992D01*
X17170Y17011D01*
X17152Y17049D01*
X17152Y17067D01*
X17170Y17105D01*
X17189Y17124D01*
X17227Y17142D01*
X17302Y17142D01*
X17339Y17124D01*
X17358Y17105D01*
X17377Y17067D01*
X17377Y17049D01*
X17358Y17011D01*
X17339Y16992D01*
X17302Y16974D01*
X17227Y16974D01*
X17189Y16955D01*
X17170Y16936D01*
X17152Y16899D01*
X17152Y16824D01*
X17170Y16786D01*
X17189Y16767D01*
X17227Y16749D01*
X17302Y16749D01*
X17339Y16767D01*
X17358Y16786D01*
X17377Y16824D01*
X17377Y16899D01*
X17358Y16936D01*
X17339Y16955D01*
X17302Y16974D01*
X15821Y17245D02*
X15821Y17638D01*
X15971Y17638D01*
X16008Y17620D01*
X16027Y17601D01*
X16046Y17563D01*
X16046Y17507D01*
X16027Y17470D01*
X16008Y17451D01*
X15971Y17432D01*
X15821Y17432D01*
X16421Y17245D02*
X16196Y17245D01*
X16308Y17245D02*
X16308Y17638D01*
X16271Y17582D01*
X16233Y17545D01*
X16196Y17526D01*
X16552Y17638D02*
X16796Y17638D01*
X16664Y17488D01*
X16721Y17488D01*
X16758Y17470D01*
X16777Y17451D01*
X16796Y17413D01*
X16796Y17320D01*
X16777Y17282D01*
X16758Y17263D01*
X16721Y17245D01*
X16608Y17245D01*
X16571Y17263D01*
X16552Y17282D01*
X15464Y15782D02*
X15446Y15763D01*
X15389Y15745D01*
X15352Y15745D01*
X15296Y15763D01*
X15258Y15801D01*
X15239Y15838D01*
X15221Y15913D01*
X15221Y15970D01*
X15239Y16045D01*
X15258Y16082D01*
X15296Y16120D01*
X15352Y16138D01*
X15389Y16138D01*
X15446Y16120D01*
X15464Y16101D01*
X15708Y16138D02*
X15783Y16138D01*
X15821Y16120D01*
X15858Y16082D01*
X15877Y16007D01*
X15877Y15876D01*
X15858Y15801D01*
X15821Y15763D01*
X15783Y15745D01*
X15708Y15745D01*
X15671Y15763D01*
X15633Y15801D01*
X15614Y15876D01*
X15614Y16007D01*
X15633Y16082D01*
X15671Y16120D01*
X15708Y16138D01*
X16046Y15745D02*
X16046Y16138D01*
X16271Y15745D01*
X16271Y16138D01*
X16458Y15745D02*
X16458Y16138D01*
X16683Y15745D01*
X16683Y16138D01*
X16777Y15707D02*
X17077Y15707D01*
X17227Y15970D02*
X17189Y15988D01*
X17170Y16007D01*
X17152Y16045D01*
X17152Y16063D01*
X17170Y16101D01*
X17189Y16120D01*
X17227Y16138D01*
X17302Y16138D01*
X17339Y16120D01*
X17358Y16101D01*
X17377Y16063D01*
X17377Y16045D01*
X17358Y16007D01*
X17339Y15988D01*
X17302Y15970D01*
X17227Y15970D01*
X17189Y15951D01*
X17170Y15932D01*
X17152Y15895D01*
X17152Y15820D01*
X17170Y15782D01*
X17189Y15763D01*
X17227Y15745D01*
X17302Y15745D01*
X17339Y15763D01*
X17358Y15782D01*
X17377Y15820D01*
X17377Y15895D01*
X17358Y15932D01*
X17339Y15951D01*
X17302Y15970D01*
G54D14*
X16797Y2342D02*
X16797Y2742D01*
X16950Y2742D01*
X16988Y2723D01*
X17007Y2704D01*
X17026Y2666D01*
X17026Y2608D01*
X17007Y2570D01*
X16988Y2551D01*
X16950Y2532D01*
X16797Y2532D01*
X17407Y2342D02*
X17178Y2342D01*
X17292Y2342D02*
X17292Y2742D01*
X17254Y2685D01*
X17216Y2647D01*
X17178Y2627D01*
X17769Y2742D02*
X17578Y2742D01*
X17559Y2551D01*
X17578Y2570D01*
X17616Y2589D01*
X17712Y2589D01*
X17750Y2570D01*
X17769Y2551D01*
X17788Y2513D01*
X17788Y2418D01*
X17769Y2380D01*
X17750Y2361D01*
X17712Y2342D01*
X17616Y2342D01*
X17578Y2361D01*
X17559Y2380D01*
X16817Y3346D02*
X16817Y3746D01*
X16969Y3746D01*
X17007Y3727D01*
X17026Y3708D01*
X17046Y3670D01*
X17046Y3612D01*
X17026Y3574D01*
X17007Y3555D01*
X16969Y3536D01*
X16817Y3536D01*
X17426Y3346D02*
X17198Y3346D01*
X17312Y3346D02*
X17312Y3746D01*
X17274Y3689D01*
X17236Y3650D01*
X17198Y3631D01*
X17769Y3746D02*
X17693Y3746D01*
X17655Y3727D01*
X17636Y3708D01*
X17598Y3650D01*
X17579Y3574D01*
X17579Y3422D01*
X17598Y3384D01*
X17617Y3365D01*
X17655Y3346D01*
X17731Y3346D01*
X17769Y3365D01*
X17788Y3384D01*
X17807Y3422D01*
X17807Y3517D01*
X17788Y3555D01*
X17769Y3574D01*
X17731Y3593D01*
X17655Y3593D01*
X17617Y3574D01*
X17598Y3555D01*
X17579Y3517D01*
G54D10*
X6254Y18249D02*
X6254Y18642D01*
X6404Y18642D01*
X6441Y18624D01*
X6460Y18605D01*
X6479Y18567D01*
X6479Y18511D01*
X6460Y18474D01*
X6441Y18455D01*
X6404Y18436D01*
X6254Y18436D01*
X6854Y18249D02*
X6629Y18249D01*
X6741Y18249D02*
X6741Y18642D01*
X6704Y18586D01*
X6666Y18549D01*
X6629Y18530D01*
X7004Y18605D02*
X7022Y18624D01*
X7060Y18642D01*
X7154Y18642D01*
X7191Y18624D01*
X7210Y18605D01*
X7229Y18567D01*
X7229Y18530D01*
X7210Y18474D01*
X6985Y18249D01*
X7229Y18249D01*
X5710Y16786D02*
X5691Y16767D01*
X5635Y16749D01*
X5598Y16749D01*
X5541Y16767D01*
X5504Y16805D01*
X5485Y16842D01*
X5466Y16917D01*
X5466Y16974D01*
X5485Y17049D01*
X5504Y17086D01*
X5541Y17124D01*
X5598Y17142D01*
X5635Y17142D01*
X5691Y17124D01*
X5710Y17105D01*
X5954Y17142D02*
X6029Y17142D01*
X6066Y17124D01*
X6104Y17086D01*
X6122Y17011D01*
X6122Y16880D01*
X6104Y16805D01*
X6066Y16767D01*
X6029Y16749D01*
X5954Y16749D01*
X5916Y16767D01*
X5879Y16805D01*
X5860Y16880D01*
X5860Y17011D01*
X5879Y17086D01*
X5916Y17124D01*
X5954Y17142D01*
X6291Y16749D02*
X6291Y17142D01*
X6516Y16749D01*
X6516Y17142D01*
X6704Y16749D02*
X6704Y17142D01*
X6929Y16749D01*
X6929Y17142D01*
X7022Y16711D02*
X7322Y16711D01*
X7622Y16749D02*
X7397Y16749D01*
X7510Y16749D02*
X7510Y17142D01*
X7472Y17086D01*
X7435Y17049D01*
X7397Y17030D01*
X7866Y17142D02*
X7904Y17142D01*
X7941Y17124D01*
X7960Y17105D01*
X7979Y17067D01*
X7997Y16992D01*
X7997Y16899D01*
X7979Y16824D01*
X7960Y16786D01*
X7941Y16767D01*
X7904Y16749D01*
X7866Y16749D01*
X7829Y16767D01*
X7810Y16786D01*
X7791Y16824D01*
X7772Y16899D01*
X7772Y16992D01*
X7791Y17067D01*
X7810Y17105D01*
X7829Y17124D01*
X7866Y17142D01*
X6254Y17245D02*
X6254Y17638D01*
X6404Y17638D01*
X6441Y17620D01*
X6460Y17601D01*
X6479Y17563D01*
X6479Y17507D01*
X6460Y17470D01*
X6441Y17451D01*
X6404Y17432D01*
X6254Y17432D01*
X6854Y17245D02*
X6629Y17245D01*
X6741Y17245D02*
X6741Y17638D01*
X6704Y17582D01*
X6666Y17545D01*
X6629Y17526D01*
X7229Y17245D02*
X7004Y17245D01*
X7116Y17245D02*
X7116Y17638D01*
X7079Y17582D01*
X7041Y17545D01*
X7004Y17526D01*
X5710Y15782D02*
X5691Y15763D01*
X5635Y15745D01*
X5598Y15745D01*
X5541Y15763D01*
X5504Y15801D01*
X5485Y15838D01*
X5466Y15913D01*
X5466Y15970D01*
X5485Y16045D01*
X5504Y16082D01*
X5541Y16120D01*
X5598Y16138D01*
X5635Y16138D01*
X5691Y16120D01*
X5710Y16101D01*
X5954Y16138D02*
X6029Y16138D01*
X6066Y16120D01*
X6104Y16082D01*
X6122Y16007D01*
X6122Y15876D01*
X6104Y15801D01*
X6066Y15763D01*
X6029Y15745D01*
X5954Y15745D01*
X5916Y15763D01*
X5879Y15801D01*
X5860Y15876D01*
X5860Y16007D01*
X5879Y16082D01*
X5916Y16120D01*
X5954Y16138D01*
X6291Y15745D02*
X6291Y16138D01*
X6516Y15745D01*
X6516Y16138D01*
X6704Y15745D02*
X6704Y16138D01*
X6929Y15745D01*
X6929Y16138D01*
X7022Y15707D02*
X7322Y15707D01*
X7622Y15745D02*
X7397Y15745D01*
X7510Y15745D02*
X7510Y16138D01*
X7472Y16082D01*
X7435Y16045D01*
X7397Y16026D01*
X7866Y16138D02*
X7904Y16138D01*
X7941Y16120D01*
X7960Y16101D01*
X7979Y16063D01*
X7997Y15988D01*
X7997Y15895D01*
X7979Y15820D01*
X7960Y15782D01*
X7941Y15763D01*
X7904Y15745D01*
X7866Y15745D01*
X7829Y15763D01*
X7810Y15782D01*
X7791Y15820D01*
X7772Y15895D01*
X7772Y15988D01*
X7791Y16063D01*
X7810Y16101D01*
X7829Y16120D01*
X7866Y16138D01*
G54D13*
X7340Y11396D02*
X7340Y11296D01*
X7497Y11296D02*
X7197Y11296D01*
X7197Y11438D01*
X7497Y11710D02*
X7497Y11538D01*
X7497Y11624D02*
X7197Y11624D01*
X7240Y11596D01*
X7269Y11567D01*
X7283Y11538D01*
X6879Y5916D02*
X6864Y5902D01*
X6821Y5887D01*
X6793Y5887D01*
X6750Y5902D01*
X6721Y5930D01*
X6707Y5959D01*
X6693Y6016D01*
X6693Y6059D01*
X6707Y6116D01*
X6721Y6145D01*
X6750Y6173D01*
X6793Y6187D01*
X6821Y6187D01*
X6864Y6173D01*
X6879Y6159D01*
X7164Y5887D02*
X6993Y5887D01*
X7079Y5887D02*
X7079Y6187D01*
X7050Y6145D01*
X7021Y6116D01*
X6993Y6102D01*
G54D10*
X607Y11237D02*
X588Y11218D01*
X532Y11199D01*
X494Y11199D01*
X438Y11218D01*
X401Y11256D01*
X382Y11293D01*
X363Y11368D01*
X363Y11424D01*
X382Y11499D01*
X401Y11537D01*
X438Y11574D01*
X494Y11593D01*
X532Y11593D01*
X588Y11574D01*
X607Y11556D01*
X851Y11593D02*
X926Y11593D01*
X963Y11574D01*
X1001Y11537D01*
X1019Y11462D01*
X1019Y11331D01*
X1001Y11256D01*
X963Y11218D01*
X926Y11199D01*
X851Y11199D01*
X813Y11218D01*
X776Y11256D01*
X757Y11331D01*
X757Y11462D01*
X776Y11537D01*
X813Y11574D01*
X851Y11593D01*
X1188Y11199D02*
X1188Y11593D01*
X1413Y11199D01*
X1413Y11593D01*
X1601Y11199D02*
X1601Y11593D01*
X1826Y11199D01*
X1826Y11593D01*
X1919Y11162D02*
X2219Y11162D01*
X2313Y11593D02*
X2313Y11274D01*
X2332Y11237D01*
X2350Y11218D01*
X2388Y11199D01*
X2463Y11199D01*
X2500Y11218D01*
X2519Y11237D01*
X2538Y11274D01*
X2538Y11593D01*
X2707Y11218D02*
X2763Y11199D01*
X2857Y11199D01*
X2894Y11218D01*
X2913Y11237D01*
X2932Y11274D01*
X2932Y11312D01*
X2913Y11349D01*
X2894Y11368D01*
X2857Y11387D01*
X2782Y11406D01*
X2744Y11424D01*
X2725Y11443D01*
X2707Y11481D01*
X2707Y11518D01*
X2725Y11556D01*
X2744Y11574D01*
X2782Y11593D01*
X2875Y11593D01*
X2932Y11574D01*
X3232Y11406D02*
X3288Y11387D01*
X3307Y11368D01*
X3325Y11331D01*
X3325Y11274D01*
X3307Y11237D01*
X3288Y11218D01*
X3250Y11199D01*
X3100Y11199D01*
X3100Y11593D01*
X3232Y11593D01*
X3269Y11574D01*
X3288Y11556D01*
X3307Y11518D01*
X3307Y11481D01*
X3288Y11443D01*
X3269Y11424D01*
X3232Y11406D01*
X3100Y11406D01*
X3400Y11162D02*
X3700Y11162D01*
X3794Y11199D02*
X3794Y11593D01*
X3925Y11312D01*
X4056Y11593D01*
X4056Y11199D01*
X4244Y11199D02*
X4244Y11593D01*
X4656Y11237D02*
X4638Y11218D01*
X4581Y11199D01*
X4544Y11199D01*
X4488Y11218D01*
X4450Y11256D01*
X4431Y11293D01*
X4413Y11368D01*
X4413Y11424D01*
X4431Y11499D01*
X4450Y11537D01*
X4488Y11574D01*
X4544Y11593D01*
X4581Y11593D01*
X4638Y11574D01*
X4656Y11556D01*
X5050Y11199D02*
X4919Y11387D01*
X4825Y11199D02*
X4825Y11593D01*
X4975Y11593D01*
X5013Y11574D01*
X5031Y11556D01*
X5050Y11518D01*
X5050Y11462D01*
X5031Y11424D01*
X5013Y11406D01*
X4975Y11387D01*
X4825Y11387D01*
X5294Y11593D02*
X5369Y11593D01*
X5406Y11574D01*
X5444Y11537D01*
X5463Y11462D01*
X5463Y11331D01*
X5444Y11256D01*
X5406Y11218D01*
X5369Y11199D01*
X5294Y11199D01*
X5256Y11218D01*
X5219Y11256D01*
X5200Y11331D01*
X5200Y11462D01*
X5219Y11537D01*
X5256Y11574D01*
X5294Y11593D01*
X2624Y4546D02*
X2624Y4265D01*
X2605Y4208D01*
X2568Y4171D01*
X2512Y4152D01*
X2474Y4152D01*
X3018Y4152D02*
X2793Y4152D01*
X2905Y4152D02*
X2905Y4546D01*
X2868Y4490D01*
X2830Y4452D01*
X2793Y4433D01*
X534Y1302D02*
X553Y1284D01*
X571Y1227D01*
X571Y1190D01*
X553Y1134D01*
X515Y1096D01*
X478Y1077D01*
X403Y1059D01*
X346Y1059D01*
X271Y1077D01*
X234Y1096D01*
X196Y1134D01*
X178Y1190D01*
X178Y1227D01*
X196Y1284D01*
X215Y1302D01*
X178Y1546D02*
X178Y1621D01*
X196Y1659D01*
X234Y1696D01*
X309Y1715D01*
X440Y1715D01*
X515Y1696D01*
X553Y1659D01*
X571Y1621D01*
X571Y1546D01*
X553Y1509D01*
X515Y1471D01*
X440Y1452D01*
X309Y1452D01*
X234Y1471D01*
X196Y1509D01*
X178Y1546D01*
X571Y1884D02*
X178Y1884D01*
X571Y2109D01*
X178Y2109D01*
X571Y2296D02*
X178Y2296D01*
X571Y2521D01*
X178Y2521D01*
X609Y2615D02*
X609Y2915D01*
X571Y3008D02*
X178Y3008D01*
X178Y3158D01*
X196Y3196D01*
X215Y3215D01*
X253Y3233D01*
X309Y3233D01*
X346Y3215D01*
X365Y3196D01*
X384Y3158D01*
X384Y3008D01*
X178Y3477D02*
X178Y3552D01*
X196Y3590D01*
X234Y3627D01*
X309Y3646D01*
X440Y3646D01*
X515Y3627D01*
X553Y3590D01*
X571Y3552D01*
X571Y3477D01*
X553Y3440D01*
X515Y3402D01*
X440Y3383D01*
X309Y3383D01*
X234Y3402D01*
X196Y3440D01*
X178Y3477D01*
X178Y3777D02*
X571Y3871D01*
X290Y3946D01*
X571Y4021D01*
X178Y4115D01*
X365Y4265D02*
X365Y4396D01*
X571Y4452D02*
X571Y4265D01*
X178Y4265D01*
X178Y4452D01*
X571Y4846D02*
X384Y4715D01*
X571Y4621D02*
X178Y4621D01*
X178Y4771D01*
X196Y4808D01*
X215Y4827D01*
X253Y4846D01*
X309Y4846D01*
X346Y4827D01*
X365Y4808D01*
X384Y4771D01*
X384Y4621D01*
G54D14*
X586Y5836D02*
X991Y5836D01*
X1039Y5856D01*
X1063Y5875D01*
X1086Y5913D01*
X1086Y5989D01*
X1063Y6027D01*
X1039Y6046D01*
X991Y6065D01*
X586Y6065D01*
X1086Y6465D02*
X1086Y6236D01*
X1086Y6351D02*
X586Y6351D01*
X658Y6313D01*
X705Y6275D01*
X729Y6236D01*
X4191Y4779D02*
X4001Y4646D01*
X4191Y4551D02*
X3791Y4551D01*
X3791Y4703D01*
X3810Y4741D01*
X3829Y4760D01*
X3867Y4779D01*
X3924Y4779D01*
X3963Y4760D01*
X3982Y4741D01*
X4001Y4703D01*
X4001Y4551D01*
X3982Y4951D02*
X3982Y5084D01*
X4191Y5141D02*
X4191Y4951D01*
X3791Y4951D01*
X3791Y5141D01*
X3810Y5522D02*
X3791Y5484D01*
X3791Y5427D01*
X3810Y5370D01*
X3848Y5332D01*
X3886Y5313D01*
X3963Y5294D01*
X4020Y5294D01*
X4096Y5313D01*
X4134Y5332D01*
X4172Y5370D01*
X4191Y5427D01*
X4191Y5465D01*
X4172Y5522D01*
X4153Y5541D01*
X4020Y5541D01*
X4020Y5465D01*
X3791Y5713D02*
X4115Y5713D01*
X4153Y5732D01*
X4172Y5751D01*
X4191Y5789D01*
X4191Y5865D01*
X4172Y5903D01*
X4153Y5922D01*
X4115Y5941D01*
X3791Y5941D01*
X4191Y6322D02*
X4191Y6132D01*
X3791Y6132D01*
X4077Y6436D02*
X4077Y6627D01*
X4191Y6398D02*
X3791Y6532D01*
X4191Y6665D01*
X3791Y6741D02*
X3791Y6970D01*
X4191Y6856D02*
X3791Y6856D01*
X3791Y7179D02*
X3791Y7256D01*
X3810Y7294D01*
X3848Y7332D01*
X3924Y7351D01*
X4058Y7351D01*
X4134Y7332D01*
X4172Y7294D01*
X4191Y7256D01*
X4191Y7179D01*
X4172Y7141D01*
X4134Y7103D01*
X4058Y7084D01*
X3924Y7084D01*
X3848Y7103D01*
X3810Y7141D01*
X3791Y7179D01*
X4191Y7751D02*
X4001Y7617D01*
X4191Y7522D02*
X3791Y7522D01*
X3791Y7675D01*
X3810Y7713D01*
X3829Y7732D01*
X3867Y7751D01*
X3924Y7751D01*
X3963Y7732D01*
X3982Y7713D01*
X4001Y7675D01*
X4001Y7522D01*
G54D10*
X6824Y8225D02*
X6805Y8206D01*
X6749Y8188D01*
X6711Y8188D01*
X6655Y8206D01*
X6617Y8244D01*
X6599Y8281D01*
X6580Y8356D01*
X6580Y8413D01*
X6599Y8488D01*
X6617Y8525D01*
X6655Y8562D01*
X6711Y8581D01*
X6749Y8581D01*
X6805Y8562D01*
X6824Y8544D01*
X6974Y8544D02*
X6992Y8562D01*
X7030Y8581D01*
X7124Y8581D01*
X7161Y8562D01*
X7180Y8544D01*
X7199Y8506D01*
X7199Y8469D01*
X7180Y8413D01*
X6955Y8188D01*
X7199Y8188D01*
X6599Y6678D02*
X6599Y6416D01*
X6505Y6828D02*
X6411Y6547D01*
X6655Y6547D01*
X6767Y6810D02*
X7030Y6810D01*
X6861Y6416D01*
X7349Y6678D02*
X7349Y6416D01*
X7180Y6678D02*
X7180Y6472D01*
X7199Y6435D01*
X7236Y6416D01*
X7292Y6416D01*
X7330Y6435D01*
X7349Y6453D01*
G54D15*
X15088Y12330D02*
X15079Y12320D01*
X15053Y12311D01*
X15036Y12311D01*
X15010Y12320D01*
X14993Y12339D01*
X14985Y12358D01*
X14976Y12396D01*
X14976Y12425D01*
X14985Y12463D01*
X14993Y12482D01*
X15010Y12501D01*
X15036Y12511D01*
X15053Y12511D01*
X15079Y12501D01*
X15088Y12492D01*
X15148Y12511D02*
X15259Y12511D01*
X15199Y12434D01*
X15225Y12434D01*
X15242Y12425D01*
X15250Y12415D01*
X15259Y12396D01*
X15259Y12349D01*
X15250Y12330D01*
X15242Y12320D01*
X15225Y12311D01*
X15173Y12311D01*
X15156Y12320D01*
X15148Y12330D01*
X12276Y12568D02*
X12285Y12559D01*
X12295Y12534D01*
X12295Y12516D01*
X12285Y12491D01*
X12266Y12474D01*
X12247Y12465D01*
X12209Y12456D01*
X12180Y12456D01*
X12142Y12465D01*
X12123Y12474D01*
X12104Y12491D01*
X12095Y12516D01*
X12095Y12534D01*
X12104Y12559D01*
X12114Y12568D01*
X12161Y12722D02*
X12295Y12722D01*
X12085Y12679D02*
X12228Y12636D01*
X12228Y12748D01*
X10937Y11269D02*
X10947Y11260D01*
X10956Y11234D01*
X10956Y11217D01*
X10947Y11192D01*
X10928Y11174D01*
X10908Y11166D01*
X10870Y11157D01*
X10842Y11157D01*
X10804Y11166D01*
X10785Y11174D01*
X10766Y11192D01*
X10756Y11217D01*
X10756Y11234D01*
X10766Y11260D01*
X10775Y11269D01*
X10756Y11432D02*
X10756Y11346D01*
X10851Y11337D01*
X10842Y11346D01*
X10832Y11363D01*
X10832Y11406D01*
X10842Y11423D01*
X10851Y11432D01*
X10870Y11440D01*
X10918Y11440D01*
X10937Y11432D01*
X10947Y11423D01*
X10956Y11406D01*
X10956Y11363D01*
X10947Y11346D01*
X10937Y11337D01*
X12844Y6345D02*
X12835Y6336D01*
X12809Y6326D01*
X12792Y6326D01*
X12766Y6336D01*
X12749Y6355D01*
X12741Y6374D01*
X12732Y6412D01*
X12732Y6441D01*
X12741Y6479D01*
X12749Y6498D01*
X12766Y6517D01*
X12792Y6526D01*
X12809Y6526D01*
X12835Y6517D01*
X12844Y6507D01*
X12946Y6441D02*
X12929Y6450D01*
X12921Y6460D01*
X12912Y6479D01*
X12912Y6488D01*
X12921Y6507D01*
X12929Y6517D01*
X12946Y6526D01*
X12981Y6526D01*
X12998Y6517D01*
X13006Y6507D01*
X13015Y6488D01*
X13015Y6479D01*
X13006Y6460D01*
X12998Y6450D01*
X12981Y6441D01*
X12946Y6441D01*
X12929Y6431D01*
X12921Y6422D01*
X12912Y6403D01*
X12912Y6364D01*
X12921Y6345D01*
X12929Y6336D01*
X12946Y6326D01*
X12981Y6326D01*
X12998Y6336D01*
X13006Y6345D01*
X13015Y6364D01*
X13015Y6403D01*
X13006Y6422D01*
X12998Y6431D01*
X12981Y6441D01*
X16803Y7844D02*
X16813Y7835D01*
X16822Y7809D01*
X16822Y7792D01*
X16813Y7766D01*
X16794Y7749D01*
X16775Y7741D01*
X16737Y7732D01*
X16708Y7732D01*
X16670Y7741D01*
X16651Y7749D01*
X16632Y7766D01*
X16622Y7792D01*
X16622Y7809D01*
X16632Y7835D01*
X16641Y7844D01*
X16822Y7929D02*
X16822Y7964D01*
X16813Y7981D01*
X16803Y7989D01*
X16775Y8006D01*
X16737Y8015D01*
X16660Y8015D01*
X16641Y8006D01*
X16632Y7998D01*
X16622Y7981D01*
X16622Y7946D01*
X16632Y7929D01*
X16641Y7921D01*
X16660Y7912D01*
X16708Y7912D01*
X16727Y7921D01*
X16737Y7929D01*
X16746Y7946D01*
X16746Y7981D01*
X16737Y7998D01*
X16727Y8006D01*
X16708Y8015D01*
X8191Y10715D02*
X8182Y10706D01*
X8157Y10696D01*
X8139Y10696D01*
X8114Y10706D01*
X8097Y10725D01*
X8088Y10744D01*
X8079Y10782D01*
X8079Y10811D01*
X8088Y10849D01*
X8097Y10868D01*
X8114Y10887D01*
X8139Y10896D01*
X8157Y10896D01*
X8182Y10887D01*
X8191Y10877D01*
X8362Y10696D02*
X8259Y10696D01*
X8311Y10696D02*
X8311Y10896D01*
X8294Y10868D01*
X8277Y10849D01*
X8259Y10839D01*
X8474Y10896D02*
X8491Y10896D01*
X8508Y10887D01*
X8517Y10877D01*
X8525Y10858D01*
X8534Y10820D01*
X8534Y10773D01*
X8525Y10735D01*
X8517Y10715D01*
X8508Y10706D01*
X8491Y10696D01*
X8474Y10696D01*
X8457Y10706D01*
X8448Y10715D01*
X8439Y10735D01*
X8431Y10773D01*
X8431Y10820D01*
X8439Y10858D01*
X8448Y10877D01*
X8457Y10887D01*
X8474Y10896D01*
X9214Y10715D02*
X9206Y10706D01*
X9180Y10696D01*
X9163Y10696D01*
X9137Y10706D01*
X9120Y10725D01*
X9112Y10744D01*
X9103Y10782D01*
X9103Y10811D01*
X9112Y10849D01*
X9120Y10868D01*
X9137Y10887D01*
X9163Y10896D01*
X9180Y10896D01*
X9206Y10887D01*
X9214Y10877D01*
X9386Y10696D02*
X9283Y10696D01*
X9334Y10696D02*
X9334Y10896D01*
X9317Y10868D01*
X9300Y10849D01*
X9283Y10839D01*
X9557Y10696D02*
X9454Y10696D01*
X9506Y10696D02*
X9506Y10896D01*
X9489Y10868D01*
X9472Y10849D01*
X9454Y10839D01*
X9197Y9358D02*
X9197Y9558D01*
X9240Y9558D01*
X9266Y9548D01*
X9283Y9529D01*
X9292Y9510D01*
X9300Y9472D01*
X9300Y9444D01*
X9292Y9405D01*
X9283Y9386D01*
X9266Y9367D01*
X9240Y9358D01*
X9197Y9358D01*
X9472Y9358D02*
X9369Y9358D01*
X9420Y9358D02*
X9420Y9558D01*
X9403Y9529D01*
X9386Y9510D01*
X9369Y9501D01*
X9197Y9948D02*
X9197Y10148D01*
X9240Y10148D01*
X9266Y10139D01*
X9283Y10120D01*
X9292Y10101D01*
X9300Y10063D01*
X9300Y10034D01*
X9292Y9996D01*
X9283Y9977D01*
X9266Y9958D01*
X9240Y9948D01*
X9197Y9948D01*
X9369Y10129D02*
X9377Y10139D01*
X9394Y10148D01*
X9437Y10148D01*
X9454Y10139D01*
X9463Y10129D01*
X9472Y10110D01*
X9472Y10091D01*
X9463Y10063D01*
X9360Y9948D01*
X9472Y9948D01*
X7177Y15103D02*
X6977Y15103D01*
X6977Y15146D01*
X6986Y15171D01*
X7005Y15189D01*
X7024Y15197D01*
X7062Y15206D01*
X7091Y15206D01*
X7129Y15197D01*
X7148Y15189D01*
X7167Y15171D01*
X7177Y15146D01*
X7177Y15103D01*
X6977Y15266D02*
X6977Y15377D01*
X7053Y15317D01*
X7053Y15343D01*
X7062Y15360D01*
X7072Y15369D01*
X7091Y15377D01*
X7138Y15377D01*
X7158Y15369D01*
X7167Y15360D01*
X7177Y15343D01*
X7177Y15291D01*
X7167Y15274D01*
X7158Y15266D01*
X10930Y1759D02*
X10930Y1959D01*
X10972Y1959D01*
X10998Y1950D01*
X11015Y1931D01*
X11024Y1912D01*
X11032Y1874D01*
X11032Y1845D01*
X11024Y1807D01*
X11015Y1788D01*
X10998Y1769D01*
X10972Y1759D01*
X10930Y1759D01*
X11187Y1893D02*
X11187Y1759D01*
X11144Y1969D02*
X11101Y1826D01*
X11212Y1826D01*
X12295Y13592D02*
X12199Y13532D01*
X12295Y13489D02*
X12095Y13489D01*
X12095Y13557D01*
X12104Y13574D01*
X12114Y13583D01*
X12133Y13592D01*
X12161Y13592D01*
X12180Y13583D01*
X12190Y13574D01*
X12199Y13557D01*
X12199Y13489D01*
X12095Y13652D02*
X12095Y13763D01*
X12171Y13703D01*
X12171Y13729D01*
X12180Y13746D01*
X12190Y13754D01*
X12209Y13763D01*
X12257Y13763D01*
X12276Y13754D01*
X12285Y13746D01*
X12295Y13729D01*
X12295Y13677D01*
X12285Y13660D01*
X12276Y13652D01*
X16977Y11051D02*
X16917Y11146D01*
X16875Y11051D02*
X16875Y11251D01*
X16943Y11251D01*
X16960Y11241D01*
X16969Y11232D01*
X16977Y11213D01*
X16977Y11184D01*
X16969Y11165D01*
X16960Y11156D01*
X16943Y11146D01*
X16875Y11146D01*
X17132Y11184D02*
X17132Y11051D01*
X17089Y11260D02*
X17046Y11117D01*
X17157Y11117D01*
X8277Y9358D02*
X8217Y9453D01*
X8174Y9358D02*
X8174Y9558D01*
X8242Y9558D01*
X8259Y9548D01*
X8268Y9539D01*
X8277Y9520D01*
X8277Y9491D01*
X8268Y9472D01*
X8259Y9463D01*
X8242Y9453D01*
X8174Y9453D01*
X8439Y9558D02*
X8354Y9558D01*
X8345Y9463D01*
X8354Y9472D01*
X8371Y9482D01*
X8414Y9482D01*
X8431Y9472D01*
X8439Y9463D01*
X8448Y9444D01*
X8448Y9396D01*
X8439Y9377D01*
X8431Y9367D01*
X8414Y9358D01*
X8371Y9358D01*
X8354Y9367D01*
X8345Y9377D01*
X8277Y9948D02*
X8217Y10044D01*
X8174Y9948D02*
X8174Y10148D01*
X8242Y10148D01*
X8259Y10139D01*
X8268Y10129D01*
X8277Y10110D01*
X8277Y10082D01*
X8268Y10063D01*
X8259Y10053D01*
X8242Y10044D01*
X8174Y10044D01*
X8431Y10148D02*
X8397Y10148D01*
X8379Y10139D01*
X8371Y10129D01*
X8354Y10101D01*
X8345Y10063D01*
X8345Y9986D01*
X8354Y9967D01*
X8362Y9958D01*
X8379Y9948D01*
X8414Y9948D01*
X8431Y9958D01*
X8439Y9967D01*
X8448Y9986D01*
X8448Y10034D01*
X8439Y10053D01*
X8431Y10063D01*
X8414Y10072D01*
X8379Y10072D01*
X8362Y10063D01*
X8354Y10053D01*
X8345Y10034D01*
X7885Y15206D02*
X7790Y15146D01*
X7885Y15103D02*
X7685Y15103D01*
X7685Y15171D01*
X7695Y15189D01*
X7704Y15197D01*
X7723Y15206D01*
X7752Y15206D01*
X7771Y15197D01*
X7780Y15189D01*
X7790Y15171D01*
X7790Y15103D01*
X7685Y15266D02*
X7685Y15386D01*
X7885Y15309D01*
X10009Y1759D02*
X9949Y1855D01*
X9906Y1759D02*
X9906Y1959D01*
X9975Y1959D01*
X9992Y1950D01*
X10000Y1940D01*
X10009Y1921D01*
X10009Y1893D01*
X10000Y1874D01*
X9992Y1864D01*
X9975Y1855D01*
X9906Y1855D01*
X10112Y1874D02*
X10095Y1883D01*
X10086Y1893D01*
X10077Y1912D01*
X10077Y1921D01*
X10086Y1940D01*
X10095Y1950D01*
X10112Y1959D01*
X10146Y1959D01*
X10163Y1950D01*
X10172Y1940D01*
X10180Y1921D01*
X10180Y1912D01*
X10172Y1893D01*
X10163Y1883D01*
X10146Y1874D01*
X10112Y1874D01*
X10095Y1864D01*
X10086Y1855D01*
X10077Y1836D01*
X10077Y1798D01*
X10086Y1778D01*
X10095Y1769D01*
X10112Y1759D01*
X10146Y1759D01*
X10163Y1769D01*
X10172Y1778D01*
X10180Y1798D01*
X10180Y1836D01*
X10172Y1855D01*
X10163Y1864D01*
X10146Y1874D01*
G54D16*
X13239Y14375D02*
X13239Y14011D01*
X13261Y13968D01*
X13282Y13947D01*
X13325Y13925D01*
X13411Y13925D01*
X13454Y13947D01*
X13475Y13968D01*
X13496Y14011D01*
X13496Y14375D01*
X13668Y14375D02*
X13946Y14375D01*
X13796Y14204D01*
X13861Y14204D01*
X13904Y14183D01*
X13925Y14161D01*
X13946Y14118D01*
X13946Y14011D01*
X13925Y13968D01*
X13904Y13947D01*
X13861Y13925D01*
X13732Y13925D01*
X13689Y13947D01*
X13668Y13968D01*
X11649Y13221D02*
X11532Y13387D01*
X11449Y13221D02*
X11449Y13571D01*
X11582Y13571D01*
X11616Y13554D01*
X11632Y13537D01*
X11649Y13504D01*
X11649Y13454D01*
X11632Y13421D01*
X11616Y13404D01*
X11582Y13387D01*
X11449Y13387D01*
X11799Y13404D02*
X11916Y13404D01*
X11966Y13221D02*
X11799Y13221D01*
X11799Y13571D01*
X11966Y13571D01*
X12232Y13404D02*
X12116Y13404D01*
X12116Y13221D02*
X12116Y13571D01*
X12282Y13571D01*
X12416Y13404D02*
X12532Y13404D01*
X12582Y13221D02*
X12416Y13221D01*
X12416Y13571D01*
X12582Y13571D01*
X12932Y13221D02*
X12816Y13387D01*
X12732Y13221D02*
X12732Y13571D01*
X12866Y13571D01*
X12899Y13554D01*
X12916Y13537D01*
X12932Y13504D01*
X12932Y13454D01*
X12916Y13421D01*
X12899Y13404D01*
X12866Y13387D01*
X12732Y13387D01*
X13066Y13321D02*
X13232Y13321D01*
X13032Y13221D02*
X13149Y13571D01*
X13266Y13221D01*
X13382Y13221D02*
X13382Y13571D01*
X13582Y13221D01*
X13582Y13571D01*
X13949Y13254D02*
X13932Y13237D01*
X13882Y13221D01*
X13849Y13221D01*
X13799Y13237D01*
X13766Y13271D01*
X13749Y13304D01*
X13732Y13371D01*
X13732Y13421D01*
X13749Y13487D01*
X13766Y13521D01*
X13799Y13554D01*
X13849Y13571D01*
X13882Y13571D01*
X13932Y13554D01*
X13949Y13537D01*
X14099Y13404D02*
X14216Y13404D01*
X14266Y13221D02*
X14099Y13221D01*
X14099Y13571D01*
X14266Y13571D01*
X14416Y13354D02*
X14682Y13354D01*
X14832Y13237D02*
X14882Y13221D01*
X14966Y13221D01*
X14999Y13237D01*
X15016Y13254D01*
X15032Y13287D01*
X15032Y13321D01*
X15016Y13354D01*
X14999Y13371D01*
X14966Y13387D01*
X14899Y13404D01*
X14866Y13421D01*
X14849Y13437D01*
X14832Y13471D01*
X14832Y13504D01*
X14849Y13537D01*
X14866Y13554D01*
X14899Y13571D01*
X14982Y13571D01*
X15032Y13554D01*
X15249Y13571D02*
X15316Y13571D01*
X15349Y13554D01*
X15382Y13521D01*
X15399Y13454D01*
X15399Y13337D01*
X15382Y13271D01*
X15349Y13237D01*
X15316Y13221D01*
X15249Y13221D01*
X15216Y13237D01*
X15182Y13271D01*
X15166Y13337D01*
X15166Y13454D01*
X15182Y13521D01*
X15216Y13554D01*
X15249Y13571D01*
X15599Y13421D02*
X15566Y13437D01*
X15549Y13454D01*
X15532Y13487D01*
X15532Y13504D01*
X15549Y13537D01*
X15566Y13554D01*
X15599Y13571D01*
X15666Y13571D01*
X15699Y13554D01*
X15716Y13537D01*
X15732Y13504D01*
X15732Y13487D01*
X15716Y13454D01*
X15699Y13437D01*
X15666Y13421D01*
X15599Y13421D01*
X15566Y13404D01*
X15549Y13387D01*
X15532Y13354D01*
X15532Y13287D01*
X15549Y13254D01*
X15566Y13237D01*
X15599Y13221D01*
X15666Y13221D01*
X15699Y13237D01*
X15716Y13254D01*
X15732Y13287D01*
X15732Y13354D01*
X15716Y13387D01*
X15699Y13404D01*
X15666Y13421D01*
G54D14*
X13474Y10527D02*
X13474Y10041D01*
X13493Y9984D01*
X13512Y9955D01*
X13550Y9927D01*
X13627Y9927D01*
X13665Y9955D01*
X13684Y9984D01*
X13703Y10041D01*
X13703Y10527D01*
X13874Y10470D02*
X13893Y10498D01*
X13931Y10527D01*
X14027Y10527D01*
X14065Y10498D01*
X14084Y10470D01*
X14103Y10413D01*
X14103Y10355D01*
X14084Y10270D01*
X13855Y9927D01*
X14103Y9927D01*
X11970Y8598D02*
X12160Y8598D01*
X11931Y8427D02*
X12065Y9027D01*
X12198Y8427D01*
X12274Y9027D02*
X12503Y9027D01*
X12389Y8427D02*
X12389Y9027D01*
X12636Y8427D02*
X12636Y9027D01*
X12770Y8598D01*
X12903Y9027D01*
X12903Y8427D01*
X13093Y8741D02*
X13227Y8741D01*
X13284Y8427D02*
X13093Y8427D01*
X13093Y9027D01*
X13284Y9027D01*
X13665Y8998D02*
X13627Y9027D01*
X13570Y9027D01*
X13512Y8998D01*
X13474Y8941D01*
X13455Y8884D01*
X13436Y8770D01*
X13436Y8684D01*
X13455Y8570D01*
X13474Y8513D01*
X13512Y8455D01*
X13570Y8427D01*
X13608Y8427D01*
X13665Y8455D01*
X13684Y8484D01*
X13684Y8684D01*
X13608Y8684D01*
X13836Y8598D02*
X14027Y8598D01*
X13798Y8427D02*
X13931Y9027D01*
X14065Y8427D01*
X14160Y9027D02*
X14408Y9027D01*
X14274Y8798D01*
X14331Y8798D01*
X14370Y8770D01*
X14389Y8741D01*
X14408Y8684D01*
X14408Y8541D01*
X14389Y8484D01*
X14370Y8455D01*
X14331Y8427D01*
X14217Y8427D01*
X14179Y8455D01*
X14160Y8484D01*
X14560Y8970D02*
X14579Y8998D01*
X14617Y9027D01*
X14712Y9027D01*
X14750Y8998D01*
X14770Y8970D01*
X14789Y8913D01*
X14789Y8855D01*
X14770Y8770D01*
X14541Y8427D01*
X14789Y8427D01*
X14960Y9027D02*
X14960Y8541D01*
X14979Y8484D01*
X14998Y8455D01*
X15036Y8427D01*
X15112Y8427D01*
X15150Y8455D01*
X15170Y8484D01*
X15189Y8541D01*
X15189Y9027D01*
X15550Y8827D02*
X15550Y8427D01*
X15455Y9055D02*
X15360Y8627D01*
X15608Y8627D01*
G54D10*
X13618Y6278D02*
X13880Y5884D01*
X13880Y6278D02*
X13618Y5884D01*
X14011Y6241D02*
X14030Y6259D01*
X14068Y6278D01*
X14161Y6278D01*
X14199Y6259D01*
X14218Y6241D01*
X14236Y6203D01*
X14236Y6166D01*
X14218Y6109D01*
X13993Y5884D01*
X14236Y5884D01*
X12559Y3325D02*
X12427Y3513D01*
X12334Y3325D02*
X12334Y3719D01*
X12484Y3719D01*
X12521Y3700D01*
X12540Y3682D01*
X12559Y3644D01*
X12559Y3588D01*
X12540Y3550D01*
X12521Y3532D01*
X12484Y3513D01*
X12334Y3513D01*
X12727Y3532D02*
X12859Y3532D01*
X12915Y3325D02*
X12727Y3325D01*
X12727Y3719D01*
X12915Y3719D01*
X13065Y3344D02*
X13121Y3325D01*
X13215Y3325D01*
X13252Y3344D01*
X13271Y3363D01*
X13290Y3400D01*
X13290Y3438D01*
X13271Y3475D01*
X13252Y3494D01*
X13215Y3513D01*
X13140Y3532D01*
X13102Y3550D01*
X13083Y3569D01*
X13065Y3607D01*
X13065Y3644D01*
X13083Y3682D01*
X13102Y3700D01*
X13140Y3719D01*
X13233Y3719D01*
X13290Y3700D01*
X13533Y3719D02*
X13608Y3719D01*
X13646Y3700D01*
X13683Y3663D01*
X13702Y3588D01*
X13702Y3457D01*
X13683Y3382D01*
X13646Y3344D01*
X13608Y3325D01*
X13533Y3325D01*
X13496Y3344D01*
X13458Y3382D01*
X13440Y3457D01*
X13440Y3588D01*
X13458Y3663D01*
X13496Y3700D01*
X13533Y3719D01*
X13871Y3325D02*
X13871Y3719D01*
X14096Y3325D01*
X14096Y3719D01*
X14265Y3438D02*
X14452Y3438D01*
X14227Y3325D02*
X14358Y3719D01*
X14490Y3325D01*
X14565Y3719D02*
X14790Y3719D01*
X14677Y3325D02*
X14677Y3719D01*
X14996Y3719D02*
X15071Y3719D01*
X15108Y3700D01*
X15146Y3663D01*
X15164Y3588D01*
X15164Y3457D01*
X15146Y3382D01*
X15108Y3344D01*
X15071Y3325D01*
X14996Y3325D01*
X14958Y3344D01*
X14921Y3382D01*
X14902Y3457D01*
X14902Y3588D01*
X14921Y3663D01*
X14958Y3700D01*
X14996Y3719D01*
X15558Y3325D02*
X15427Y3513D01*
X15333Y3325D02*
X15333Y3719D01*
X15483Y3719D01*
X15521Y3700D01*
X15539Y3682D01*
X15558Y3644D01*
X15558Y3588D01*
X15539Y3550D01*
X15521Y3532D01*
X15483Y3513D01*
X15333Y3513D01*
G54D15*
X12285Y5736D02*
X12225Y5831D01*
X12183Y5736D02*
X12183Y5936D01*
X12251Y5936D01*
X12268Y5926D01*
X12277Y5917D01*
X12285Y5898D01*
X12285Y5869D01*
X12277Y5850D01*
X12268Y5841D01*
X12251Y5831D01*
X12183Y5831D01*
X12457Y5736D02*
X12354Y5736D01*
X12405Y5736D02*
X12405Y5936D01*
X12388Y5907D01*
X12371Y5888D01*
X12354Y5879D01*
X12525Y5917D02*
X12534Y5926D01*
X12551Y5936D01*
X12594Y5936D01*
X12611Y5926D01*
X12620Y5917D01*
X12628Y5898D01*
X12628Y5879D01*
X12620Y5850D01*
X12517Y5736D01*
X12628Y5736D01*
X16744Y3663D02*
X16648Y3603D01*
X16744Y3560D02*
X16544Y3560D01*
X16544Y3629D01*
X16553Y3646D01*
X16563Y3655D01*
X16582Y3663D01*
X16610Y3663D01*
X16629Y3655D01*
X16639Y3646D01*
X16648Y3629D01*
X16648Y3560D01*
X16744Y3835D02*
X16744Y3732D01*
X16744Y3783D02*
X16544Y3783D01*
X16572Y3766D01*
X16591Y3749D01*
X16601Y3732D01*
X16544Y3895D02*
X16544Y4006D01*
X16620Y3946D01*
X16620Y3972D01*
X16629Y3989D01*
X16639Y3998D01*
X16658Y4006D01*
X16705Y4006D01*
X16724Y3998D01*
X16734Y3989D01*
X16744Y3972D01*
X16744Y3920D01*
X16734Y3903D01*
X16724Y3895D01*
X17295Y3663D02*
X17199Y3603D01*
X17295Y3560D02*
X17095Y3560D01*
X17095Y3629D01*
X17104Y3646D01*
X17114Y3655D01*
X17133Y3663D01*
X17161Y3663D01*
X17180Y3655D01*
X17190Y3646D01*
X17199Y3629D01*
X17199Y3560D01*
X17295Y3835D02*
X17295Y3732D01*
X17295Y3783D02*
X17095Y3783D01*
X17123Y3766D01*
X17142Y3749D01*
X17152Y3732D01*
X17161Y3989D02*
X17295Y3989D01*
X17085Y3946D02*
X17228Y3903D01*
X17228Y4015D01*
G54D16*
X18239Y4581D02*
X18239Y4217D01*
X18261Y4174D01*
X18282Y4152D01*
X18325Y4131D01*
X18411Y4131D01*
X18454Y4152D01*
X18475Y4174D01*
X18496Y4217D01*
X18496Y4581D01*
X18925Y4581D02*
X18711Y4581D01*
X18689Y4367D01*
X18711Y4388D01*
X18754Y4410D01*
X18861Y4410D01*
X18904Y4388D01*
X18925Y4367D01*
X18946Y4324D01*
X18946Y4217D01*
X18925Y4174D01*
X18904Y4152D01*
X18861Y4131D01*
X18754Y4131D01*
X18711Y4152D01*
X18689Y4174D01*
X17449Y4926D02*
X17449Y5276D01*
X17566Y5026D01*
X17682Y5276D01*
X17682Y4926D01*
X18049Y4960D02*
X18032Y4943D01*
X17982Y4926D01*
X17949Y4926D01*
X17899Y4943D01*
X17866Y4976D01*
X17849Y5010D01*
X17832Y5076D01*
X17832Y5126D01*
X17849Y5193D01*
X17866Y5226D01*
X17899Y5260D01*
X17949Y5276D01*
X17982Y5276D01*
X18032Y5260D01*
X18049Y5243D01*
X18199Y4926D02*
X18199Y5276D01*
X18332Y5276D01*
X18366Y5260D01*
X18382Y5243D01*
X18399Y5210D01*
X18399Y5160D01*
X18382Y5126D01*
X18366Y5110D01*
X18332Y5093D01*
X18199Y5093D01*
X18516Y5276D02*
X18749Y5276D01*
X18599Y4926D01*
X18899Y4926D02*
X18966Y4926D01*
X18999Y4943D01*
X19016Y4960D01*
X19049Y5010D01*
X19066Y5076D01*
X19066Y5210D01*
X19049Y5243D01*
X19032Y5260D01*
X18999Y5276D01*
X18932Y5276D01*
X18899Y5260D01*
X18882Y5243D01*
X18866Y5210D01*
X18866Y5126D01*
X18882Y5093D01*
X18899Y5076D01*
X18932Y5060D01*
X18999Y5060D01*
X19032Y5076D01*
X19049Y5093D01*
X19066Y5126D01*
X19366Y5160D02*
X19366Y4926D01*
X19282Y5293D02*
X19199Y5043D01*
X19416Y5043D01*
X19616Y5276D02*
X19649Y5276D01*
X19682Y5260D01*
X19699Y5243D01*
X19716Y5210D01*
X19732Y5143D01*
X19732Y5060D01*
X19716Y4993D01*
X19699Y4960D01*
X19682Y4943D01*
X19649Y4926D01*
X19616Y4926D01*
X19582Y4943D01*
X19566Y4960D01*
X19549Y4993D01*
X19532Y5060D01*
X19532Y5143D01*
X19549Y5210D01*
X19566Y5243D01*
X19582Y5260D01*
X19616Y5276D01*
G54D10*
X18544Y7347D02*
X18937Y7609D01*
X18544Y7609D02*
X18937Y7347D01*
X18900Y7815D02*
X18919Y7834D01*
X18937Y7815D01*
X18919Y7797D01*
X18900Y7815D01*
X18937Y7815D01*
X18562Y7740D02*
X18544Y7778D01*
X18544Y7872D01*
X18562Y7909D01*
X18600Y7928D01*
X18637Y7928D01*
X18675Y7909D01*
X18694Y7890D01*
X18712Y7853D01*
X18731Y7834D01*
X18769Y7815D01*
X18787Y7815D01*
X18937Y8303D02*
X18937Y8078D01*
X18937Y8190D02*
X18544Y8190D01*
X18600Y8153D01*
X18637Y8115D01*
X18656Y8078D01*
X19252Y6206D02*
X19252Y6450D01*
X19402Y6318D01*
X19402Y6375D01*
X19421Y6412D01*
X19440Y6431D01*
X19477Y6450D01*
X19571Y6450D01*
X19609Y6431D01*
X19627Y6412D01*
X19646Y6375D01*
X19646Y6262D01*
X19627Y6225D01*
X19609Y6206D01*
X19290Y6600D02*
X19271Y6618D01*
X19252Y6656D01*
X19252Y6750D01*
X19271Y6787D01*
X19290Y6806D01*
X19327Y6825D01*
X19365Y6825D01*
X19421Y6806D01*
X19646Y6581D01*
X19646Y6825D01*
X19609Y6993D02*
X19627Y7012D01*
X19646Y6993D01*
X19627Y6975D01*
X19609Y6993D01*
X19646Y6993D01*
X19252Y7143D02*
X19252Y7406D01*
X19646Y7237D01*
X19252Y7724D02*
X19252Y7649D01*
X19271Y7612D01*
X19290Y7593D01*
X19346Y7556D01*
X19421Y7537D01*
X19571Y7537D01*
X19609Y7556D01*
X19627Y7574D01*
X19646Y7612D01*
X19646Y7687D01*
X19627Y7724D01*
X19609Y7743D01*
X19571Y7762D01*
X19477Y7762D01*
X19440Y7743D01*
X19421Y7724D01*
X19402Y7687D01*
X19402Y7612D01*
X19421Y7574D01*
X19440Y7556D01*
X19477Y7537D01*
X19421Y7987D02*
X19402Y7949D01*
X19384Y7931D01*
X19346Y7912D01*
X19327Y7912D01*
X19290Y7931D01*
X19271Y7949D01*
X19252Y7987D01*
X19252Y8062D01*
X19271Y8099D01*
X19290Y8118D01*
X19327Y8137D01*
X19346Y8137D01*
X19384Y8118D01*
X19402Y8099D01*
X19421Y8062D01*
X19421Y7987D01*
X19440Y7949D01*
X19459Y7931D01*
X19496Y7912D01*
X19571Y7912D01*
X19609Y7931D01*
X19627Y7949D01*
X19646Y7987D01*
X19646Y8062D01*
X19627Y8099D01*
X19609Y8118D01*
X19571Y8137D01*
X19496Y8137D01*
X19459Y8118D01*
X19440Y8099D01*
X19421Y8062D01*
X19252Y8381D02*
X19252Y8418D01*
X19271Y8456D01*
X19290Y8474D01*
X19327Y8493D01*
X19402Y8512D01*
X19496Y8512D01*
X19571Y8493D01*
X19609Y8474D01*
X19627Y8456D01*
X19646Y8418D01*
X19646Y8381D01*
X19627Y8343D01*
X19609Y8324D01*
X19571Y8306D01*
X19496Y8287D01*
X19402Y8287D01*
X19327Y8306D01*
X19290Y8324D01*
X19271Y8343D01*
X19252Y8381D01*
X19646Y8681D02*
X19252Y8681D01*
X19496Y8718D02*
X19646Y8831D01*
X19384Y8831D02*
X19534Y8681D01*
X19646Y8999D02*
X19252Y8999D01*
X19440Y8999D02*
X19440Y9224D01*
X19646Y9224D02*
X19252Y9224D01*
X19384Y9374D02*
X19384Y9580D01*
X19646Y9374D01*
X19646Y9580D01*
G54D15*
X20386Y7017D02*
X20395Y7008D01*
X20405Y6982D01*
X20405Y6965D01*
X20395Y6940D01*
X20376Y6922D01*
X20357Y6914D01*
X20319Y6905D01*
X20291Y6905D01*
X20253Y6914D01*
X20234Y6922D01*
X20214Y6940D01*
X20205Y6965D01*
X20205Y6982D01*
X20214Y7008D01*
X20224Y7017D01*
X20205Y7171D02*
X20205Y7137D01*
X20214Y7120D01*
X20224Y7111D01*
X20253Y7094D01*
X20291Y7085D01*
X20367Y7085D01*
X20386Y7094D01*
X20395Y7102D01*
X20405Y7120D01*
X20405Y7154D01*
X20395Y7171D01*
X20386Y7180D01*
X20367Y7188D01*
X20319Y7188D01*
X20300Y7180D01*
X20291Y7171D01*
X20281Y7154D01*
X20281Y7120D01*
X20291Y7102D01*
X20300Y7094D01*
X20319Y7085D01*
X17945Y7017D02*
X17954Y7008D01*
X17964Y6982D01*
X17964Y6965D01*
X17954Y6940D01*
X17935Y6922D01*
X17916Y6914D01*
X17878Y6905D01*
X17850Y6905D01*
X17812Y6914D01*
X17793Y6922D01*
X17774Y6940D01*
X17764Y6965D01*
X17764Y6982D01*
X17774Y7008D01*
X17783Y7017D01*
X17764Y7077D02*
X17764Y7197D01*
X17964Y7120D01*
G54D10*
X11122Y4385D02*
X11441Y4385D01*
X11479Y4403D01*
X11497Y4422D01*
X11516Y4460D01*
X11516Y4535D01*
X11497Y4572D01*
X11479Y4591D01*
X11441Y4610D01*
X11122Y4610D01*
X11254Y4966D02*
X11516Y4966D01*
X11104Y4872D02*
X11385Y4778D01*
X11385Y5022D01*
X13248Y3447D02*
X12855Y3447D01*
X13136Y3578D01*
X12855Y3710D01*
X13248Y3710D01*
X13136Y3878D02*
X13136Y4066D01*
X13248Y3841D02*
X12855Y3972D01*
X13248Y4103D01*
X12855Y4197D02*
X13248Y4460D01*
X12855Y4460D02*
X13248Y4197D01*
X12855Y4778D02*
X12855Y4703D01*
X12874Y4666D01*
X12892Y4647D01*
X12949Y4610D01*
X13023Y4591D01*
X13173Y4591D01*
X13211Y4610D01*
X13230Y4628D01*
X13248Y4666D01*
X13248Y4741D01*
X13230Y4778D01*
X13211Y4797D01*
X13173Y4816D01*
X13080Y4816D01*
X13042Y4797D01*
X13023Y4778D01*
X13005Y4741D01*
X13005Y4666D01*
X13023Y4628D01*
X13042Y4610D01*
X13080Y4591D01*
X12855Y4947D02*
X12855Y5191D01*
X13005Y5059D01*
X13005Y5116D01*
X13023Y5153D01*
X13042Y5172D01*
X13080Y5191D01*
X13173Y5191D01*
X13211Y5172D01*
X13230Y5153D01*
X13248Y5116D01*
X13248Y5003D01*
X13230Y4966D01*
X13211Y4947D01*
X12855Y5528D02*
X12855Y5453D01*
X12874Y5416D01*
X12892Y5397D01*
X12949Y5359D01*
X13023Y5341D01*
X13173Y5341D01*
X13211Y5359D01*
X13230Y5378D01*
X13248Y5416D01*
X13248Y5491D01*
X13230Y5528D01*
X13211Y5547D01*
X13173Y5566D01*
X13080Y5566D01*
X13042Y5547D01*
X13023Y5528D01*
X13005Y5491D01*
X13005Y5416D01*
X13023Y5378D01*
X13042Y5359D01*
X13080Y5341D01*
X13248Y5753D02*
X13248Y5828D01*
X13230Y5866D01*
X13211Y5884D01*
X13155Y5922D01*
X13080Y5941D01*
X12930Y5941D01*
X12892Y5922D01*
X12874Y5903D01*
X12855Y5866D01*
X12855Y5791D01*
X12874Y5753D01*
X12892Y5734D01*
X12930Y5716D01*
X13023Y5716D01*
X13061Y5734D01*
X13080Y5753D01*
X13098Y5791D01*
X13098Y5866D01*
X13080Y5903D01*
X13061Y5922D01*
X13023Y5941D01*
X12191Y2695D02*
X12191Y2414D01*
X12172Y2358D01*
X12135Y2320D01*
X12079Y2302D01*
X12041Y2302D01*
X12379Y2302D02*
X12379Y2695D01*
X12529Y2695D01*
X12566Y2677D01*
X12585Y2658D01*
X12604Y2620D01*
X12604Y2564D01*
X12585Y2527D01*
X12566Y2508D01*
X12529Y2489D01*
X12379Y2489D01*
X12979Y2302D02*
X12754Y2302D01*
X12866Y2302D02*
X12866Y2695D01*
X12829Y2639D01*
X12791Y2602D01*
X12754Y2583D01*
X11385Y4703D02*
X11385Y4422D01*
X11366Y4366D01*
X11329Y4328D01*
X11272Y4310D01*
X11235Y4310D01*
X11572Y4703D02*
X11572Y4385D01*
X11591Y4347D01*
X11610Y4328D01*
X11647Y4310D01*
X11722Y4310D01*
X11760Y4328D01*
X11779Y4347D01*
X11797Y4385D01*
X11797Y4703D01*
X11985Y4310D02*
X11985Y4703D01*
X12116Y4422D01*
X12247Y4703D01*
X12247Y4310D01*
X12435Y4310D02*
X12435Y4703D01*
X12585Y4703D01*
X12622Y4685D01*
X12641Y4666D01*
X12660Y4628D01*
X12660Y4572D01*
X12641Y4535D01*
X12622Y4516D01*
X12585Y4497D01*
X12435Y4497D01*
X12829Y4516D02*
X12960Y4516D01*
X13016Y4310D02*
X12829Y4310D01*
X12829Y4703D01*
X13016Y4703D01*
X13410Y4310D02*
X13278Y4497D01*
X13185Y4310D02*
X13185Y4703D01*
X13335Y4703D01*
X13372Y4685D01*
X13391Y4666D01*
X13410Y4628D01*
X13410Y4572D01*
X13391Y4535D01*
X13372Y4516D01*
X13335Y4497D01*
X13185Y4497D01*
X13541Y4703D02*
X13785Y4703D01*
X13653Y4553D01*
X13710Y4553D01*
X13747Y4535D01*
X13766Y4516D01*
X13785Y4478D01*
X13785Y4385D01*
X13766Y4347D01*
X13747Y4328D01*
X13710Y4310D01*
X13597Y4310D01*
X13560Y4328D01*
X13541Y4347D01*
X12225Y4475D02*
X12506Y4475D01*
X12562Y4456D01*
X12600Y4418D01*
X12619Y4362D01*
X12619Y4325D01*
X12619Y4662D02*
X12225Y4662D01*
X12225Y4812D01*
X12244Y4850D01*
X12262Y4868D01*
X12300Y4887D01*
X12356Y4887D01*
X12394Y4868D01*
X12412Y4850D01*
X12431Y4812D01*
X12431Y4662D01*
X12225Y5018D02*
X12225Y5262D01*
X12375Y5131D01*
X12375Y5187D01*
X12394Y5224D01*
X12412Y5243D01*
X12450Y5262D01*
X12544Y5262D01*
X12581Y5243D01*
X12600Y5224D01*
X12619Y5187D01*
X12619Y5074D01*
X12600Y5037D01*
X12581Y5018D01*
X10217Y3668D02*
X10498Y3668D01*
X10554Y3650D01*
X10592Y3612D01*
X10611Y3556D01*
X10611Y3518D01*
X10217Y3856D02*
X10536Y3856D01*
X10573Y3875D01*
X10592Y3893D01*
X10611Y3931D01*
X10611Y4006D01*
X10592Y4043D01*
X10573Y4062D01*
X10536Y4081D01*
X10217Y4081D01*
X10611Y4268D02*
X10217Y4268D01*
X10498Y4400D01*
X10217Y4531D01*
X10611Y4531D01*
X10611Y4718D02*
X10217Y4718D01*
X10217Y4868D01*
X10236Y4906D01*
X10254Y4925D01*
X10292Y4943D01*
X10348Y4943D01*
X10386Y4925D01*
X10404Y4906D01*
X10423Y4868D01*
X10423Y4718D01*
X10404Y5112D02*
X10404Y5243D01*
X10611Y5299D02*
X10611Y5112D01*
X10217Y5112D01*
X10217Y5299D01*
X10611Y5693D02*
X10423Y5562D01*
X10611Y5468D02*
X10217Y5468D01*
X10217Y5618D01*
X10236Y5656D01*
X10254Y5674D01*
X10292Y5693D01*
X10348Y5693D01*
X10386Y5674D01*
X10404Y5656D01*
X10423Y5618D01*
X10423Y5468D01*
X10217Y5824D02*
X10217Y6068D01*
X10367Y5937D01*
X10367Y5993D01*
X10386Y6031D01*
X10404Y6049D01*
X10442Y6068D01*
X10536Y6068D01*
X10573Y6049D01*
X10592Y6031D01*
X10611Y5993D01*
X10611Y5881D01*
X10592Y5843D01*
X10573Y5824D01*
X9941Y5065D02*
X10223Y5065D01*
X10279Y5046D01*
X10316Y5009D01*
X10335Y4953D01*
X10335Y4915D01*
X10335Y5253D02*
X9941Y5253D01*
X9941Y5403D01*
X9960Y5440D01*
X9979Y5459D01*
X10016Y5478D01*
X10073Y5478D01*
X10110Y5459D01*
X10129Y5440D01*
X10148Y5403D01*
X10148Y5253D01*
X9979Y5628D02*
X9960Y5646D01*
X9941Y5684D01*
X9941Y5778D01*
X9960Y5815D01*
X9979Y5834D01*
X10016Y5853D01*
X10054Y5853D01*
X10110Y5834D01*
X10335Y5609D01*
X10335Y5853D01*
X11949Y4259D02*
X12230Y4259D01*
X12287Y4240D01*
X12324Y4203D01*
X12343Y4146D01*
X12343Y4109D01*
X11949Y4446D02*
X12268Y4446D01*
X12305Y4465D01*
X12324Y4484D01*
X12343Y4521D01*
X12343Y4596D01*
X12324Y4634D01*
X12305Y4653D01*
X12268Y4671D01*
X11949Y4671D01*
X12343Y4859D02*
X11949Y4859D01*
X12230Y4990D01*
X11949Y5121D01*
X12343Y5121D01*
X12343Y5309D02*
X11949Y5309D01*
X11949Y5459D01*
X11968Y5496D01*
X11987Y5515D01*
X12024Y5534D01*
X12080Y5534D01*
X12118Y5515D01*
X12137Y5496D01*
X12155Y5459D01*
X12155Y5309D01*
X12137Y5703D02*
X12137Y5834D01*
X12343Y5890D02*
X12343Y5703D01*
X11949Y5703D01*
X11949Y5890D01*
X12343Y6284D02*
X12155Y6152D01*
X12343Y6059D02*
X11949Y6059D01*
X11949Y6209D01*
X11968Y6246D01*
X11987Y6265D01*
X12024Y6284D01*
X12080Y6284D01*
X12118Y6265D01*
X12137Y6246D01*
X12155Y6209D01*
X12155Y6059D01*
X11949Y6415D02*
X11949Y6659D01*
X12099Y6527D01*
X12099Y6584D01*
X12118Y6621D01*
X12137Y6640D01*
X12174Y6659D01*
X12268Y6659D01*
X12305Y6640D01*
X12324Y6621D01*
X12343Y6584D01*
X12343Y6471D01*
X12324Y6434D01*
X12305Y6415D01*
G54D13*
X16410Y13554D02*
X16733Y13554D01*
X16771Y13576D01*
X16791Y13597D01*
X16810Y13640D01*
X16810Y13726D01*
X16791Y13769D01*
X16771Y13790D01*
X16733Y13811D01*
X16410Y13811D01*
X16410Y13983D02*
X16410Y14283D01*
X16810Y14090D01*
X17010Y11990D02*
X17010Y12290D01*
X17410Y12097D01*
X17143Y12654D02*
X17410Y12654D01*
X16991Y12547D02*
X17276Y12440D01*
X17276Y12719D01*
X17410Y12890D02*
X17010Y12890D01*
X17200Y12890D02*
X17200Y13147D01*
X17410Y13147D02*
X17010Y13147D01*
X17371Y13619D02*
X17391Y13597D01*
X17410Y13533D01*
X17410Y13490D01*
X17391Y13426D01*
X17352Y13383D01*
X17314Y13361D01*
X17238Y13340D01*
X17181Y13340D01*
X17105Y13361D01*
X17067Y13383D01*
X17029Y13426D01*
X17010Y13490D01*
X17010Y13533D01*
X17029Y13597D01*
X17048Y13619D01*
X17143Y14004D02*
X17410Y14004D01*
X16991Y13897D02*
X17276Y13790D01*
X17276Y14069D01*
X17010Y14326D02*
X17010Y14369D01*
X17029Y14411D01*
X17048Y14433D01*
X17086Y14454D01*
X17162Y14476D01*
X17257Y14476D01*
X17333Y14454D01*
X17371Y14433D01*
X17391Y14411D01*
X17410Y14369D01*
X17410Y14326D01*
X17391Y14283D01*
X17371Y14261D01*
X17333Y14240D01*
X17257Y14219D01*
X17162Y14219D01*
X17086Y14240D01*
X17048Y14261D01*
X17029Y14283D01*
X17010Y14326D01*
X17010Y14883D02*
X17010Y14669D01*
X17200Y14647D01*
X17181Y14669D01*
X17162Y14711D01*
X17162Y14819D01*
X17181Y14861D01*
X17200Y14883D01*
X17238Y14904D01*
X17333Y14904D01*
X17371Y14883D01*
X17391Y14861D01*
X17410Y14819D01*
X17410Y14711D01*
X17391Y14669D01*
X17371Y14647D01*
X17010Y15183D02*
X17010Y15226D01*
X17029Y15269D01*
X17048Y15290D01*
X17086Y15311D01*
X17162Y15333D01*
X17257Y15333D01*
X17333Y15311D01*
X17371Y15290D01*
X17391Y15269D01*
X17410Y15226D01*
X17410Y15183D01*
X17391Y15140D01*
X17371Y15119D01*
X17333Y15097D01*
X17257Y15076D01*
X17162Y15076D01*
X17086Y15097D01*
X17048Y15119D01*
X17029Y15140D01*
X17010Y15183D01*
X17410Y15526D02*
X17010Y15526D01*
X17010Y15633D01*
X17029Y15697D01*
X17067Y15740D01*
X17105Y15761D01*
X17181Y15783D01*
X17238Y15783D01*
X17314Y15761D01*
X17352Y15740D01*
X17391Y15697D01*
X17410Y15633D01*
X17410Y15526D01*
G54D14*
X586Y8592D02*
X991Y8592D01*
X1039Y8611D01*
X1063Y8630D01*
X1086Y8669D01*
X1086Y8745D01*
X1063Y8783D01*
X1039Y8802D01*
X991Y8821D01*
X586Y8821D01*
X586Y9183D02*
X586Y9107D01*
X610Y9069D01*
X634Y9050D01*
X705Y9011D01*
X801Y8992D01*
X991Y8992D01*
X1039Y9011D01*
X1063Y9030D01*
X1086Y9069D01*
X1086Y9145D01*
X1063Y9183D01*
X1039Y9202D01*
X991Y9221D01*
X872Y9221D01*
X824Y9202D01*
X801Y9183D01*
X777Y9145D01*
X777Y9069D01*
X801Y9030D01*
X824Y9011D01*
X872Y8992D01*
X4191Y7535D02*
X4001Y7402D01*
X4191Y7307D02*
X3791Y7307D01*
X3791Y7459D01*
X3810Y7497D01*
X3829Y7516D01*
X3867Y7535D01*
X3924Y7535D01*
X3963Y7516D01*
X3982Y7497D01*
X4001Y7459D01*
X4001Y7307D01*
X3982Y7707D02*
X3982Y7840D01*
X4191Y7897D02*
X4191Y7707D01*
X3791Y7707D01*
X3791Y7897D01*
X3810Y8278D02*
X3791Y8240D01*
X3791Y8183D01*
X3810Y8126D01*
X3848Y8088D01*
X3886Y8069D01*
X3963Y8050D01*
X4020Y8050D01*
X4096Y8069D01*
X4134Y8088D01*
X4172Y8126D01*
X4191Y8183D01*
X4191Y8221D01*
X4172Y8278D01*
X4153Y8297D01*
X4020Y8297D01*
X4020Y8221D01*
X3791Y8469D02*
X4115Y8469D01*
X4153Y8488D01*
X4172Y8507D01*
X4191Y8545D01*
X4191Y8621D01*
X4172Y8659D01*
X4153Y8678D01*
X4115Y8697D01*
X3791Y8697D01*
X4191Y9078D02*
X4191Y8888D01*
X3791Y8888D01*
X4077Y9192D02*
X4077Y9383D01*
X4191Y9154D02*
X3791Y9288D01*
X4191Y9421D01*
X3791Y9497D02*
X3791Y9726D01*
X4191Y9611D02*
X3791Y9611D01*
X3791Y9935D02*
X3791Y10011D01*
X3810Y10050D01*
X3848Y10088D01*
X3924Y10107D01*
X4058Y10107D01*
X4134Y10088D01*
X4172Y10050D01*
X4191Y10011D01*
X4191Y9935D01*
X4172Y9897D01*
X4134Y9859D01*
X4058Y9840D01*
X3924Y9840D01*
X3848Y9859D01*
X3810Y9897D01*
X3791Y9935D01*
X4191Y10507D02*
X4001Y10373D01*
X4191Y10278D02*
X3791Y10278D01*
X3791Y10430D01*
X3810Y10469D01*
X3829Y10488D01*
X3867Y10507D01*
X3924Y10507D01*
X3963Y10488D01*
X3982Y10469D01*
X4001Y10430D01*
X4001Y10278D01*
G54D10*
X20591Y13530D02*
X20872Y13530D01*
X20928Y13511D01*
X20966Y13473D01*
X20985Y13417D01*
X20985Y13380D01*
X20722Y13886D02*
X20985Y13886D01*
X20572Y13792D02*
X20853Y13698D01*
X20853Y13942D01*
X17896Y9630D02*
X17915Y9611D01*
X17934Y9555D01*
X17934Y9518D01*
X17915Y9461D01*
X17877Y9424D01*
X17840Y9405D01*
X17765Y9386D01*
X17709Y9386D01*
X17634Y9405D01*
X17596Y9424D01*
X17559Y9461D01*
X17540Y9518D01*
X17540Y9555D01*
X17559Y9611D01*
X17577Y9630D01*
X17540Y9874D02*
X17540Y9949D01*
X17559Y9986D01*
X17596Y10024D01*
X17671Y10043D01*
X17802Y10043D01*
X17877Y10024D01*
X17915Y9986D01*
X17934Y9949D01*
X17934Y9874D01*
X17915Y9836D01*
X17877Y9799D01*
X17802Y9780D01*
X17671Y9780D01*
X17596Y9799D01*
X17559Y9836D01*
X17540Y9874D01*
X17934Y10211D02*
X17540Y10211D01*
X17934Y10436D01*
X17540Y10436D01*
X17934Y10624D02*
X17540Y10624D01*
X17934Y10849D01*
X17540Y10849D01*
X17971Y10943D02*
X17971Y11242D01*
X17934Y11336D02*
X17540Y11336D01*
X17821Y11467D01*
X17540Y11599D01*
X17934Y11599D01*
X17934Y11786D02*
X17540Y11786D01*
X17896Y12199D02*
X17915Y12180D01*
X17934Y12124D01*
X17934Y12086D01*
X17915Y12030D01*
X17877Y11992D01*
X17840Y11974D01*
X17765Y11955D01*
X17709Y11955D01*
X17634Y11974D01*
X17596Y11992D01*
X17559Y12030D01*
X17540Y12086D01*
X17540Y12124D01*
X17559Y12180D01*
X17577Y12199D01*
X17934Y12592D02*
X17746Y12461D01*
X17934Y12367D02*
X17540Y12367D01*
X17540Y12517D01*
X17559Y12555D01*
X17577Y12574D01*
X17615Y12592D01*
X17671Y12592D01*
X17709Y12574D01*
X17727Y12555D01*
X17746Y12517D01*
X17746Y12367D01*
X17540Y12836D02*
X17540Y12911D01*
X17559Y12949D01*
X17596Y12986D01*
X17671Y13005D01*
X17802Y13005D01*
X17877Y12986D01*
X17915Y12949D01*
X17934Y12911D01*
X17934Y12836D01*
X17915Y12799D01*
X17877Y12761D01*
X17802Y12742D01*
X17671Y12742D01*
X17596Y12761D01*
X17559Y12799D01*
X17540Y12836D01*
X17915Y13155D02*
X17934Y13211D01*
X17934Y13305D01*
X17915Y13342D01*
X17896Y13361D01*
X17859Y13380D01*
X17821Y13380D01*
X17784Y13361D01*
X17765Y13342D01*
X17746Y13305D01*
X17727Y13230D01*
X17709Y13192D01*
X17690Y13173D01*
X17652Y13155D01*
X17615Y13155D01*
X17577Y13173D01*
X17559Y13192D01*
X17540Y13230D01*
X17540Y13323D01*
X17559Y13380D01*
X17934Y13548D02*
X17540Y13548D01*
X17540Y13642D01*
X17559Y13698D01*
X17596Y13736D01*
X17634Y13755D01*
X17709Y13773D01*
X17765Y13773D01*
X17840Y13755D01*
X17877Y13736D01*
X17915Y13698D01*
X17934Y13642D01*
X17934Y13548D01*
X17971Y13848D02*
X17971Y14148D01*
X17671Y14411D02*
X17934Y14411D01*
X17521Y14317D02*
X17802Y14223D01*
X17802Y14467D01*
X17540Y14580D02*
X17540Y14842D01*
X17934Y14673D01*
X17540Y14955D02*
X17540Y15198D01*
X17690Y15067D01*
X17690Y15123D01*
X17709Y15161D01*
X17727Y15179D01*
X17765Y15198D01*
X17859Y15198D01*
X17896Y15179D01*
X17915Y15161D01*
X17934Y15123D01*
X17934Y15011D01*
X17915Y14973D01*
X17896Y14955D01*
X17540Y15442D02*
X17540Y15479D01*
X17559Y15517D01*
X17577Y15536D01*
X17615Y15554D01*
X17690Y15573D01*
X17784Y15573D01*
X17859Y15554D01*
X17896Y15536D01*
X17915Y15517D01*
X17934Y15479D01*
X17934Y15442D01*
X17915Y15404D01*
X17896Y15386D01*
X17859Y15367D01*
X17784Y15348D01*
X17690Y15348D01*
X17615Y15367D01*
X17577Y15386D01*
X17559Y15404D01*
X17540Y15442D01*
X17934Y15761D02*
X17934Y15836D01*
X17915Y15873D01*
X17896Y15892D01*
X17840Y15929D01*
X17765Y15948D01*
X17615Y15948D01*
X17577Y15929D01*
X17559Y15911D01*
X17540Y15873D01*
X17540Y15798D01*
X17559Y15761D01*
X17577Y15742D01*
X17615Y15723D01*
X17709Y15723D01*
X17746Y15742D01*
X17765Y15761D01*
X17784Y15798D01*
X17784Y15873D01*
X17765Y15911D01*
X17746Y15929D01*
X17709Y15948D01*
X17784Y16117D02*
X17784Y16417D01*
X17577Y16586D02*
X17559Y16604D01*
X17540Y16642D01*
X17540Y16736D01*
X17559Y16773D01*
X17577Y16792D01*
X17615Y16811D01*
X17652Y16811D01*
X17709Y16792D01*
X17934Y16567D01*
X17934Y16811D01*
X17540Y17148D02*
X17540Y17073D01*
X17559Y17035D01*
X17577Y17017D01*
X17634Y16979D01*
X17709Y16961D01*
X17859Y16961D01*
X17896Y16979D01*
X17915Y16998D01*
X17934Y17035D01*
X17934Y17110D01*
X17915Y17148D01*
X17896Y17167D01*
X17859Y17185D01*
X17765Y17185D01*
X17727Y17167D01*
X17709Y17148D01*
X17690Y17110D01*
X17690Y17035D01*
X17709Y16998D01*
X17727Y16979D01*
X17765Y16961D01*
X17540Y17542D02*
X17540Y17354D01*
X17727Y17335D01*
X17709Y17354D01*
X17690Y17392D01*
X17690Y17485D01*
X17709Y17523D01*
X17727Y17542D01*
X17765Y17560D01*
X17859Y17560D01*
X17896Y17542D01*
X17915Y17523D01*
X17934Y17485D01*
X17934Y17392D01*
X17915Y17354D01*
X17896Y17335D01*
X17934Y17935D02*
X17934Y17710D01*
X17934Y17823D02*
X17540Y17823D01*
X17596Y17785D01*
X17634Y17748D01*
X17652Y17710D01*
G54D14*
X8799Y7152D02*
X8399Y7152D01*
X8399Y7304D01*
X8418Y7342D01*
X8437Y7361D01*
X8475Y7380D01*
X8532Y7380D01*
X8570Y7361D01*
X8589Y7342D01*
X8608Y7304D01*
X8608Y7152D01*
X8799Y7761D02*
X8799Y7533D01*
X8799Y7647D02*
X8399Y7647D01*
X8456Y7609D01*
X8494Y7571D01*
X8513Y7533D01*
X8570Y7990D02*
X8551Y7952D01*
X8532Y7933D01*
X8494Y7913D01*
X8475Y7913D01*
X8437Y7933D01*
X8418Y7952D01*
X8399Y7990D01*
X8399Y8066D01*
X8418Y8104D01*
X8437Y8123D01*
X8475Y8142D01*
X8494Y8142D01*
X8532Y8123D01*
X8551Y8104D01*
X8570Y8066D01*
X8570Y7990D01*
X8589Y7952D01*
X8608Y7933D01*
X8646Y7913D01*
X8722Y7913D01*
X8760Y7933D01*
X8780Y7952D01*
X8799Y7990D01*
X8799Y8066D01*
X8780Y8104D01*
X8760Y8123D01*
X8722Y8142D01*
X8646Y8142D01*
X8608Y8123D01*
X8589Y8104D01*
X8570Y8066D01*
G54D10*
X6636Y9524D02*
X6617Y9505D01*
X6561Y9487D01*
X6524Y9487D01*
X6467Y9505D01*
X6430Y9543D01*
X6411Y9580D01*
X6392Y9655D01*
X6392Y9712D01*
X6411Y9787D01*
X6430Y9824D01*
X6467Y9862D01*
X6524Y9880D01*
X6561Y9880D01*
X6617Y9862D01*
X6636Y9843D01*
X7011Y9487D02*
X6786Y9487D01*
X6899Y9487D02*
X6899Y9880D01*
X6861Y9824D01*
X6824Y9787D01*
X6786Y9768D01*
X7161Y9843D02*
X7180Y9862D01*
X7217Y9880D01*
X7311Y9880D01*
X7349Y9862D01*
X7367Y9843D01*
X7386Y9805D01*
X7386Y9768D01*
X7367Y9712D01*
X7142Y9487D01*
X7386Y9487D01*
X6599Y7978D02*
X6599Y7715D01*
X6505Y8128D02*
X6411Y7846D01*
X6655Y7846D01*
X6767Y8109D02*
X7030Y8109D01*
X6861Y7715D01*
X7349Y7978D02*
X7349Y7715D01*
X7180Y7978D02*
X7180Y7771D01*
X7199Y7734D01*
X7236Y7715D01*
X7292Y7715D01*
X7330Y7734D01*
X7349Y7753D01*
G54D15*
X17837Y11070D02*
X17828Y11060D01*
X17802Y11051D01*
X17785Y11051D01*
X17759Y11060D01*
X17742Y11079D01*
X17734Y11098D01*
X17725Y11136D01*
X17725Y11165D01*
X17734Y11203D01*
X17742Y11222D01*
X17759Y11241D01*
X17785Y11251D01*
X17802Y11251D01*
X17828Y11241D01*
X17837Y11232D01*
X18008Y11051D02*
X17905Y11051D01*
X17957Y11051D02*
X17957Y11251D01*
X17939Y11222D01*
X17922Y11203D01*
X17905Y11194D01*
X18068Y11251D02*
X18179Y11251D01*
X18119Y11175D01*
X18145Y11175D01*
X18162Y11165D01*
X18171Y11156D01*
X18179Y11136D01*
X18179Y11089D01*
X18171Y11070D01*
X18162Y11060D01*
X18145Y11051D01*
X18094Y11051D01*
X18077Y11060D01*
X18068Y11070D01*
G54D12*
X1029Y12949D02*
X1458Y12949D01*
X1543Y12921D01*
X1601Y12863D01*
X1629Y12778D01*
X1629Y12721D01*
X1086Y13206D02*
X1058Y13235D01*
X1029Y13292D01*
X1029Y13435D01*
X1058Y13492D01*
X1086Y13521D01*
X1143Y13549D01*
X1201Y13549D01*
X1286Y13521D01*
X1629Y13178D01*
X1629Y13549D01*
X4072Y10735D02*
X4101Y10706D01*
X4129Y10621D01*
X4129Y10563D01*
X4101Y10478D01*
X4043Y10421D01*
X3986Y10392D01*
X3872Y10363D01*
X3786Y10363D01*
X3672Y10392D01*
X3615Y10421D01*
X3558Y10478D01*
X3529Y10563D01*
X3529Y10621D01*
X3558Y10706D01*
X3586Y10735D01*
X3529Y11106D02*
X3529Y11221D01*
X3558Y11278D01*
X3615Y11335D01*
X3729Y11363D01*
X3929Y11363D01*
X4043Y11335D01*
X4101Y11278D01*
X4129Y11221D01*
X4129Y11106D01*
X4101Y11049D01*
X4043Y10992D01*
X3929Y10963D01*
X3729Y10963D01*
X3615Y10992D01*
X3558Y11049D01*
X3529Y11106D01*
X4129Y11621D02*
X3529Y11621D01*
X4129Y11963D01*
X3529Y11963D01*
X4129Y12249D02*
X3529Y12249D01*
X4129Y12592D01*
X3529Y12592D01*
X4186Y12735D02*
X4186Y13192D01*
X3529Y13335D02*
X4015Y13335D01*
X4072Y13363D01*
X4101Y13392D01*
X4129Y13449D01*
X4129Y13563D01*
X4101Y13621D01*
X4072Y13649D01*
X4015Y13678D01*
X3529Y13678D01*
X4101Y13935D02*
X4129Y14021D01*
X4129Y14163D01*
X4101Y14221D01*
X4072Y14249D01*
X4015Y14278D01*
X3958Y14278D01*
X3901Y14249D01*
X3872Y14221D01*
X3843Y14163D01*
X3815Y14049D01*
X3786Y13992D01*
X3758Y13963D01*
X3701Y13935D01*
X3643Y13935D01*
X3586Y13963D01*
X3558Y13992D01*
X3529Y14049D01*
X3529Y14192D01*
X3558Y14278D01*
X3815Y14735D02*
X3843Y14821D01*
X3872Y14849D01*
X3929Y14878D01*
X4015Y14878D01*
X4072Y14849D01*
X4101Y14821D01*
X4129Y14763D01*
X4129Y14535D01*
X3529Y14535D01*
X3529Y14735D01*
X3558Y14792D01*
X3586Y14821D01*
X3643Y14849D01*
X3701Y14849D01*
X3758Y14821D01*
X3786Y14792D01*
X3815Y14735D01*
X3815Y14535D01*
X4186Y14992D02*
X4186Y15449D01*
X3815Y15792D02*
X3843Y15878D01*
X3872Y15906D01*
X3929Y15935D01*
X4015Y15935D01*
X4072Y15906D01*
X4101Y15878D01*
X4129Y15821D01*
X4129Y15592D01*
X3529Y15592D01*
X3529Y15792D01*
X3558Y15849D01*
X3586Y15878D01*
X3643Y15906D01*
X3701Y15906D01*
X3758Y15878D01*
X3786Y15849D01*
X3815Y15792D01*
X3815Y15592D01*
G54D17*
X6677Y3167D02*
X6677Y3561D01*
X6771Y3561D01*
X6827Y3543D01*
X6865Y3505D01*
X6884Y3468D01*
X6902Y3392D01*
X6902Y3336D01*
X6884Y3261D01*
X6865Y3224D01*
X6827Y3186D01*
X6771Y3167D01*
X6677Y3167D01*
X7259Y3561D02*
X7071Y3561D01*
X7052Y3374D01*
X7071Y3392D01*
X7109Y3411D01*
X7203Y3411D01*
X7240Y3392D01*
X7259Y3374D01*
X7278Y3336D01*
X7278Y3242D01*
X7259Y3205D01*
X7240Y3186D01*
X7203Y3167D01*
X7109Y3167D01*
X7071Y3186D01*
X7052Y3205D01*
X6912Y5293D02*
X6687Y5293D01*
X6799Y5293D02*
X6799Y5687D01*
X6762Y5631D01*
X6724Y5594D01*
X6687Y5575D01*
X7062Y5406D02*
X7249Y5406D01*
X7024Y5293D02*
X7156Y5687D01*
X7287Y5293D01*
M02*
