G04 (created by PCBNEW (2013-mar-13)-testing) date R 28 juuni 2013 13:42:34 EEST*
%MOIN*%
G04 Gerber Fmt 3.4, Leading zero omitted, Abs format*
%FSLAX34Y34*%
G01*
G70*
G90*
G04 APERTURE LIST*
%ADD10C,0.005906*%
%ADD11C,0.059055*%
%ADD12R,0.060000X0.060000*%
%ADD13C,0.060000*%
%ADD14C,0.039370*%
%ADD15C,0.098425*%
%ADD16C,0.196850*%
%ADD17C,0.078740*%
%ADD18C,0.106300*%
G04 APERTURE END LIST*
G54D10*
G54D11*
X6803Y685D03*
X7803Y685D03*
X8803Y685D03*
X9803Y685D03*
X10803Y685D03*
X11803Y685D03*
X12803Y685D03*
X5803Y685D03*
X13803Y18685D03*
X14803Y18685D03*
X15803Y18685D03*
X16803Y18685D03*
X17803Y18685D03*
X18803Y18685D03*
X19803Y18685D03*
X12803Y18685D03*
G54D12*
X14803Y685D03*
G54D13*
X15803Y685D03*
X16803Y685D03*
X17803Y685D03*
X18803Y685D03*
X19803Y685D03*
G54D11*
X3203Y18685D03*
X4203Y18685D03*
X5203Y18685D03*
X6203Y18685D03*
X7203Y18685D03*
X8203Y18685D03*
X9203Y18685D03*
X2203Y18685D03*
X10203Y18685D03*
X11203Y18685D03*
X13799Y17677D03*
X14799Y17677D03*
X15799Y17677D03*
X16799Y17677D03*
X17799Y17677D03*
X18799Y17677D03*
X19799Y17677D03*
X12799Y17677D03*
X13799Y16673D03*
X14799Y16673D03*
X15799Y16673D03*
X16799Y16673D03*
X17799Y16673D03*
X18799Y16673D03*
X19799Y16673D03*
X12799Y16673D03*
G54D12*
X14783Y1673D03*
G54D13*
X15783Y1673D03*
X16783Y1673D03*
X17783Y1673D03*
X18783Y1673D03*
X19783Y1673D03*
G54D12*
X14803Y2677D03*
G54D13*
X15803Y2677D03*
X16803Y2677D03*
X17803Y2677D03*
X18803Y2677D03*
X19803Y2677D03*
G54D11*
X3232Y17677D03*
X4232Y17677D03*
X5232Y17677D03*
X6232Y17677D03*
X7232Y17677D03*
X8232Y17677D03*
X9232Y17677D03*
X2232Y17677D03*
X10232Y17677D03*
X11232Y17677D03*
X3232Y16673D03*
X4232Y16673D03*
X5232Y16673D03*
X6232Y16673D03*
X7232Y16673D03*
X8232Y16673D03*
X9232Y16673D03*
X2232Y16673D03*
X10232Y16673D03*
X11232Y16673D03*
G54D14*
X2826Y12312D03*
X2826Y14055D03*
G54D15*
X1574Y11574D03*
X1574Y14803D03*
G54D16*
X3818Y1102D03*
X5000Y2952D03*
X2637Y2952D03*
G54D17*
X6771Y10866D03*
X6062Y10354D03*
X6771Y9842D03*
X5748Y9527D03*
X5196Y10354D03*
X5629Y11141D03*
G54D12*
X10618Y6637D03*
G54D13*
X9618Y6637D03*
X10618Y7637D03*
X9618Y7637D03*
X10618Y8637D03*
X9618Y8637D03*
X5708Y12649D03*
X5708Y13649D03*
X4921Y13649D03*
X4921Y12649D03*
G54D18*
X3858Y10787D03*
X3858Y15511D03*
M02*
