M48
INCH,TZ
T1C0.012
T2C0.020
T3C0.028
T4C0.032
T5C0.039
T6C0.040
T7C0.067
T8C0.091
T9C0.138
%
G90
G05
T1
X007795Y015906
X008819Y011220
X009803Y011811
X010157Y011457
X010354Y012008
X010394Y009291
X011339Y011693
X011535Y013839
X011614Y005630
X011811Y005827
X011929Y011969
X011929Y011654
X011929Y006693
X011969Y009764
X012008Y014685
X012598Y004685
X013031Y006063
X013150Y007717
X013937Y010394
X013937Y010118
X013937Y009843
X013937Y009567
X013937Y009291
X013937Y009016
X014055Y006575
X014724Y015630
X015197Y009567
X015315Y008996
X015315Y008366
X015472Y008130
X015551Y007854
X015689Y007598
X016535Y010039
X016811Y010039
X016988Y008504
X017087Y010039
X017598Y012402
X018346Y004724
X018362Y015527
X018386Y004409
T2
X003937Y014134
X004350Y014134
X005866Y005236
X006063Y010354
X006772Y010866
X006772Y009843
X006890Y015866
X007756Y003386
X007953Y005236
X008031Y008937
X008031Y008583
X008031Y007717
X008031Y003110
X008071Y007205
X008189Y006260
X008189Y005827
X008307Y002835
X009803Y002677
X010236Y005512
X010236Y004331
X011142Y012047
X011260Y011339
X011496Y004213
X011969Y003740
X012087Y010374
X012480Y015079
X012520Y011181
X012559Y002126
X012598Y009055
X013583Y013780
X013661Y003543
X014055Y003504
X014803Y012874
X015039Y011181
X015354Y005315
X015354Y003937
X016220Y007362
X016575Y015039
X016732Y006890
X017283Y009134
X017323Y006299
X017480Y011614
X017913Y006260
X018386Y010394
X018386Y007323
X019803Y012992
X019803Y007283
T3
X002827Y014055
X002827Y012313
T4
X004921Y013650
X004921Y012650
X005708Y013650
X005708Y012650
T5
X002203Y018685
X002232Y017677
X002232Y016673
X003203Y018685
X003232Y017677
X003232Y016673
X004203Y018685
X004232Y017677
X004232Y016673
X005203Y018685
X005232Y017677
X005232Y016673
X005803Y000685
X006203Y018685
X006232Y017677
X006232Y016673
X006803Y000685
X007203Y018685
X007232Y017677
X007232Y016673
X007803Y000685
X008203Y018685
X008232Y017677
X008232Y016673
X008803Y000685
X009203Y018685
X009232Y017677
X009232Y016673
X009803Y000685
X010203Y018685
X010232Y017677
X010232Y016673
X010803Y000685
X011203Y018685
X011232Y017677
X011232Y016673
X011803Y000685
X012799Y017677
X012799Y016673
X012803Y018685
X012803Y000685
X013799Y017677
X013799Y016673
X013803Y018685
X014799Y017677
X014799Y016673
X014803Y018685
X015799Y017677
X015799Y016673
X015803Y018685
X016799Y017677
X016799Y016673
X016803Y018685
X017799Y017677
X017799Y016673
X017803Y018685
X018799Y017677
X018799Y016673
X018803Y018685
X019799Y017677
X019799Y016673
X019803Y018685
T6
X009618Y008638
X009618Y007638
X009618Y006638
X010618Y008638
X010618Y007638
X010618Y006638
X014783Y001673
X014803Y002677
X014803Y000685
X015783Y001673
X015803Y002677
X015803Y000685
X016783Y001673
X016803Y002677
X016803Y000685
X017783Y001673
X017803Y002677
X017803Y000685
X018783Y001673
X018803Y002677
X018803Y000685
X019783Y001673
X019803Y002677
X019803Y000685
T7
X001575Y014803
X001575Y011575
T8
X003858Y015512
X003858Y010788
T9
X003819Y001102
X005000Y002953
T9
X002638Y002953G85X002638Y002953
G05
T0
M30
